<svg id="Layer_1" data-name="Layer 1" xmlns="http://www.w3.org/2000/svg" viewBox="0 0 671.8 462.72"><path d="M648.23,146.92c8-24.31,15.53-47.28,2.66-70.54a94.28,94.28,0,0,0-6.32-9.19c-1.19-1.62-2.49-3.45-3.91-5.44-13.49-19-36.08-50.86-64-47.72-5.79.65-10.22,1.13-14.47,1.59-7.57.82-14.71,1.59-28,3.17-21.52,2.53-32.67.13-49.55-3.51-4.63-1-9.88-2.14-15.8-3.25-10.84-2-27.73,1.88-47.29,6.43-12.64,2.93-25.71,6-38.91,7.85s-27.12,3.06-39.28,4.07c-17,1.41-31.72,2.64-39.8,5.44-37.16,12.88-58.13,34.75-82.41,60.09-18.49,19.28-39.44,41.15-70.77,61a182.92,182.92,0,0,1-20.19,10.7c-12,5.7-21.5,10.2-24.74,20.18a37.38,37.38,0,0,0-1.2,4.74c-2.51-.14-4.92-.19-7.14-.17-9.83-10.74-19.79-13.55-29.61-8.33-5.26,2.79-7.63,9.3-10.62,17.54-2.52,7-5.67,15.6-11.48,24.3C39.25,235,40,241.35,40.82,248.75a61,61,0,0,1-.3,20.11c-5.2,27.63-11,38.9-12.63,41.7l-.13.22c-8.19,13.9-13.13,22.3-13.68,34.3-.38,8.37,7.46,19.25,15,20.79a8.63,8.63,0,0,0,4.33-.17,17.1,17.1,0,0,0,4.27,2.66c5.89,2.53,24.84,4,34.81-4.75a17.3,17.3,0,0,0,4.35-6.16,18.43,18.43,0,0,1,3.84-5.75c8.83-8.72,21.9-14.11,28.92-17,1.26-.52,2.3-.95,3.09-1.3,6.52-2.93,13.91-10.63,22.47-19.55C145.78,302.76,159,289,174.76,280.31c13-7.13,26.42-8.51,38.32-7.39,9.21,8.46,7.9,23.69,6.43,40.74l0,.4c-1.1,12.73-1.65,19.13-2.7,25-2.36,13.17-5.59,31.22-16.14,48.22-6.88,11.09-15.11,18.9-21.72,25.17-5.2,4.94-9.35,8.87-10.66,12.6l-.41,3a6.09,6.09,0,0,0,.21,1.1c1,3.59,4.37,6.47,9.51,8.12,8.89,2.86,23.19,2,32.16-5.25,4-3.25,6.75-6,9.07-10l1.93-3.75h0c2.19-5,4.22-11.76,7-22.29,4.15-15.58,7.39-24.58,18.35-47.19a316.24,316.24,0,0,0,14.76-35.26c2.39-6.68,4-11.22,7.1-15.91,8.06,6.63,13.7,10.92,26.25,9.1,12.37-1.78,51.41-21.85,56.91-30.56a3.8,3.8,0,0,0,.67-3.16c-.7-2.25-3.6-3.95-8.61-5-15.55-3.37-52.85-.41-72.73,21.89-1.14,1.28-2.14,2.5-3,3.68a125.39,125.39,0,0,0-16-11.41,97.57,97.57,0,0,0-37.21-12.06,28.1,28.1,0,0,0-10.67-5.23c-4.22-1.14-9.06-3.35-8.18-7.33,2.52-11.39,47.25-31.47,100.32-22.29,4.88.84,48.18,9.09,66.88,38.64,5.9,9.33,7.78,17.37,10.15,27.53,2.61,11.2,5.57,23.88,14.8,42.33,2.94,5.88,5.36,10.13,7.5,13.89,4.2,7.38,7,12.25,9.85,22.63a229.48,229.48,0,0,1,5.39,25.34l.43,2.8c.67,4.38,1.21,8.52,1.72,12.33,2.24,17,3.73,28.26,11.17,31,4.14,1.51,10.68.55,16.67-2.46,6.23-3.14,10.7-7.93,12.25-13.15,1.1-3.67-.91-10.87-8.72-28.69l-1.22-2.77c-3.12-7-7.05-15.55-12-26l-.11-.24c-3.81-8.1-8.13-17.29-8.51-29.82a58.29,58.29,0,0,1,.67-10c.16-1.18.3-2.2.35-3,.46-9.19-1.27-18.21-3.44-29.62-1.6-8.35-3.41-17.82-4.92-29.9-1.11-8.9.71-16.05,2.63-23.63s3.91-15.36,3.11-25.39-3.45-16.62-7.13-25.64a271.42,271.42,0,0,1-11.06-31.76,1.4,1.4,0,1,0-2.69.76,270.49,270.49,0,0,0,11.16,32.05c3.71,9.12,6.16,15.14,6.93,24.82s-1.17,17.14-3,24.47c-2,7.84-3.88,15.25-2.7,24.66,1.53,12.18,3.34,21.69,5,30.08,2.14,11.23,3.83,20.1,3.39,29,0,.73-.17,1.7-.32,2.81a59.65,59.65,0,0,0-.7,10.41c.4,13.11,4.85,22.58,8.78,30.93l.11.24c4.63,9.85,8.41,18,11.45,24.85l1.23,2.77c7.61,17.28,9.95,24.82,9.06,27.81-1.33,4.49-5.28,8.66-10.83,11.45-5.25,2.63-11,3.57-14.45,2.33-5.85-2.13-7.32-13.28-9.36-28.71-.49-3.74-1-7.78-1.67-12.07h0l-.45-2.79a234.46,234.46,0,0,0-5.51-26c-3-10.71-6-16-10.12-23.27-2.12-3.72-4.52-7.94-7.43-13.75-9.08-18.15-12-30.67-14.58-41.71-2.33-10-4.35-18.66-10.51-28.4-19.34-30.57-63.76-39-68.76-39.9a159.81,159.81,0,0,0-70,3.41c-18.72,5.35-31.88,13.61-33.52,21-.62,2.78-.11,7.85,10.18,10.64a29.83,29.83,0,0,1,5.65,2.14,67.59,67.59,0,0,0-35,8.17c-16.12,8.87-29.51,22.83-40.28,34-8.36,8.71-15.57,16.23-21.59,18.93-.77.35-1.79.77-3,1.27-7.21,3-20.61,8.5-29.83,17.61a21.26,21.26,0,0,0-4.39,6.52,14.67,14.67,0,0,1-3.67,5.27c-9,7.83-26.62,6.54-31.87,4.29a14.5,14.5,0,0,1-2.68-1.53A10,10,0,0,0,38,362.2c2.9-4.09,3.57-10.78,1.45-14.32a8.32,8.32,0,0,0-6.52-4,6.43,6.43,0,0,0-5.58,2.84c-1.47,2-1.76,5-.81,8.47a21.86,21.86,0,0,0,4.4,8.12,7.74,7.74,0,0,1-1.32-.15C24,362,16.53,352.73,16.88,345.2c.51-11.3,5.32-19.47,13.29-33l.13-.22c1.71-2.89,7.69-14.52,13-42.6,1.69-9,1-15.36.34-20.94-.85-7.42-1.46-12.78,4-21,6-9,9.21-17.81,11.78-24.9,2.79-7.68,5-13.74,9.3-16,10.8-5.73,19.71,1,24.61,6-3.42.23-6.15.72-7.74,1.54-5,2.53-7.15,7.1-7.15,10.5a6.23,6.23,0,0,0,3.31,5.81c9.87,5,12.25,16.3,13.83,23.79.91,4.31,1.51,7.15,3.28,8.09a2.71,2.71,0,0,0,2.36.05c2.6-1.08,4.11-5.44,4.93-8.91a53.84,53.84,0,0,0,1-17,43.61,43.61,0,0,0,11.55,15.41c8.65,7.34,22.19,12.09,27.81,7.18,3.36-2.94,5.41-10.87,4.76-18.45-.76-9.07-5.09-16.46-12.17-20.8-5.49-3.36-19.6-6-32.16-7a34,34,0,0,1,1-4.06c2.87-8.83,11.43-12.89,23.28-18.51a184.37,184.37,0,0,0,20.48-10.86c31.62-20,52.7-42,71.3-61.41,24-25.07,44.79-46.72,81.31-59.38,7.74-2.68,22.28-3.89,39.11-5.29,12.2-1,26-2.17,39.45-4.08s26.45-4.95,39.15-7.91c19.25-4.47,35.88-8.33,46.14-6.4C474.14,15.89,479.37,17,484,18c16.54,3.57,28.48,6.15,50.47,3.56,13.33-1.58,20.46-2.35,28-3.17,4.25-.46,8.68-.94,14.48-1.59,26.28-2.94,48.29,28,61.43,46.56,1.42,2,2.73,3.85,3.93,5.48a92.93,92.93,0,0,1,6.13,8.88c12.27,22.2,5.25,43.57-2.88,68.32-.28.87-.57,1.75-.86,2.63.11-.49.21-1,.32-1.48a172.68,172.68,0,0,0,7.67-35.67A1.4,1.4,0,0,0,651.5,110a1.42,1.42,0,0,0-1.58,1.11l-1.52,7.5c-.82,4.92-2.16,10.7-3.58,16.82-.8,3.45-1.65,7.12-2.49,11-2,6.41-4.16,12.26-6,17.39l-.09.24c-10.81,29.7-18.76,54.05-14.81,74.56a118.42,118.42,0,0,0,5.54,20,84.73,84.73,0,0,1,3.28,10.79c1.19,5.38-1.7,9.6-6.47,16.6s-11.4,16.72-16.62,32.48c-4.3,13-13.26,40-4.44,69.18,4.42,14.64,2.74,20.73-1.9,26.85-3.22,4.26-6.78,6.68-10,6.84q-3.87.17-7.45-3.73l-1-1c-5.66-6-17.44-18.48-11.63-43.34,1.12-4.82,3.63-11.22,6.53-18.63,5.22-13.35,11.72-30,13.24-45.66,1.61-16.56-3.2-38.07-13.2-59-7.21-15.12-17.94-30.9-24.49-31.79a10.44,10.44,0,0,0-1.46-.1c-4.9,0-8.61,3.51-13.57,8.21C533,230.8,527,236.43,517.5,241.68A146.35,146.35,0,0,1,497,250.61c-8.84,3.27-14.67,5.44-15.3,10.19-.37,2.8,1.86,4.18,4.22,5.64,2.65,1.64,5.95,3.68,8.29,8.45a32.23,32.23,0,0,1,3.06,14c.12,3.1.21,5.55,2.47,6.17,5.06,1.41,12.06-10.71,14.47-19.35a53.27,53.27,0,0,0,1.78-11.2c0-.64.1-1.32.16-1.88a25.7,25.7,0,0,1,1.74,10A96.73,96.73,0,0,1,516.78,287c-.74,5.53-1.15,8.57,1.34,9.19,3.76.92,7.15-3.89,10.43-8.54a32,32,0,0,1,3.86-4.86,40.18,40.18,0,0,1,.14,6c-.1,5.2-.08,8.44,1.49,9.64a2.22,2.22,0,0,0,2,.35c2.09-.62,3.9-4.14,6.67-9.82a50.59,50.59,0,0,1,4.08-7.41,44.77,44.77,0,0,1-.13,6.56c-.38,5.71-.49,8.72,1.4,9.59.94.43,2.54.49,6.48-3,.35-.3.73-.65,1.14-1,0,5.43.43,11.52.83,17.74.34,5.23.68,10.64.8,15.51.72,31.26-7.4,52.94-11.79,60-1.38,2.23-3,4.61-4.74,7.13-3.62,5.27-7.12,10.35-8.75,14.65h0l-.88,3.65a7.13,7.13,0,0,0,.13,2.37,2.56,2.56,0,0,0,1.34,1.56c4.08,2.45,20.24,5,31.6,2,2.89-.76,3.82-2.48,3.73-3.83-.11-1.64-1.61-2.88-3.82-3.16-4.15-.52-15.22-1.41-29.13-2.37,1.69-3.91,5-8.78,8.12-13.27,1.75-2.54,3.4-4.95,4.81-7.24,4.55-7.34,12.94-29.66,12.2-61.57-.11-4.93-.46-10.37-.8-15.63-.44-6.89-.91-14.24-.8-20.43,4.58-4.95,10-12.12,8.89-15.63a2.87,2.87,0,0,0-2.57-2,6.06,6.06,0,0,0-5.14,1.6c-2.72,2.57-3.75,8-4,14.94-2.66,2.77-5.14,4.85-6.35,5.29a36.48,36.48,0,0,1,.08-6.72c.37-5.59.63-9.63-2-10-2.36-.3-4.09,3-7.21,9.41-1.3,2.66-3.39,6.94-4.59,8.1a36.71,36.71,0,0,1-.26-7c.1-5.17.17-8.58-2.08-9.05s-4.25,2.34-7,6.25c-2.11,3-5.26,7.46-7.2,7.46h0a30.94,30.94,0,0,1,.51-6.12,100.15,100.15,0,0,0,1.15-14.77c-.05-6.24-1.48-11.66-3.48-13.18a2.25,2.25,0,0,0-1.94-.43c-1.72.47-1.86,2.4-2.07,5.32A50.46,50.46,0,0,1,511.53,275c-2.89,10.36-9.42,17.84-11,17.42-.32-.33-.39-2.22-.44-3.6a35.29,35.29,0,0,0-3.35-15.14c-2.69-5.49-6.53-7.87-9.33-9.6-2.26-1.4-3-2-2.91-2.9.4-3.08,5.89-5.11,13.49-7.92a150,150,0,0,0,20.86-9.11c9.86-5.42,15.94-11.18,20.83-15.81,5.06-4.8,8.4-8,12.74-7.38,8.65,1.18,39,49.57,35.28,87.78-1.49,15.31-7.91,31.73-13.07,44.91-2.94,7.52-5.48,14-6.65,19-6.15,26.33,6.8,40.05,12.33,45.91l1,1c3,3.23,6.22,4.79,9.65,4.63,5.24-.26,9.48-4.46,12.12-7.95,5.2-6.86,7.12-13.57,2.35-29.35-8.56-28.32.2-54.77,4.42-67.49,5.1-15.39,11.56-24.86,16.27-31.78,4.84-7.1,8.34-12.23,6.89-18.79a85.56,85.56,0,0,0-3.37-11.12,116.16,116.16,0,0,1-5.43-19.63c-3.81-19.81,4-43.79,14.69-73.08l.07-.18c-.29,2-.56,4-.79,6-3.68,14.81-5.74,30.86-2.77,48.34a145.6,145.6,0,0,0,4.92,20.12l.12.39c-.89,17-4,35.71-6.58,50.87-3.17,18.92-4.61,28.14-2.63,30.88a2.36,2.36,0,0,0,1.57,1,2.83,2.83,0,0,0,2.29-.82c4.52-3.86,12.78-25.9,12.73-50.3,0-16.55-2.11-23.9-4.56-32,.47-9.61.22-18.67-1.25-26.25a134.65,134.65,0,0,1-1.14-41.64C642.93,163,645.59,154.93,648.23,146.92ZM272.52,291.73c18.88-21.18,55.52-24.17,70.05-21,4.39,1,6.26,2.29,6.52,3.12.15,1.23-5.09,6.8-22.21,16.17-13.43,7.35-27,13.09-33.09,14-11.44,1.65-16.4-2.18-24.23-8.63C270.43,294.17,271.41,293,272.52,291.73Zm-22.61-7.2a124.64,124.64,0,0,1,15.85,11.3c-3.35,5-5,9.73-7.55,16.76a315.76,315.76,0,0,1-14.65,35c-11.06,22.81-14.33,31.91-18.54,47.68-3.11,11.66-5.18,18.54-7.57,23.38l-1.79,3.17a33.65,33.65,0,0,1-7.69,8c-7.91,6.38-21.23,7.43-29.55,4.77-4.21-1.35-6.93-3.56-7.67-6.21a4.81,4.81,0,0,1-.12-.76l.92-3.07c1.58-2.76,5-6.05,9.3-10.09,6.72-6.38,15.1-14.33,22.17-25.73,10.83-17.45,14.12-35.8,16.52-49.2,1.07-6,1.62-12.42,2.73-25.24l0-.4c1.36-15.74,2.66-30.84-4.86-40.45A97.45,97.45,0,0,1,249.91,284.53ZM29.25,354.41c-.71-2.56-.57-4.78.38-6.09a3.64,3.64,0,0,1,3-1.69h.17a5.6,5.6,0,0,1,4.24,2.68c1.38,2.3,1.09,7.84-1.33,11.26a6.91,6.91,0,0,1-1.81,1.81A19.08,19.08,0,0,1,29.25,354.41Zm74.54-159.22a38.88,38.88,0,0,0-.14,6.91A32,32,0,0,0,99.38,195C100.79,195.05,102.27,195.1,103.79,195.19Zm-.35,37.51c-1.12,4.79-2.57,6.61-3.31,7-.63-.6-1.3-3.79-1.79-6.14-1.69-8-4.24-20.11-15.31-25.71a3.57,3.57,0,0,1-1.77-3.31c0-2.55,1.73-6,5.63-8,1.68-.86,4.85-1.32,8.83-1.44l.53.61.4.46C105.53,206.35,105.58,223.6,103.44,232.7ZM137.7,202c8.5,5.21,10.44,13.92,10.84,18.65.63,7.34-1.49,14.07-3.81,16.1-4,3.47-15.71,0-24.15-7.21-10.23-8.69-15.41-21.78-14-34.21C118.7,196.27,132.53,198.87,137.7,202ZM563.76,414.11c.94.12,1.33.46,1.37.55s-.45.64-1.65.95c-11.87,3.12-27.49-.19-29.55-1.73a5.7,5.7,0,0,1,.12-2.18C548.23,412.68,559.55,413.58,563.76,414.11ZM561.6,276.82a3.18,3.18,0,0,1,2.28-.89,4.12,4.12,0,0,1,.6,0l.23,0c0,.12.23,1.1-1.49,4.08a47.55,47.55,0,0,1-4.51,6.29C559.07,281.88,559.92,278.41,561.6,276.82Zm81-29.19c1.39,5.78,2.32,12.5,2.34,23.66,0,24.7-8.47,45.73-11.69,48.16-1-2.75,1.26-16.38,3.29-28.46C638.76,278.05,641.36,262.52,642.64,247.63Zm-2-17.2c-.87-3.31-1.73-7.11-2.52-11.76a100.83,100.83,0,0,1-1.07-25.11,121.88,121.88,0,0,0,2.17,20A90.88,90.88,0,0,1,640.64,230.43Z"/></svg>