<?xml version="1.0" encoding="utf-8"?>
<!-- Generator: Adobe Illustrator 25.4.1, SVG Export Plug-In . SVG Version: 6.00 Build 0)  -->
<svg version="1.1" id="Layer_1" xmlns="http://www.w3.org/2000/svg" xmlns:xlink="http://www.w3.org/1999/xlink" x="0px" y="0px"
	 viewBox="0 0 671.8 462.7" style="enable-background:new 0 0 671.8 462.7;" xml:space="preserve">
<path d="M655.1,146.7c8.1-24.7,15.8-48.1,2.7-71.8c-2-3.2-4.1-6.4-6.4-9.3c-1.2-1.6-2.5-3.5-4-5.5c-13.7-19.3-36.7-51.7-65.1-48.5
	c-5.9,0.7-10.4,1.1-14.7,1.6c-7.7,0.8-15,1.6-28.5,3.2c-21.9,2.6-33.2,0.1-50.4-3.6c-4.7-1-10-2.2-16.1-3.3c-11-2-28.2,1.9-48.1,6.5
	c-12.9,3-26.2,6.1-39.6,8s-27.6,3.1-40,4.1c-17.3,1.4-32.3,2.7-40.5,5.5c-37.8,13.1-59.1,35.3-83.8,61.1c-18.8,19.6-40.1,41.9-72,62
	c-6.6,4.1-13.5,7.7-20.5,10.9c-12.2,5.8-21.9,10.4-25.2,20.5c-0.5,1.6-0.9,3.2-1.2,4.8c-2.6-0.1-5-0.2-7.3-0.2
	c-10-10.9-20.1-13.8-30.1-8.5c-5.4,2.8-7.8,9.5-10.8,17.8c-2.6,7.1-5.8,15.9-11.7,24.7c-6.3,9.3-5.5,15.7-4.7,23.3
	c1,6.8,0.9,13.7-0.3,20.5c-5.3,28.1-11.2,39.6-12.8,42.4l-0.1,0.2C15.6,327.5,10.6,336,10,348.2c-0.4,8.5,7.6,19.6,15.3,21.1
	c1.5,0.3,3,0.3,4.4-0.2c1.3,1.1,2.8,2,4.3,2.7c6,2.6,25.3,4.1,35.4-4.8c1.9-1.7,3.4-3.9,4.4-6.3c0.9-2.2,2.2-4.2,3.9-5.8
	c9-8.9,22.3-14.4,29.4-17.3c1.3-0.5,2.3-1,3.1-1.3c6.6-3,14.1-10.8,22.9-19.9c10.8-11.3,24.2-25.3,40.3-34.1
	c13.2-7.3,26.9-8.7,39-7.5c9.4,8.6,8,24.1,6.5,41.4v0.4c-1.1,12.9-1.7,19.5-2.7,25.4c-2.4,13.4-5.7,31.8-16.4,49
	c-7,11.3-15.4,19.2-22.1,25.6c-5.3,5-9.5,9-10.8,12.8l-0.4,3.1c0,0.4,0.1,0.8,0.2,1.1c1,3.7,4.4,6.6,9.7,8.3c9,2.9,23.6,2,32.7-5.3
	c4.1-3.3,6.9-6.1,9.2-10.2l2-3.8l0,0c2.2-5.1,4.3-12,7.1-22.7c4.2-15.8,7.5-25,18.7-48c5.7-11.6,10.7-23.6,15-35.9
	c2.4-6.8,4.1-11.4,7.2-16.2c8.2,6.7,13.9,11.1,26.7,9.3c12.6-1.8,52.3-22.2,57.9-31.1c0.7-0.9,0.9-2.1,0.7-3.2
	c-0.7-2.3-3.7-4-8.8-5.1c-15.8-3.4-53.8-0.4-74,22.3c-1.2,1.3-2.2,2.5-3.1,3.7c-5.1-4.3-10.6-8.2-16.3-11.6
	c-11.7-6.6-24.5-10.8-37.8-12.3c-3.2-2.5-6.9-4.3-10.9-5.3c-4.3-1.2-9.2-3.4-8.3-7.5c2.6-11.6,48.1-32,102-22.7
	c5,0.9,49,9.2,68,39.3c6,9.5,7.9,17.7,10.3,28c2.7,11.4,5.7,24.3,15.1,43.1c3,6,5.5,10.3,7.6,14.1c4.3,7.5,7.1,12.5,10,23
	c2.3,8.5,4.1,17.1,5.5,25.8l0.4,2.8c0.7,4.5,1.2,8.7,1.7,12.5c2.3,17.3,3.8,28.7,11.4,31.5c4.2,1.5,10.9,0.6,17-2.5
	c6.3-3.2,10.9-8.1,12.5-13.4c1.1-3.7-0.9-11.1-8.9-29.2l-1.2-2.8c-3.2-7.1-7.2-15.8-12.2-26.4l-0.1-0.2c-3.9-8.2-8.3-17.6-8.7-30.3
	c-0.1-3.4,0.2-6.8,0.7-10.2c0.2-1.2,0.3-2.2,0.4-3.1c0.5-9.3-1.3-18.5-3.5-30.1c-1.6-8.5-3.5-18.1-5-30.4c-1.1-9.1,0.7-16.3,2.7-24
	c2-7.7,4-15.6,3.2-25.8s-3.5-16.9-7.3-26.1c-4.4-10.5-8.2-21.3-11.3-32.3c-0.2-0.8-0.9-1.3-1.7-1.1c-0.8,0.2-1.3,0.9-1.1,1.7
	c0,0.1,0,0.1,0,0.2c3.1,11.1,6.9,22,11.4,32.6c3.8,9.3,6.3,15.4,7,25.2c0.8,9.8-1.2,17.4-3.1,24.9c-2,8-3.9,15.5-2.7,25.1
	c1.6,12.4,3.4,22.1,5.1,30.6c2.2,11.4,3.9,20.4,3.4,29.5c0,0.7-0.2,1.7-0.3,2.9c-0.5,3.5-0.8,7-0.7,10.6c0.4,13.3,4.9,23,8.9,31.5
	l0.1,0.2c4.7,10,8.6,18.3,11.6,25.3l1.3,2.8c7.7,17.6,10.1,25.2,9.2,28.3c-1.4,4.6-5.4,8.8-11,11.6c-5.3,2.7-11.2,3.6-14.7,2.4
	c-6-2.2-7.4-13.5-9.5-29.2c-0.5-3.8-1-7.9-1.7-12.3l0,0l-0.5-2.8c-1.4-8.9-3.2-17.7-5.6-26.4c-3.1-10.9-6.1-16.3-10.3-23.7
	c-2.2-3.8-4.6-8.1-7.6-14c-9.2-18.5-12.2-31.2-14.8-42.4c-2.4-10.2-4.4-19-10.7-28.9c-19.7-31.1-64.9-39.7-69.9-40.6
	c-23.7-4.1-48-2.9-71.2,3.5c-19,5.4-32.4,13.8-34.1,21.4c-0.6,2.8-0.1,8,10.4,10.8c2,0.5,3.9,1.3,5.7,2.2
	c-12.4-0.5-24.7,2.4-35.6,8.3c-16.4,9-30,23.2-41,34.6c-8.5,8.9-15.8,16.5-22,19.3c-0.8,0.4-1.8,0.8-3.1,1.3
	c-7.3,3.1-21,8.6-30.3,17.9c-1.9,1.9-3.4,4.2-4.5,6.6c-0.8,2-2.1,3.9-3.7,5.4c-9.2,8-27.1,6.7-32.4,4.4c-1-0.4-1.9-0.9-2.7-1.6
	c0.7-0.6,1.3-1.3,1.8-2.1c2.9-4.2,3.6-11,1.5-14.6c-1.4-2.4-3.9-3.9-6.6-4.1c-2.3-0.1-4.4,1-5.7,2.9c-1.5,2-1.8,5.1-0.8,8.6
	c0.9,3,2.4,5.9,4.5,8.3c-0.5,0-0.9-0.1-1.3-0.2c-5.7-1.2-13.3-10.6-13-18.3c0.5-11.5,5.4-19.8,13.5-33.6l0.1-0.2
	c1.7-2.9,7.8-14.8,13.2-43.3c1.7-9.2,1-15.6,0.3-21.3c-0.9-7.5-1.5-13,4.1-21.4c6.1-9.2,9.4-18.1,12-25.3c2.8-7.8,5.1-14,9.5-16.3
	c11-5.8,20,1,25,6.1c-3.5,0.2-6.3,0.7-7.9,1.6c-5.1,2.6-7.3,7.2-7.3,10.7c-0.1,2.5,1.2,4.8,3.4,5.9c10,5.1,12.5,16.6,14.1,24.2
	c0.9,4.4,1.5,7.3,3.3,8.2c0.8,0.4,1.6,0.4,2.4,0.1c2.6-1.1,4.2-5.5,5-9.1c1.3-5.7,1.6-11.5,1-17.3c2.7,6,6.7,11.4,11.7,15.7
	c8.8,7.5,22.6,12.3,28.3,7.3c3.4-3,5.5-11.1,4.8-18.8c-0.8-9.2-5.2-16.7-12.4-21.2c-5.6-3.4-19.9-6.1-32.7-7.1
	c0.3-1.4,0.6-2.8,1-4.1c2.9-9,11.6-13.1,23.7-18.8c7.2-3.2,14.1-6.9,20.8-11c32.2-20.3,53.6-42.7,72.5-62.5
	c24.4-25.5,45.6-47.5,82.7-60.4c7.9-2.7,22.7-4,39.8-5.4c12.4-1,26.4-2.2,40.1-4.2c13.7-1.9,26.9-5,39.8-8
	c19.6-4.5,36.5-8.5,46.9-6.5c6.1,1.1,11.4,2.2,16.1,3.2c16.8,3.6,29,6.3,51.3,3.6c13.6-1.6,20.8-2.4,28.5-3.2
	c4.3-0.5,8.8-1,14.7-1.6c26.7-3,49.1,28.5,62.5,47.4c1.4,2,2.8,3.9,4,5.6c2.3,2.9,4.3,5.9,6.2,9c12.5,22.6,5.3,44.3-2.9,69.5
	c-0.3,0.9-0.6,1.8-0.9,2.7c0.1-0.5,0.2-1,0.3-1.5c3.9-11.8,6.5-23.9,7.8-36.3c0.1-0.8-0.5-1.4-1.2-1.5c-0.7-0.1-1.4,0.4-1.6,1.1
	l-1.5,7.6c-0.8,5-2.2,10.9-3.6,17.1c-0.8,3.5-1.7,7.2-2.5,11.2c-2,6.5-4.2,12.5-6.1,17.7l-0.1,0.2c-11,30.2-19.1,55-15.1,75.8
	c1.3,6.9,3.2,13.7,5.6,20.3c1.4,3.6,2.5,7.2,3.3,11c1.2,5.5-1.7,9.8-6.6,16.9c-4.9,7.1-11.6,17-16.9,33
	c-4.4,13.2-13.5,40.7-4.5,70.4c4.5,14.9,2.8,21.1-1.9,27.3c-3.3,4.3-6.9,6.8-10.2,7c-2.6,0.1-5.2-1.1-7.6-3.8l-1-1
	c-5.8-6.1-17.7-18.8-11.8-44.1c1.1-4.9,3.7-11.4,6.6-19c5.3-13.6,11.9-30.5,13.5-46.4c1.6-16.8-3.3-38.7-13.4-60
	c-7.3-15.4-18.2-31.4-24.9-32.3c-0.5-0.1-1-0.1-1.5-0.1c-5,0-8.8,3.6-13.8,8.4c-4.9,4.6-11,10.3-20.6,15.6
	c-6.7,3.6-13.7,6.6-20.9,9.1c-9,3.3-14.9,5.5-15.6,10.4c-0.4,2.8,1.9,4.3,4.3,5.7c2.7,1.7,6.1,3.7,8.4,8.6c2.1,4.5,3.2,9.3,3.1,14.2
	c0.1,3.2,0.2,5.6,2.5,6.3c5.1,1.4,12.3-10.9,14.7-19.7c1-3.7,1.6-7.5,1.8-11.4c0-0.7,0.1-1.3,0.2-1.9c1.3,3.2,1.9,6.7,1.8,10.2
	c0,4.9-0.4,9.8-1.1,14.6c-0.8,5.6-1.2,8.7,1.4,9.3c3.8,0.9,7.3-4,10.6-8.7c1.1-1.8,2.5-3.4,3.9-4.9c0.2,2,0.2,4.1,0.1,6.1
	c-0.1,5.3-0.1,8.6,1.5,9.8c0.6,0.4,1.3,0.6,2,0.4c2.1-0.6,4-4.2,6.8-10c1.2-2.6,2.6-5.1,4.2-7.5c0.1,2.2,0.1,4.5-0.1,6.7
	c-0.4,5.8-0.5,8.9,1.4,9.8c1,0.4,2.6,0.5,6.6-3.1c0.4-0.3,0.7-0.7,1.2-1c0,5.5,0.4,11.7,0.8,18c0.3,5.3,0.7,10.8,0.8,15.8
	c0.7,31.8-7.5,53.9-12,61c-1.4,2.3-3.1,4.7-4.8,7.3c-3.7,5.4-7.2,10.5-8.9,14.9l0,0l-0.9,3.7c-0.1,0.8,0,1.6,0.1,2.4
	c0.2,0.7,0.7,1.3,1.4,1.6c4.2,2.5,20.6,5.1,32.1,2c2.9-0.8,3.9-2.5,3.8-3.9c-0.1-1.7-1.6-2.9-3.9-3.2c-4.2-0.5-15.5-1.4-29.6-2.4
	c1.7-4,5.1-8.9,8.3-13.5c1.8-2.6,3.5-5,4.9-7.4c4.6-7.5,13.2-30.2,12.4-62.6c-0.1-5-0.5-10.5-0.8-15.9c-0.4-7-0.9-14.5-0.8-20.8
	c4.7-5,10.2-12.3,9-15.9c-0.4-1.2-1.4-2-2.6-2c-1.9-0.3-3.8,0.3-5.2,1.6c-2.8,2.6-3.8,8.1-4.1,15.2c-2.7,2.8-5.2,4.9-6.5,5.4
	c-0.2-2.3-0.2-4.6,0.1-6.8c0.4-5.7,0.6-9.8-2-10.2c-2.4-0.3-4.2,3.1-7.3,9.6c-1.3,2.7-3.4,7.1-4.7,8.2c-0.3-2.4-0.4-4.7-0.3-7.1
	c0.1-5.3,0.2-8.7-2.1-9.2s-4.3,2.4-7.1,6.4c-2.1,3.1-5.4,7.6-7.3,7.6l0,0c0-2.1,0.1-4.2,0.5-6.2c0.8-5,1.2-10,1.2-15
	c-0.1-6.3-1.5-11.9-3.5-13.4c-0.6-0.4-1.3-0.6-2-0.4c-1.7,0.5-1.9,2.4-2.1,5.4c-0.2,3.7-0.8,7.3-1.8,10.9
	c-2.9,10.5-9.6,18.1-11.2,17.7c-0.3-0.3-0.4-2.3-0.4-3.7c0-5.3-1.1-10.6-3.4-15.4c-2.7-5.6-6.6-8-9.5-9.8c-2.3-1.4-3.1-2-3-2.9
	c0.4-3.1,6-5.2,13.7-8.1c7.3-2.5,14.4-5.6,21.2-9.3c10-5.5,16.2-11.4,21.2-16.1c5.1-4.9,8.5-8.1,13-7.5c8.8,1.2,39.7,50.4,35.9,89.3
	c-1.5,15.6-8,32.3-13.3,45.7c-3,7.6-5.6,14.2-6.8,19.3c-6.3,26.8,6.9,40.7,12.5,46.7l1,1c3.1,3.3,6.3,4.9,9.8,4.7
	c5.3-0.3,9.6-4.5,12.3-8.1c5.3-7,7.2-13.8,2.4-29.9c-8.7-28.8,0.2-55.7,4.5-68.7c5.2-15.7,11.8-25.3,16.5-32.3
	c4.9-7.2,8.5-12.4,7-19.1c-0.9-3.8-2-7.6-3.4-11.3c-2.4-6.5-4.3-13.2-5.5-20c-3.9-20.2,4.1-44.5,14.9-74.3l0.1-0.2
	c-0.3,2-0.6,4.1-0.8,6.1c-3.7,15.1-5.8,31.4-2.8,49.2c1.2,6.9,2.9,13.8,5,20.5l0.1,0.4c-0.9,17.3-4.1,36.3-6.7,51.7
	c-3.2,19.2-4.7,28.6-2.7,31.4c0.4,0.5,0.9,0.9,1.6,1c0.9,0.1,1.7-0.2,2.3-0.8c4.6-3.9,13-26.3,12.9-51.2c0-16.8-2.1-24.3-4.6-32.6
	c0.5-9.8,0.2-19-1.3-26.7c-2.6-14-3-28.3-1.2-42.4C649.7,163,652.4,154.8,655.1,146.7z M272.9,294c19.2-21.5,56.5-24.6,71.3-21.4
	c4.5,1,6.4,2.3,6.6,3.2c0.2,1.3-5.2,6.9-22.6,16.4c-13.7,7.5-27.5,13.3-33.7,14.2c-11.6,1.7-16.7-2.2-24.6-8.8
	C270.8,296.4,271.8,295.3,272.9,294z M249.9,286.6c5.7,3.4,11.1,7.2,16.1,11.5c-3.4,5.1-5.1,9.9-7.7,17c-4.2,12.2-9.2,24-14.9,35.6
	c-11.3,23.2-14.6,32.5-18.9,48.5c-3.2,11.9-5.3,18.9-7.7,23.8l-1.8,3.2c-2.1,3.1-4.8,5.9-7.8,8.1c-8,6.5-21.6,7.6-30.1,4.9
	c-4.3-1.4-7-3.6-7.8-6.3c-0.1-0.3-0.1-0.5-0.1-0.8l0.9-3.1c1.6-2.8,5.1-6.2,9.5-10.3c6.8-6.5,15.4-14.6,22.6-26.2
	c11-17.8,14.4-36.4,16.8-50c1.1-6.1,1.6-12.6,2.8-25.7v-0.4c1.4-16,2.7-31.4-4.9-41.1C228.4,277.1,239.6,281,249.9,286.6
	L249.9,286.6z M25.4,357.7c-0.7-2.6-0.6-4.9,0.4-6.2c0.7-1,1.8-1.7,3.1-1.7h0.2c1.8,0.2,3.4,1.2,4.3,2.7c1.4,2.3,1.1,8-1.4,11.5
	c-0.5,0.7-1.1,1.3-1.8,1.8C28,363.6,26.3,360.8,25.4,357.7z M101.3,195.8c-0.3,2.3-0.3,4.7-0.1,7c-1.1-2.6-2.6-5-4.3-7.2
	C98.2,195.6,99.7,195.7,101.3,195.8z M100.9,233.9c-1.1,4.9-2.6,6.7-3.4,7.1c-0.6-0.6-1.3-3.9-1.8-6.2c-1.7-8.1-4.3-20.5-15.6-26.2
	c-1.2-0.7-1.9-2-1.8-3.4c0-2.6,1.8-6.1,5.7-8.1c1.7-0.9,4.9-1.3,9-1.5l0.5,0.6l0.4,0.5C103,207.1,103.1,224.7,100.9,233.9z
	 M135.8,202.7c8.6,5.3,10.6,14.2,11,19c0.6,7.5-1.5,14.3-3.9,16.4c-4.1,3.5-16,0-24.6-7.3c-10.4-8.8-15.7-22.2-14.2-34.8
	C116.4,196.9,130.5,199.5,135.8,202.7z M569.1,418.5c1,0.1,1.4,0.5,1.4,0.6c0,0.1-0.5,0.7-1.7,1c-12.1,3.2-28-0.2-30.1-1.8
	c-0.1-0.7-0.1-1.5,0.1-2.2C553.3,417,564.9,417.9,569.1,418.5z M566.9,278.8c0.6-0.6,1.5-0.9,2.3-0.9c0.2,0,0.4,0,0.6,0h0.2
	c0,0.1,0.2,1.1-1.5,4.2c-1.4,2.3-2.9,4.4-4.6,6.4C564.4,283.9,565.2,280.4,566.9,278.8z M649.3,249.1c1.4,5.9,2.4,12.7,2.4,24.1
	c0,25.1-8.6,46.5-11.9,49c-1-2.8,1.3-16.7,3.3-28.9C645.4,280.1,648.1,264.3,649.3,249.1L649.3,249.1z M647.3,231.6
	c-0.9-3.4-1.8-7.2-2.6-12c-1.4-8.4-1.8-17-1.1-25.5c0.2,6.8,0.9,13.6,2.2,20.3C646.9,220.1,647.4,225.9,647.3,231.6L647.3,231.6z"/>
</svg>
