<?xml version="1.0" encoding="utf-8"?>
<!-- Generator: Adobe Illustrator 25.4.1, SVG Export Plug-In . SVG Version: 6.00 Build 0)  -->
<svg version="1.1" id="Layer_1" xmlns="http://www.w3.org/2000/svg" xmlns:xlink="http://www.w3.org/1999/xlink" x="0px" y="0px"
	 viewBox="0 0 474.9 462" style="enable-background:new 0 0 474.9 462;" xml:space="preserve">
<path d="M96.9,442.1c7.2-2.3,13.2-6.6,19.3-14.5c3.2-4.1,2.6-6.4,1.9-9.4c-1.2-4.8-2.9-12.1,10.6-35.8c1.8-3.1,3.9-6.5,6.1-10.3
	c5.3-8.8,11.3-18.7,14.5-26.7c8.6-21.4,14.7-42.6,17.9-61.2c3.7,1.2,7.2,2.1,10,2.8c13.9,3.7,29.5,4.9,44,4.2
	c2.6,5.6,5.4,11.9,8.5,18.9c4.4,10,5.6,20.6,6.7,30.9c0.8,7,1.5,13.5,3.1,19.9c1.4,5.4,5.2,11.7,9.2,18.4
	c6.5,10.8,13.8,23.1,11.8,33.3c-1.8,9.2-3.9,16.5-5.7,22.2c-1.8,6.1-3.1,10.6-3,14.1l0.3,2.1l0,0c0.3,1.1,0.8,2.1,1.5,3
	c1.5,1.8,4.3,2.8,7.9,2.8c0.6,0,1.1,0,1.7-0.1c4.9-0.4,10.7-2.5,14.4-6.1l1.8-2.2c0.1-0.2,0.2-0.4,0.4-0.6c2.1-3.7,1.6-7.3,1-11.1
	c-0.6-4-1.2-8.1,1.2-12.9c1.6-3.2,3.8-4.6,5.8-5.8c2-1.2,4.1-2.5,3.6-5.4c-0.5-3.3-2.4-5.4-5-8.3c-4.8-5.4-12-13.5-18.7-37
	c-6.4-22.5-2.4-52.4,5.5-64.2c2.5-3.7,6.4-4.9,11.6-4.9c4.2,0.1,8.3,0.5,12.5,1.2c12.9,1.7,28.8,3.8,47.7-2.6
	c8.1-2.7,15.9-6.6,23-11.3c2.9,4,6.1,7.8,9.6,11.4c7.3,7.7,14.1,14.9,17.2,30.6c6.3,31.1-8.4,61.4-13,69.9
	c-3.8,7.1-7.9,13.2-11.2,18c-5.9,8.8-9.8,14.5-7,18.3c1.2,1.6,3.7,2.7,7,2.8c0.5,0,1.1,0,1.6,0H372h1.6l5.4-1.4
	c3.5-1.1,6.7-3.1,9.2-5.8c5.3-6,5.8-11.7,6.2-15.9c0.3-3.7,0.6-5.5,2.8-6.5c2.2-0.9,4-1.5,5.9-2.2l0.7-0.2c-0.6,1-1,2.2-1.1,3.4
	c0.1,2.2,2.1,3.6,5.9,4.4c8.3,1.6,26.1-0.6,28-5.1c0.8-1.8,0.7-4.5,0.7-7.4c-0.1-2,0-4,0.2-5.9c0.6-4.1,2.2-5.4,4.2-6.9
	c0.4-0.3,0.8-0.6,1.2-0.9c7.6-6.2,9.1-16.7,12.9-44.6l0.3-2.5c1.7-12.3,3.3-19.8,4.6-25.3c1.5-6.6,2.2-10,1.2-14
	c-2.9-11.4-8-13.5-14.4-16.2c-4.3-1.6-8.3-3.9-12-6.6c-0.2-6.4,0.5-12.7,3.1-18c1.8-3.7,4.3-7,7.4-9.6c3.5-2.9,6.2-6.6,8.1-10.8
	c4.2-9,4-12.5,3.4-21.6c-0.2-3.3-0.5-7.4-0.6-12.7c-0.3-14.4,2.9-25.8,5.5-35.1c2-7.1,3.7-13.3,3.3-18.7
	c-2.4-28.9-26.8-45.1-41.3-54.7c-2.5-1.7-4.9-3.3-6.8-4.7c9.3,4,16,9.4,21.7,14.1c7.6,6.2,13.6,11.1,20.8,6.9
	c4.2-2.4,8.5-5.3,8.9-8.7c0.1-1.6-0.6-3.1-1.9-4c-17.3-14.9-49.2-19.4-54.1-15.6c-0.9,0.6-1.5,1.7-1.6,2.8c-2.7-0.8-5.4-1.4-8.2-1.9
	c-13.1-2.1-21.9,0.2-35.1,3.8c-15.4,4.4-31.1,7.6-46.9,9.7c-34.4,4.7-51.6,7-70-1.9c-2.4-1.1-4.6-2.4-6.7-3.6
	c-7-3.9-13.6-7.7-23.3-7.1c-7.5,0.4-11.7,3.1-15.9,5.7c-3.7,2.3-7.1,4.5-12.8,5c-14.9,1.4-27.5-10.2-42.1-23.7
	c-6.5-6.1-12.5-12.7-17.9-19.8c-5.9-7.5-9.8-12.4-18.2-14.3c-11.8-2.6-22.9,3-28.5,6c4.8-4.3,16.3-12.5,32-18.1
	c29.8-10.6,58.5-4.9,72.3-2.2c7.4,1.5,10.2,2,10.7,0c0.1-0.7-0.1-1.4-0.5-1.9c-3.2-4.4-25.2-16-51.8-17.5
	c-6.8-0.4-13.5-0.1-20.2,0.8c-0.2-0.2-0.4-0.4-0.6-0.6c-3.5-2.6-17.3-0.4-34.9,2.7c-26.9,4.7-43.4,24.9-55.5,39.6
	c-11.9,14.5-23,32.4-29.8,48.1C1.8,108.2-3.2,124.7,4,131.8c1.9,1.8,4.3,2.9,6.9,3.3c-1.3,1.7-1.9,3.3-1.6,4.8
	c0.4,1.1,1.2,2.1,2.3,2.5c7.8,3.9,39-0.5,64.2-11.2c2.8-1.2,5.6-2.5,8.3-3.8c1.3,1.2,2.8,2.5,4.4,3.7c4.7,3.9,10.5,8.7,16,16.2
	c4.1,5.6,8,13.4,16.9,57.1c7.7,38,11.6,57,10.9,68.1c-0.1,0.9-0.1,2-0.1,3.5c-0.2,7.9-0.5,24.4-7.6,56.1
	c-4.6,20.6-10.9,39.9-13.6,48.1c-2.1,6.5-9.7,15.8-17.6,25.6c-4.4,5.4-8.9,11-12.7,16.3c-4,5.7-7,10.3-5.2,14.7
	c1.1,2.7,3.7,4.5,7.1,5.6l6.8,1.4l3.2-0.5l3-0.6L96.9,442.1z M79.4,114.5c0.2-5.3,3.5-11.1,8.7-15.7c4.7-4.1,10.2-6.4,15.2-6.4
	c0.5,0,1.1,0,1.6,0.1c4.6,0.5,7.7,2,8.6,4.2c2.7,6.7-9.7,18.2-29.1,28C81.2,121.8,79.3,118.8,79.4,114.5L79.4,114.5z M165.4,281.5
	c-11.5-3.8-24.5-10-26.6-20.2c-2-9.8,8.7-33,11.3-34.1c1-0.2,1.9-0.3,2.9-0.3c3.4-0.1,6.6,1.5,8.7,4.1
	C168.3,239,169.2,257.9,165.4,281.5z M217.2,277.8c-8.1-17.5-12.5-27.2-10.9-29.1c1-1.2,3.3-1.7,6.4-1.7c8.7,0,24,4.1,37.1,10.5
	c12.1,5.9,18.7,12.2,17.8,16.8c-0.4,1.9-2.1,3.8-5.1,5.7c-7.8,4.8-23,8.2-40,9.1C220.5,285,218.8,281.2,217.2,277.8L217.2,277.8z
	 M361.9,268c-8.2-30.4,6.2-65.4,18.4-79.4c3.7-4.3,7.3-6.7,9.9-6.7c0.2,0,0.3,0,0.5,0c1.5,0.2,3.1,1.4,4.6,3.5
	c5.8,8,9.7,28.8,6.2,46.8c-4,20.5-15.9,38.3-33.3,50.6C365.4,278.2,363.3,273.2,361.9,268L361.9,268z M437.4,302.3
	c0.9,4,2,8.6,1.7,9.9c-2.8-1.1-5.3-6.7-6.7-14.9c-1.7-9.8-1.2-18.4-0.2-20c0.4,0.4,0.8,0.7,1.2,1
	C433.9,286.8,435.8,295.5,437.4,302.3L437.4,302.3z M423.3,97.7c14.2,9.5,38.1,25.3,40.4,53.1c0.4,5.1-1.3,11-3.3,18
	c-2.6,9.4-5.9,21-5.6,35.7c0.1,5.4,0.4,9.5,0.6,12.8c0.6,9,0.8,12.1-3.2,20.6c-1.7,3.9-4.3,7.3-7.6,10.1c-3.3,2.8-6,6.3-7.9,10.3
	c-2.5,5.1-3.4,11.1-3.4,17.2c-0.5-0.5-1.3-0.6-2-0.3c-2.2,1.1-2.4,7.4-2.2,12.5c0.4,8.7,2.7,24.1,9.2,26.5c0.7,0.3,1.5,0.2,2.1-0.2
	c1.4-1.2,0.8-4.4-1-12.2c-1.4-6.2-3.2-14-3.7-21.8c3.4,2.4,7.1,4.3,11,5.9c6.3,2.7,10.5,4.5,13.2,14.8c0.9,3.6,0.3,6.5-1.2,13.1
	c-1.2,5.5-2.9,13.1-4.6,25.4l-0.3,2.5c-3.8,27.3-5.2,37.5-12.2,43.2c-0.4,0.3-0.7,0.6-1.1,0.9c-2.2,1.6-4.4,3.3-5.1,8.3
	c-0.2,2.1-0.3,4.2-0.2,6.2c0,2.6,0.1,5.1-0.5,6.5c-1.2,2.7-17,5.5-25.7,3.9c-2.6-0.5-4.2-1.4-4.2-2.4c0-0.7,0.8-2.3,2-4.4
	c0.8-0.3,1.7-0.7,2.5-1.1c2.1-1,2.5-3.3,2.1-6.5l0.8-1.3c6.7-10.5,15.8-24.8,21.6-39.8c0.5-1.3,7.2-24.9,4.5-31
	c-0.3-0.7-0.9-1.3-1.6-1.6c-0.9-0.3-1.8-0.1-2.6,0.3c-6.5,3.4-20,26.3-25.4,46.1c-2.4,8.7-1,16.9-0.1,22.9c0.2,1.4,0.4,2.7,0.6,3.8
	c-1.6,2.5-2.9,4.6-3.9,6.3c-1,0.4-1.9,0.7-2.9,1c-1.9,0.6-3.9,1.3-6.1,2.2c-3.4,1.5-3.7,4.6-4.1,8.2c-0.4,4.1-0.8,9.2-5.7,14.7
	c-4.2,4.8-11.3,6.7-16.2,6.5c-2.6-0.1-4.6-0.8-5.4-2c-1.9-2.6,1.8-8.2,7-15.9c3.3-4.9,7.4-11,11.3-18.2c4.7-8.7,19.6-39.6,13.2-71.4
	c-3.3-16.3-10.6-24.1-17.8-31.6c-3.4-3.4-6.6-7.2-9.4-11.1c17.9-12.6,30.1-30.9,34.2-51.9c3.7-19.2-0.5-40.1-6.5-48.5
	c-1.9-2.6-3.9-4.1-6.1-4.3c-3.4-0.4-7.7,2.1-12.3,7.4c-12.6,14.4-27.2,50.2-18.9,81.4c1.4,5.5,3.6,10.7,6.6,15.5
	c-7,4.7-14.6,8.4-22.5,11.1c-18.4,6.2-34.1,4.2-46.7,2.5c-11.8-1.6-21.2-2.8-26.1,4.6c-9,13.5-11.7,45-5.7,66
	c6.8,24,14.3,32.3,19.2,37.8c2.5,2.7,4.1,4.6,4.5,7.2c0.2,1.3-0.5,1.9-2.6,3.3c-2.8,1.5-5.1,3.8-6.5,6.6c-2.7,5.4-2,10-1.4,14.1
	c0.5,3.6,1,6.7-0.8,9.7c-0.4,0.6-0.8,1.2-1.3,1.8l-2.4,2.2c-3.3,2.2-7.1,3.5-11.1,3.9c-3.7,0.3-6.6-0.4-7.8-1.9
	c-0.2-0.2-0.3-0.5-0.5-0.7l0,0l-0.2-0.9l-0.6-2.1c-0.1-3.1,1.2-7.4,3-13.6c1.7-5.8,3.9-13.1,5.7-22.4c2.2-10.9-5.4-23.6-12-34.8
	c-3.9-6.5-7.6-12.8-8.9-17.9c-1.6-6.2-2.3-12.7-3.1-19.5c-1.1-10.4-2.3-21.2-6.8-31.5c-3-6.7-5.7-12.7-8.2-18.2
	c17.1-1,32.2-4.5,40.2-9.5c3.5-2.2,5.5-4.5,6-7c1.6-7.7-11.2-15.3-18.9-19.1c-15.6-7.7-40.6-14.6-46-8.3
	c-2.5,2.9,0.8,10.1,10.6,31.4c1.5,3.2,3.1,6.7,4.9,10.6c-14.1,0.6-29.2-0.6-42.4-4.1c-2.8-0.7-6.4-1.7-10.2-2.9
	c4-24.5,2.9-44-4.1-52.5c-3.4-4.1-8-5.7-13.7-4.6c-0.6,0.1-1.4,0.5-3,2.8c-4.6,6.9-11.9,25-10.1,33.8c2.4,11.3,16.3,17.9,28.4,21.9
	c-3.2,18.5-9.2,39.8-17.7,61c-3.2,7.9-9.1,17.7-14.4,26.4c-2.2,3.7-4.3,7.2-6.1,10.3c-13.9,24.5-12,32.2-10.8,37.4
	c0.7,2.7,1,4.3-1.5,7.6c-7.5,9.7-14.9,13.7-25,15.3c-6.8-0.8-10.8-2.7-12-5.6c-1.4-3.4,1.3-7.6,4.9-12.7c3.7-5.3,8.3-10.8,12.6-16.2
	c8.1-9.9,15.7-19.3,18-26.2c2.7-8.2,9-27.5,13.6-48.3c7.1-31.9,7.5-48.5,7.6-56.5c0-1.4,0.1-2.5,0.1-3.4
	c0.7-11.4-3.2-30.5-10.9-68.6c-9-44.2-13-52.1-17.3-58c-5.7-7.7-11.6-12.6-16.4-16.6c-1.3-1.1-2.6-2.1-3.7-3.1
	c18.4-9.4,32.9-21.7,29.4-30.4c-1.2-3-4.8-4.9-10.3-5.5c-6-0.6-12.7,1.8-18.4,6.8c-5.7,5-9.2,11.4-9.5,17.2
	c-0.2,4.8,1.8,8.1,5.1,11.4c-2.4,1.2-4.9,2.3-7.5,3.4c-24.2,10.3-55.1,14.8-62.4,11.2c-0.7-0.3-1.1-0.7-1.2-1.1
	c-0.1-0.5,0-1.7,2-3.9c3.2,0.2,6.4-0.1,9.6-0.7c11.2-2.5,19-11.8,20.1-15c0.3-0.6,0.2-1.3-0.2-1.8c-0.4-0.5-1.7-2.1-13.2,3.8
	c-1.6,0.8-11.7,6.1-17.1,11.5c-2.7-0.3-5.3-1.1-7-2.9C-5,119.9,14.8,78,38.7,48.8C50.6,34.3,66.8,14.5,93,9.9
	c10.7-1.9,26.3-4.6,31.7-3.6c-28.1,4.5-49.8,18.3-53,22.7c-0.5,0.6-0.7,1.3-0.5,2.1c0.5,1.3,2.3,1.4,6.7,0.4
	c7.2-1.6,20.1-6.2,30.6-10.8c16.5-7.3,19.5-11,20-12.8c6.6-0.9,13.2-1.2,19.8-0.8c26.6,1.5,47.5,13,50.1,16.5c-1.3,0-4.7-0.6-8-1.3
	c-14-2.7-43-8.5-73.4,2.3c-19.2,6.9-34.4,18.8-35.7,21.9c-0.2,0.4-0.2,0.8,0,1.2c0.6,1.1,2,0.5,2.4,0.3c0.6-0.3,1.5-0.7,2.5-1.3
	c5.2-2.8,16.1-8.5,27.5-6c7.7,1.7,11.2,6.2,17,13.5c5.5,7.2,11.6,13.9,18.2,20c14.3,13.3,27.9,25.8,43.7,24.3c6.1-0.6,10-3,13.7-5.3
	c4.1-2.6,7.9-5,14.9-5.4c9.1-0.5,15.4,3,22.2,6.8c2.2,1.2,4.4,2.5,6.8,3.7c19,9.2,36.5,6.9,71.3,2.1c15.9-2.1,31.7-5.4,47.2-9.8
	c13.4-3.6,21.6-5.8,34.2-3.8c3.2,0.5,6.5,1.3,9.6,2.3C414.2,91.6,418.1,94.2,423.3,97.7L423.3,97.7z M408.7,400.6l0.6-1
	C409.2,400,409,400.4,408.7,400.6z M410.9,369.4c5.5-20.3,18.9-42,24.3-44.8c0.3-0.1,0.5-0.2,0.8-0.2h0.1c0.2,0.1,0.3,0.3,0.4,0.5
	c2.2,4.8-3.5,26.7-4.5,29.4c-5.6,14.4-14.3,28.3-20.9,38.6c-0.1-0.5-0.1-0.9-0.2-1.4C409.9,385.6,408.7,377.6,410.9,369.4z
	 M15.4,133.3c7.6-6.6,21.8-13.3,25.4-13.9c-1.3,2.6-8.3,10.9-18.4,13.1C20.1,133,17.8,133.3,15.4,133.3z M125.8,8.3
	c-0.6,0.7-1.3,1.3-2.1,1.9c-10.7,8-44.3,20.1-50.3,20C76.4,26.3,97.9,12.6,125.8,8.3L125.8,8.3z M459,110.3
	c-6,3.4-10.9-0.6-18.4-6.7c-6.4-5.3-14.7-12-26.9-16.1c-0.1-0.2-0.2-0.5-0.2-0.8c0-0.2,0-0.6,0.7-1.1c3.7-2.9,34.8,1.1,51.5,15.5
	c0.7,0.5,1.2,1.3,1.2,2.2C466.6,106,460.9,109.3,459,110.3z"/>
</svg>
