<svg id="Layer_1" data-name="Layer 1" xmlns="http://www.w3.org/2000/svg" viewBox="0 0 598.62 582.36"><path d="M133.85,555.12c8.85-2.85,16.14-8.08,23.6-17.69,3.9-5,3.22-7.87,2.35-11.46-1.42-5.89-3.56-14.78,12.95-43.87,2.15-3.79,4.73-8,7.46-12.55,6.48-10.72,13.84-22.86,17.79-32.68C208.53,410.65,216,384.68,219.87,362c4.58,1.43,8.83,2.55,12.23,3.45,17,4.5,36.14,6,53.82,5.17,3.13,6.87,6.6,14.55,10.39,23.14,5.38,12.19,6.8,25.21,8.17,37.81.93,8.52,1.81,16.57,3.82,24.3,1.72,6.6,6.33,14.33,11.21,22.53,7.91,13.27,16.87,28.31,14.41,40.72-2.23,11.32-4.83,20.14-6.92,27.23-2.2,7.44-3.84,13-3.72,17.32l.32,2.61h0a9.17,9.17,0,0,0,1.82,3.7c1.79,2.2,5.24,3.4,9.66,3.4.68,0,1.39,0,2.12-.08,5.94-.48,13.08-3,17.61-7.52l2.2-2.7c.15-.23.29-.47.43-.71,2.6-4.52,2-8.92,1.28-13.58-.71-4.86-1.45-9.9,1.51-15.76,1.94-3.86,4.68-5.58,7.09-7.1s5-3.11,4.41-6.6c-.63-4-2.93-6.56-6.11-10.12-5.87-6.57-14.74-16.5-22.94-45.28-7.84-27.49-2.94-64.19,6.68-78.64,3-4.56,7.82-5.95,14.15-5.95a124.52,124.52,0,0,1,15.27,1.43c15.73,2.06,35.3,4.63,58.38-3.21a119.54,119.54,0,0,0,28.17-13.86,112.34,112.34,0,0,0,11.75,13.9C486,387,494.32,395.84,498.19,415c7.67,38.05-10.23,75.14-15.9,85.6-4.71,8.69-9.68,16.1-13.68,22-7.19,10.72-11.94,17.79-8.51,22.42,1.52,2,4.57,3.29,8.58,3.47.64,0,1.32,0,2,0h-.08l1.95,0,6.62-1.66a26.52,26.52,0,0,0,11.31-7.16c6.53-7.32,7.16-14.33,7.62-19.44.41-4.55.73-6.79,3.4-7.94s4.94-1.89,7.24-2.67l.85-.28a9.9,9.9,0,0,0-1.35,4.2c.1,2.64,2.54,4.44,7.27,5.33,10.15,1.92,31.9-.72,34.3-6.25.93-2.15.89-5.46.85-9a52.07,52.07,0,0,1,.24-7.25c.68-5.08,2.66-6.58,5.17-8.48.48-.36,1-.73,1.45-1.12,9.31-7.64,11.09-20.43,15.82-54.58l.41-3c2.08-15,4.1-24.18,5.58-30.91,1.78-8.13,2.68-12.21,1.41-17.19-3.54-13.9-9.77-16.53-17.64-19.86a60,60,0,0,1-14.69-8.13c-.26-7.87.64-15.58,3.8-22a35,35,0,0,1,9.11-11.8,36.93,36.93,0,0,0,9.88-13.17c5.13-11.07,4.86-15.27,4.15-26.5-.25-4-.57-9-.71-15.59-.38-17.6,3.58-31.64,6.77-42.93,2.46-8.71,4.59-16.24,4-22.91-2.93-35.39-32.76-55.19-50.58-67-3.12-2.07-6-4-8.37-5.75C537.8,130.36,546,137,553,142.77c9.29,7.59,16.63,13.59,25.5,8.49,5.15-2.95,10.46-6.52,10.86-10.6a5.69,5.69,0,0,0-2.31-4.93c-21.12-18.3-60.27-23.76-66.26-19.1a4.29,4.29,0,0,0-1.9,3.47,81.87,81.87,0,0,0-10.07-2.29c-16.06-2.61-26.76.29-43,4.68a408.44,408.44,0,0,1-57.45,11.9c-42.09,5.72-63.22,8.59-85.74-2.36-2.88-1.39-5.6-2.93-8.24-4.42-8.57-4.83-16.66-9.4-28.55-8.7-9.14.54-14.37,3.83-19.44,7-4.49,2.82-8.73,5.49-15.61,6.15-18.23,1.73-33.65-12.52-51.51-29a192.36,192.36,0,0,1-21.94-24.2c-7.24-9.17-12-15.22-22.33-17.5C140.52,58.17,127,65,120.08,68.65c5.83-5.22,20-15.33,39.2-22.15,36.53-12.93,71.59-6,88.45-2.72,9.08,1.78,12.48,2.45,13.15,0a2.7,2.7,0,0,0-.61-2.3c-3.88-5.4-30.9-19.6-63.36-21.44a133.06,133.06,0,0,0-24.77,1,3.54,3.54,0,0,0-.74-.76c-4.23-3.21-21.12-.55-42.78,3.26C95.69,29.32,75.45,54,60.68,72c-14.54,17.71-28.17,39.71-36.46,58.86-6.7,15.48-12.85,35.75-4.09,44.42a15.7,15.7,0,0,0,8.39,4c-1.57,2.06-2.38,4.06-1.93,5.85a4.87,4.87,0,0,0,2.82,3.08C39,193,77.19,187.6,108,174.53c3.43-1.46,6.82-3,10.13-4.64,1.62,1.47,3.42,3,5.36,4.57,5.73,4.76,12.86,10.68,19.63,19.85,5.08,6.88,9.83,16.39,20.73,69.93C173.28,310.71,178,334,177.18,347.6c-.07,1.11-.1,2.49-.14,4.23-.21,9.68-.64,29.83-9.27,68.68-5.61,25.26-13.33,48.81-16.63,58.86-2.61,8-11.82,19.29-21.57,31.28-5.36,6.59-10.91,13.42-15.54,19.93-4.92,6.93-8.52,12.66-6.34,18,1.32,3.27,4.5,5.45,8.74,6.85l8.31,1.73,3.86-.65,3.72-.74Zm-21.34-401c.23-6.43,4.23-13.61,10.68-19.2,5.74-5,12.53-7.79,18.55-7.79a18.14,18.14,0,0,1,2,.11c5.67.61,9.39,2.44,10.48,5.15,3.3,8.15-11.83,22.32-35.63,34.33C114.63,163,112.33,159.33,112.51,154.16ZM217.72,358.59c-14.09-4.69-30-12.27-32.61-24.74-2.48-12,10.7-40.37,13.89-41.78a19,19,0,0,1,3.59-.37,13.22,13.22,0,0,1,10.63,5.06C221.23,306.46,222.41,329.59,217.72,358.59Zm63.4-4.63c-9.89-21.47-15.34-33.3-13.35-35.61,1.23-1.41,4-2.07,7.85-2.07,10.65,0,29.39,5,45.38,12.91,14.76,7.28,22.89,14.95,21.74,20.53-.47,2.32-2.61,4.71-6.19,6.93-9.5,5.88-28.12,10.09-49,11.2Q284,360.24,281.12,354Zm177.17-12c-10-37.27,7.57-80,22.57-97.21,4.56-5.22,8.93-8.15,12.11-8.15a6,6,0,0,1,.61,0c1.87.24,3.82,1.7,5.65,4.23,7.1,9.83,11.83,35.21,7.55,57.34-4.86,25.11-19.45,46.84-40.73,61.9A65.44,65.44,0,0,1,458.29,341.91Zm92.38,42c1.12,4.95,2.39,10.52,2.09,12.12-3.39-1.39-6.45-8.19-8.18-18.22-2.09-12-1.41-22.53-.21-24.49.5.44,1,.86,1.51,1.26C546.37,365.06,548.78,375.62,550.67,383.88Zm-17.22-250.4c17.43,11.57,46.61,30.93,49.43,65.06.51,6.2-1.56,13.52-4,22-3.24,11.46-7.26,25.71-6.87,43.69.15,6.64.46,11.66.72,15.7.7,11.05.93,14.78-3.92,25.24a34.15,34.15,0,0,1-9.28,12.35,37.7,37.7,0,0,0-9.68,12.58c-3.07,6.26-4.15,13.55-4.11,21a2.25,2.25,0,0,0-2.42-.34c-2.68,1.29-2.92,9-2.66,15.25.45,10.64,3.31,29.45,11.21,32.47a2.35,2.35,0,0,0,2.51-.29c1.74-1.51.93-5.41-1.23-14.88-1.72-7.56-3.9-17.12-4.59-26.68a65.57,65.57,0,0,0,13.5,7.17c7.77,3.28,12.9,5.45,16.13,18.11,1.12,4.37.32,8-1.43,16-1.49,6.78-3.52,16.06-5.61,31.11l-.42,3c-4.63,33.42-6.36,45.93-14.89,52.93-.45.37-.91.72-1.36,1.06-2.64,2-5.37,4.06-6.19,10.2a54.91,54.91,0,0,0-.26,7.63c0,3.22.07,6.26-.63,7.9-1.44,3.3-20.78,6.74-31.44,4.73-3.23-.61-5.11-1.66-5.15-2.88,0-.84.92-2.79,2.41-5.39,1-.39,2.05-.81,3.11-1.29,2.6-1.17,3-4,2.61-8l1-1.61c8.18-12.81,19.37-30.35,26.44-48.71.63-1.62,8.84-30.53,5.49-38a3.51,3.51,0,0,0-1.94-2,4,4,0,0,0-3.2.41c-8,4.11-24.5,32.22-31.07,56.44-2.88,10.59-1.28,20.7-.11,28.09.27,1.69.52,3.27.69,4.68-2,3.1-3.58,5.66-4.82,7.77-1.17.43-2.35.82-3.55,1.23-2.35.79-4.78,1.6-7.45,2.75-4.21,1.8-4.55,5.64-5,10.09-.45,5-1,11.26-7,17.94-5.2,5.82-13.89,8.19-19.77,7.92-3.16-.14-5.57-1-6.6-2.42-2.34-3.15,2.24-10,8.58-19.42,4-6,9-13.47,13.8-22.26,5.78-10.66,24-48.44,16.17-87.36-4-19.92-13-29.46-21.77-38.68a108.7,108.7,0,0,1-11.49-13.59c21.87-15.44,36.86-37.77,41.85-63.59,4.56-23.53-.6-49.13-8-59.35-2.29-3.17-4.79-5-7.42-5.29-4.2-.54-9.4,2.56-15,9-15.37,17.59-33.35,61.41-23.13,99.59a67.72,67.72,0,0,0,8.13,19,116.69,116.69,0,0,1-27.58,13.58c-22.5,7.65-41.74,5.12-57.2,3.09-14.47-1.9-25.9-3.4-31.93,5.66-11,16.54-14.35,55.05-7,80.79,8.36,29.35,17.47,39.55,23.5,46.3,3,3.35,5,5.57,5.48,8.8.26,1.65-.57,2.33-3.22,4a19.94,19.94,0,0,0-8,8.13c-3.32,6.59-2.49,12.29-1.75,17.31.64,4.38,1.19,8.16-1,11.9a12.61,12.61,0,0,1-1.56,2.16L350.56,566A28.76,28.76,0,0,1,337,570.73c-4.49.35-8.06-.53-9.55-2.37a7.2,7.2,0,0,1-.6-.88h0l-.29-1.15-.68-2.6c-.15-3.81,1.41-9.08,3.63-16.62,2.11-7.14,4.72-16,7-27.46,2.65-13.39-6.58-28.88-14.72-42.55-4.79-8-9.3-15.62-10.93-21.86-2-7.54-2.83-15.5-3.75-23.92-1.39-12.79-2.83-26-8.38-38.58-3.63-8.21-7-15.6-10-22.24,20.89-1.21,39.39-5.55,49.21-11.63,4.26-2.64,6.74-5.54,7.37-8.61,1.95-9.47-13.67-18.72-23.15-23.39-19.08-9.4-49.75-17.83-56.33-10.21-3.1,3.58.95,12.36,12.95,38.4q2.72,5.9,5.95,12.93c-17.22.69-35.76-.73-51.95-5-3.44-.91-7.79-2.06-12.46-3.53,4.91-30,3.51-53.92-5.07-64.32-4.17-5.05-9.8-6.94-16.73-5.6-.69.14-1.74.66-3.62,3.48-5.62,8.45-14.56,30.57-12.31,41.39,2.88,13.83,19.94,21.92,34.72,26.81-3.89,22.68-11.28,48.75-21.71,74.71-3.86,9.62-11.16,21.67-17.6,32.31-2.74,4.52-5.32,8.78-7.49,12.61-17,30-14.73,39.47-13.22,45.76.82,3.36,1.26,5.22-1.87,9.26-9.23,11.87-18.23,16.72-30.64,18.71-8.3-1-13.21-3.31-14.66-6.9-1.68-4.16,1.59-9.29,6.05-15.56,4.58-6.45,10.1-13.24,15.44-19.8,9.9-12.18,19.26-23.68,22-32.11,3.31-10.09,11.06-33.72,16.7-59.11,8.68-39.1,9.12-59.42,9.33-69.18,0-1.72.07-3.07.13-4.13.87-13.91-3.9-37.35-13.4-84-11-54.06-15.92-63.82-21.19-71-7-9.41-14.22-15.45-20.06-20.3-1.64-1.35-3.15-2.61-4.53-3.83,22.55-11.56,40.31-26.54,36-37.17-1.49-3.7-5.85-6-12.61-6.77-7.3-.79-15.49,2.24-22.5,8.3s-11.32,13.94-11.58,21.08c-.2,5.82,2.22,9.91,6.19,13.91-2.93,1.43-6,2.82-9.14,4.16-29.67,12.59-67.43,18.15-76.39,13.69-.84-.42-1.33-.88-1.46-1.38-.17-.66,0-2.13,2.43-4.83a43.63,43.63,0,0,0,11.74-.9c13.74-3,23.29-14.47,24.6-18.31a2.19,2.19,0,0,0-.19-2.22c-.52-.62-2.11-2.52-16.17,4.66-1.93,1-14.34,7.47-20.94,14.06-3.25-.37-6.45-1.36-8.62-3.51-12.8-12.66,11.39-64,40.73-99.78,14.52-17.69,34.4-41.91,66.38-47.54,13.12-2.32,32.19-5.68,38.86-4.45C133.49,27.18,107,44.1,103,49.5a2.83,2.83,0,0,0-.66,2.52c.6,1.62,2.81,1.76,8.17.54,8.84-2,24.61-7.59,37.5-13.27,20.19-8.9,23.9-13.48,24.51-15.69a129.83,129.83,0,0,1,24.22-1c32.57,1.84,58.2,15.91,61.3,20.15-1.65,0-5.8-.77-9.83-1.56-17.08-3.36-52.62-10.35-89.82,2.82C134.84,52.4,116.26,67,114.73,70.87a1.76,1.76,0,0,0,0,1.49c.72,1.36,2.39.65,2.94.41.77-.33,1.79-.86,3.07-1.54,6.41-3.38,19.74-10.4,33.68-7.33,9.4,2.07,13.71,7.53,20.85,16.57A194.39,194.39,0,0,0,197.52,105c17.55,16.22,34.12,31.54,53.52,29.7,7.49-.72,12.19-3.68,16.75-6.54,5-3.15,9.73-6.12,18.2-6.62,11.13-.66,18.9,3.72,27.12,8.37,2.67,1.5,5.43,3.06,8.38,4.49,23.23,11.3,44.62,8.39,87.23,2.6a410,410,0,0,0,57.78-12c16.45-4.46,26.38-7.15,41.88-4.63a79.06,79.06,0,0,1,11.73,2.82C522.26,126.06,527.06,129.24,533.45,133.48ZM515.54,504.37l.77-1.24A2.08,2.08,0,0,1,515.54,504.37Zm2.7-38.19c6.76-24.9,23.08-51.37,29.75-54.81a2.35,2.35,0,0,1,1-.3l.15,0a1.19,1.19,0,0,1,.47.6c2.67,5.93-4.29,32.72-5.54,36-6.8,17.64-17.52,34.62-25.57,47.24q-.13-.83-.27-1.71C517.06,486,515.51,476.23,518.24,466.18ZM34.15,177.1c9.31-8.13,26.68-16.31,31.06-17-1.6,3.23-10.13,13.37-22.48,16.08A44.75,44.75,0,0,1,34.15,177.1Zm135.13-153a16.24,16.24,0,0,1-2.54,2.29C153.66,36.21,112.48,51,105.22,50.83,108.78,46.2,135.1,29.39,169.28,24.07ZM577.19,149c-7.32,4.2-13.39-.76-22.56-8.26-7.88-6.43-18-14.74-32.87-19.74a2.1,2.1,0,0,1-.28-.93c0-.19,0-.68.89-1.4,4.57-3.55,42.63,1.4,63,19a3.25,3.25,0,0,1,1.42,2.72C586.43,143.7,579.48,147.69,577.19,149Z"/></svg>