<svg id="_ÎÓÈ_1" data-name="—ÎÓÈ_1" xmlns="http://www.w3.org/2000/svg" viewBox="0 0 433.62 825.63"><path d="M408.69,425.15A23.56,23.56,0,0,0,407,405.76c-1.88-3.22-4.38-5.42-6.68-5.87-1.2-.24-3.08-.09-5.24,1.94-4.16,3.94-7.7,13.55-6.41,22.82.27,2,.61,3.75.94,5.48a50.29,50.29,0,0,1,1.2,10.22c0,1.25-1.7,2.92-4.4,4.36a25.61,25.61,0,0,1-2.46,1.12c-3.06-2-7.45-2.69-9.69-1.81a2.44,2.44,0,0,0-1.75,2.06,3.09,3.09,0,0,0,1.38,3c2.1,1.4,6.05.85,9.57-.31a4.08,4.08,0,0,1,1.16,4.26c-1.2,4.33-4.36,6.81-6.9,8.8-1.67,1.31-3,2.34-3.52,3.68-1.13,2.86.2,6.64,1.27,9.68a17.15,17.15,0,0,1,1,3.37c.25,3.82-2.25,4.92-6.68,6.54-3.93,1.43-8.38,3.05-9.73,8.17-.57,2.16.54,5.51,1.73,9.06,1,3.14,2.62,7.88,1.48,8.92-13.52,12.36-45.83,54.34-53.71,98.6-.66,3.72-.12,7.67.5,12.24.86,6.31,1.84,13.46,0,22.32-7.92,37.62-6.36,71.8,4.63,101.58,1.82,4.93,5.28,10.3,8.63,15.5,2.18,3.38,4.38,6.8,6.17,10.14-1.89,9.09-4.38,17.24-11.23,16.83-5.45-.34-13.45-8-17.3-14.12,1.41-3.38,2.15-6.52,1-8-.52-.72-1.58-1.42-3.66-.74-.77.26-2.52,1.17-2.15,4.06A14.56,14.56,0,0,0,298,774.5,64.15,64.15,0,0,1,292,785c-2,2.82-4.31,4.31-6.63,4.23-2.56-.06-5.12-1.95-7.42-5.47a22.87,22.87,0,0,1-3.39-12.14c-.23-14.64,2.17-30.77,4.49-46.36,3.74-25.18,7.61-51.21.53-71.79l-1-2.91c-4-11.43-6.35-18.33-4.78-30.78.26-2.05.63-4.15,1-6.18a68.34,68.34,0,0,0,1.4-11.94,69.33,69.33,0,0,0-2-14.43c-.37-1.74-.76-3.54-1.08-5.3-1.41-7.75-1.47-18.41-.34-28.89,11.51-10.7,23.37-27.91,21.48-35.33-.4-1.56-1.78-4.12-6.6-3.7-2.58.22-5,1.8-7.23,4.7-5.14,6.72-8.63,19.75-10.17,33.17a39.23,39.23,0,0,1-9.81,6.88c-11.08,4.86-24.8,2.07-34.05-5.69,1.14-15.64,2.24-37.31,1.35-47.46-.19-2.19-.31-4.71-.44-7.38-.68-13.78-1.59-32.61-14.35-32.17-1.64.06-3.32,1-5,2.88-4.46,4.91-8.11,15-7.85,19.55.35,6.29,4.41,11.22,8.33,16s7.45,9,7.75,14.48a44.76,44.76,0,0,1-.8,9.26c-.81,5.2-1.65,10.57.65,15.61a31.86,31.86,0,0,0,7.66,10.31c-.56,7.45-1.11,13.33-1.43,15.55-2.79,19.12.91,35,3.88,47.72,2.12,9.09,3.95,16.94,3,23.64a61.32,61.32,0,0,1-2.65,10,79.73,79.73,0,0,0-2.38,8.28c-1.76,8.4,0,21.51,1.48,33.07.75,5.69,1.45,11.08,1.65,15.22,1.48,31.28,7.25,50,11.47,63.65,4,13,6.24,20.18,1.75,28.41-.19.35-.64,1.17-2.72.6-5.48-1.48-14.72-10.32-20-17.88,2.61-4.5,4-8.59,3-10.93-.61-1.37-2.17-2.82-6.17-2a4,4,0,0,0-3.36,4c-.07,2.23,1.33,5.45,3.57,9-3.72,5.88-9.58,12.73-14.83,16.57-3.12,2.28-5.58,3.12-6.58,2.23-8.54-7.56-5.57-22.54-3.19-34.57l.24-1.18a116.19,116.19,0,0,1,5.31-17.19c2.41-6.57,4.9-13.36,5.9-20.44,4.25-30-.87-50-5-66.06-3.25-12.67-5.82-22.68-2.29-32.89,2.18-6.3-2.93-12.82-8.85-20.37-5.6-7.14-12-15.24-12.41-24.09a3.17,3.17,0,0,0-1.33-2.74c-1.44-.88-3.24-.08-5.52.94-2.73,1.21-6.12,2.72-8.85,1.19-3-1.69-5.06-6.78-6.13-15.13a94.83,94.83,0,0,1-.16-23.48c.59-5.87.94-9.42-2.92-11.75-4.13-2.48-6.35-8.12-7.05-13.86a9.5,9.5,0,0,0,5.44-5.16,8.17,8.17,0,0,0-1.81-8.88,2.67,2.67,0,0,0-2.9-1c-2.19.7-3,4.32-3.38,7.24a34.34,34.34,0,0,0-.12,5.82l-.73.06c-4.64.22-9.21-3.31-12.55-9.67-2.81-5.35-2.13-10.25-1.27-16.44.74-5.33,1.57-11.36.18-18.82-.84-4.5-4.36-6.64-8.07-8.91-5.29-3.23-11.29-6.89-13.43-18.32-.64-3.38-.46-8.59.2-13.72,1.94-.29,3.95-1.7,5.81-4.11,2.79-3.61,4.87-9.13,3.35-11.77-1.83-3.18-3.69-3.3-4.91-2.85-3.11,1.15-5.26,8.24-6.4,15.74-1.36-.94-3.46-3.88-4.58-13-1-7.8,3.67-18.49,6.73-25.56,2.65-6.12,3.75-8.66,2.26-9.93-1.22-1.05-3,0-3.82.58-2.12,1.33-3.1,1.3-3.33,1.1s-2.63-3.31,8.42-26.41a43.06,43.06,0,0,1,3-5.22,5.1,5.1,0,0,0,4,1.42c3-.3,6.24-3.32,6.57-8.53.19-2.88-.91-3.78-1.87-4-2.2-.58-5.55,2.59-8.5,6.38-.76-2.95,3.59-7.58,7.43-11.66s7.37-7.86,6.88-11c-.25-1.53-.46-3-.65-4.47,13.63-4.25,25-9.51,33.56-15.48a66.89,66.89,0,0,0-.2,16.49c1.32,10.54,9.36,13.9,15.23,16.36a23.54,23.54,0,0,1,5.53,2.83c2.92,2.44-.45,8.31-3.16,13a32.54,32.54,0,0,0-3,6l-.19.66c-1.35,4.44-4.51,14.84,1.25,25,2.32,4.09,5.24,5,7.36,5.07.37,13.35,5.18,31.19,12.75,38.25,4.62,4.32,9.93,4.28,14.95-.1.76-.66,1.07-.66,1.07-.66.76.34,1.46,4.26,1.92,6.86,1.5,8.42,3.77,21.16,16.07,21.61h.18c4.3,0,6.55-5.72,8.92-11.76,1.87-4.79,4-10.23,6.79-10.9,4.23-1,7.28-4.07,9.1-6.45,4.54-6,2.88-10.61,1.41-14.69a23.85,23.85,0,0,1-1.27-4.34c-1.22-7.7,4.83-11.74,11.84-16.42,6.85-4.57,13.93-9.3,14.25-18.11a85.76,85.76,0,0,0-.89-10.63c-.37-3.1-.73-6-.77-7.82-.13-5.56,2.81-11,5.66-16.3,3.64-6.75,7.4-13.72,4.81-21.08a27.35,27.35,0,0,0-2.11-4.31,27.84,27.84,0,0,1-1.77-3.48l3.88,4.63c9.36,11.09,14.05,16.66,14.05,29.43,0,6.16-2,11.18-4.18,16.49-3.2,7.9-6.82,16.86-3.9,31.05,1.71,8.27,6.72,14.14,10,18a18.06,18.06,0,0,1,2.71,3.62c2.18,6.56-1.56,10.35-5.18,14-2.72,2.76-5.29,5.36-5.1,8.92.16,2.95,2.22,6,6.5,9.46a15.12,15.12,0,0,1,5.88,11.85c-.11,4.56-1.68,8.81-3.35,13.32-.86,2.33-1.76,4.75-2.42,7.21-2.94,10.87-1.29,30.3,4.81,37.49a7.43,7.43,0,0,0,6.48,3c2.77-.28,4.21-3.55,5.74-7,1.35-3.07,2.88-6.55,5.18-7.43a4.55,4.55,0,0,1,3.58.35,6.37,6.37,0,0,0,5.69.2c3.59-1.84,4.76-7.5,5.78-12.5.52-2.5,1-4.85,1.66-6,4.19-7,3.23-9.43,1.14-12.63a11.91,11.91,0,0,1-1.88-4c-1.08-4.73,4.89-8.15,10.15-11.17l2.18-1.27c6.83-4.08,12.27-11.06,9.05-17.46a16.08,16.08,0,0,0-3.85-4.5c-1.63-1.49-3.16-2.89-3.58-4.73-.8-3.6,3.2-6.93,7.37-8.24l.81-.25c4.63-1.45,9.89-3.09,12.42-5.62,9-9,6.36-19.25,4.44-26.75-1-3.84-1.84-7.16-.37-8.18,1-.67,4,1.92,6.07,3.63,3.24,2.73,6.31,5.32,9,4.19,8.79-3.73,4.37-26.92,2.39-32.82a27.5,27.5,0,0,0-1.36-3.22,3.87,3.87,0,0,0,1.82-2.69c1.27-5.83-5.84-19.08-9.14-22.67a97,97,0,0,1-10.3-14.21c-2.48-4-2.49-7.51-2.5-11.22,0-4.22,0-8.58-3.92-13.25a51.85,51.85,0,0,0-7.05-6.1c-3.18-2.49-6.48-5.05-7.83-7s-.59-3.24.81-5.87a19.6,19.6,0,0,0,1.93-4.64c3.48-14.72-12.78-51-38.62-66.14-7-4.11-13.65-6.23-24.69-9.74-3.74-1.19-8-2.54-12.89-4.18-1.8-.59-2.79-.06-3.3.49-1.76,1.89-.18,6.13,2.64,12.9.54,1.31,1.05,2.55,1.44,3.58-.94,5.59-3.83,10.47-6.62,15.2-3.66,6.2-7.12,12.06-5.31,18.47,1,3.51,4.85,4.05,8.26,4.54,1,.13,1.92.27,2.8.47-4.24,8.06-8.53,19.05-2.62,27.13a27.42,27.42,0,0,0,3.12,3.4,18.75,18.75,0,0,1,3.41,4c2.83,5,.25,10.63-2.48,16.63a49.59,49.59,0,0,0-3.73,10c-.55-.71-1.12-1.43-1.69-2.18l-.93-1.2a35.75,35.75,0,0,1-5.24-8.18c-1.51-3.8-4.59-15.48-4.37-18.85,1.12-17.13-9.72-35.74-22.27-57.29-16-27.46-34.12-58.58-32.92-95.7a51.08,51.08,0,0,0-.61-11.9,43,43,0,0,0,2.46-7.06c.25,1.15.49,2.32.72,3.5.61,3.06.95,6.66,1.35,10.84,1.18,12.51,3,31.4,14.6,59.7,6.55,15.93,31.26,30.44,40.49,28.62a4.79,4.79,0,0,0,4.13-5c0-5.58,1.18-12,2.44-18.84,1.3-7,2.64-14.34,2.8-21.39.3-13.59-3.39-26.62-11.45-39.94a104.61,104.61,0,0,0,10.38,6.16,42.15,42.15,0,0,0,35.35,1.5c8.13-3.26,14.08-8.41,15.14-11.51.23-.65.83-2.39-.25-3.44s-3.16-.48-6.41.69c-4.36,1.57-11,4-17.23,2-13.74-4.16-24.43-14.89-31.28-22.6a149,149,0,0,1-11.83-15.65,41.22,41.22,0,0,0,9.45,4.52c7.67,2.57,26.53,5.15,34.39,3.37,12.5-2.84,20.49-12.45,21.26-16.8a2.18,2.18,0,0,0-.82-2.44c-1.32-.86-3.06.31-3.63.7-6.15,4.16-15.47,6.55-25.55,6.55-15.82,0-28.82-8.48-42.59-17.45-3.5-2.28-7.12-4.64-10.76-6.83a1.3,1.3,0,0,0-1.69,1.92c1.49,1.9,3.61,5.32,6.27,9.66a128.68,128.68,0,0,0-10-10.7c-13-12.12-37.13-17.4-44.54-17.46-8.06-.07-16.6.24-23.09,2.3l-.08,0-.59-.3a18,18,0,0,0-9.92-1.55c-8.43.79-14.94,6.33-15.29,12.94a22,22,0,0,1-4.83.61c-3.43.24-7.32.51-10.12,1.86-3.4,1.65-6.41,6.12-9.32,10.44a68.47,68.47,0,0,1-4.5,6.21c-1.85,2.15-5.4,4.17-8.83,6.12a52.24,52.24,0,0,0-6.49,4.09C95.43,75.33,93.9,80.78,93.41,88l0,.73c-3.61-1-8.14.58-11.58,3.25-8,6.18-12.84,15.17-17.55,23.86-4,7.26-8,14.78-13.87,20.51-3.91,3.84-9.15,7.52-14.22,11.07-11,7.7-21.33,15-18.14,23.57,1.14,3.07,4.84,5.67,9.66,6.77,5.26,1.2,19.43,2.12,37.36-15.19l2.2-2.11C83.48,144.8,98.16,130.54,99.5,128c2.82-5.46,1.87-11.68.56-18.11-.44-2.16-1-4.43-1.63-6.62-.64-2.41-1.3-4.85-1.77-7.27,5.17,12.73,11,27.15,9.82,41.73-.5,6.29-3.89,12.9-7.48,19.9-5.09,9.92-10.36,20.19-7.06,30,1,2.85,4.08,6.82,8.68,11a11.39,11.39,0,0,0-4.33-2.33,2.65,2.65,0,0,0-2.55.64c-2.94,2.94-3.55,7.48-1.57,11.86,1.6,3.53,5.88,8,13.09,10.12,8.52,2.46,16.49,1.65,25.07-2.69-.94.55-1.93,1.06-3,1.56-12,5.5-21.41,3.92-26.23.62-1.33-.92-2.48-1.14-3.41-.65a2.5,2.5,0,0,0-1.27,2.39c0,3.36,4,10.66,13,15.64,1,.57,2.59.74,4.77,1,6.61.76,16.6,1.9,17.66,14.24a3.31,3.31,0,0,0,2.42,3.06c3.21.92,8.65-2.12,12.14-6.76,4.62-6.17,4.87-13.53.71-20.12-.2-1,3-5.25,9.68-9.37,3.26-2,14.42-8.22,21.07-3.1a3.31,3.31,0,0,1,1.49,2.15c.19,1.91-2.15,4.62-4.87,7.76-7,8.06-17.49,20.24-6.12,40.83,7.4,13.41-.09,24.31-7.68,31.09l-.48.43c.58-3.35,1.27-6.68,2-10,.56-2.72,1.15-5.54,1.66-8.32.6-3.2.9-6.53-.9-9.15a12.14,12.14,0,0,0-4.77-3.6c-.49-.26-1-.51-1.44-.78-5-2.92-3.87-8.27-1.87-13.61.67-1.79,1.07-2.88,0-3.59s-2.3.27-4.78,2.56c-24.78,22.84-32.65,39.71-29.79,66.26a225.49,225.49,0,0,1-22.63,5.49v2.51a231.73,231.73,0,0,0,22.92-5.49q.27,2,.6,4.11c.3,1.83-3.16,5.51-6.21,8.75-4.52,4.82-9.2,9.79-8,14.14a10.12,10.12,0,0,0,.66,1.84,49.33,49.33,0,0,0-3.78,6.33c-11,22.88-9.7,27.78-7.81,29.47,1.4,1.24,3.57,1,6.44-.84l.32-.19c-.42,1.45-1.53,4-2.53,6.31-3.17,7.33-8,18.41-6.92,26.91,1.09,8.95,3.38,14.13,6.79,15.43-.7,5.86-.78,11.55-.24,14.46,2.35,12.57,9.16,16.72,14.63,20.06,3.49,2.13,6.24,3.81,6.87,7.17,1.32,7,.51,12.85-.2,18-.88,6.4-1.65,11.92,1.55,18,3.83,7.29,9.26,11.32,15,11.06.29,0,.58,0,.86-.07.8,6,3.18,12.42,8.24,15.46,2.34,1.41,2.26,3.35,1.68,9.26a97.81,97.81,0,0,0,.16,24.07c1.2,9.34,3.63,14.92,7.43,17.06s8.1.3,11.19-1.08a11.26,11.26,0,0,1,3.08-1.09,2.26,2.26,0,0,1,.11.66c.51,9.67,7.13,18.11,13,25.55,5.45,7,10.16,13,8.45,17.92-3.79,10.95-1.14,21.29,2.22,34.39,4,15.82,9.1,35.51,4.93,65-1,6.82-3.41,13.48-5.77,19.92A117.27,117.27,0,0,0,187.79,765l-.24,1.18c-2.51,12.69-5.63,28.47,4,37a4.08,4.08,0,0,0,2.77,1q2.83,0,7.07-3.09c4.83-3.53,10.79-10.11,14.87-16.36,5.68,7.92,14.82,16.46,20.74,18.06,3.53,1,5.08-.76,5.68-1.87,5-9.19,2.55-17.18-1.54-30.41-4.18-13.53-9.9-32.06-11.37-63-.2-4.24-.91-9.68-1.66-15.43-1.49-11.36-3.18-24.23-1.51-32.2a76.84,76.84,0,0,1,2.3-8,62.46,62.46,0,0,0,2.75-10.43c1.05-7.18-.83-15.25-3-24.6-2.92-12.53-6.56-28.12-3.84-46.75.31-2.12.81-7.28,1.32-13.9,10,7.48,23.93,10,35.34,5a38,38,0,0,0,8.39-5.55c-.86,9.75-.67,19.43.67,26.79.33,1.81.72,3.62,1.1,5.38a67.6,67.6,0,0,1,2,13.89,66.49,66.49,0,0,1-1.36,11.49c-.36,2.06-.73,4.19-1,6.3-1.65,13.06,1,20.58,4.91,32l1,2.9c6.87,20,3.05,45.7-.65,70.56-2.33,15.71-4.74,31.94-4.51,46.79a25.37,25.37,0,0,0,3.82,13.52c2.78,4.27,6.08,6.57,9.53,6.65h.19c3.12,0,6.1-1.83,8.61-5.31a79,79,0,0,0,5.54-9.44c4.48,6.49,12.35,13.54,18.41,13.91,7.9.49,11.15-7,13.22-15.68l.91-4.14c.23-1.16.46-2.32.68-3.47,1.36-7,2.76-14.24,5.79-16,1.11-.25,5.15,3.86,7.57,6.33,5,5.06,10.08,10.29,14.24,9.32,1.8-.42,3.13-1.92,4-4.45,1.78-5.46-1.67-12.25-6.89-22.54-10.42-20.49-27.85-54.8-27.85-120.33,0-9.63,12-24,20-33.51,1.4-1.67,2.67-3.19,3.73-4.5,7.73-9.63,11.06-22.73,14.27-35.4,4-15.71,7.75-30.56,19.12-39.62,5.79-4.61,6.22-8.86,6.77-14.25a43.21,43.21,0,0,1,3.57-14.58c.8-1.8,2.52-3.51,4.36-5.33,2.3-2.29,4.68-4.65,5.44-7.51,1.19-4.49-.79-8.48-2.39-11.68a14.21,14.21,0,0,1-1.55-3.91c-.77-7.5.93-11.9,3.27-18C407.07,429.7,407.87,427.6,408.69,425.15ZM375.38,446.9a.45.45,0,0,1-.24-.42c.63-.38,2.94-.4,5.26.44C378.08,447.43,376.16,447.42,375.38,446.9Zm-92.91,73.43c1.75-2.29,3.56-3.54,5.38-3.69.29,0,.56,0,.81,0,2.59,0,2.92,1.29,3,1.8,1.44,5.62-8.22,20.36-18.46,30.64C274.89,537.21,278,526.11,282.47,520.33ZM107.77,415.56l.11,0c.4,0,1,.65,1.64,1.73s-.4,5.33-3.14,8.88A9.1,9.1,0,0,1,103,429C104.13,422.25,106,416.22,107.77,415.56Zm9.37-73.75a4.41,4.41,0,0,1,.07,1.31c-.24,3.72-2.37,5.93-4.24,6.11a2.56,2.56,0,0,1-2.27-1C113.33,344.74,116,342.08,117.14,341.81ZM285.49,291.5c2.89-6.34,5.86-12.89,2.37-19A20.94,20.94,0,0,0,284,268a23.78,23.78,0,0,1-2.83-3.07c-5.39-7.37-.55-18.23,3.56-25.76a1.29,1.29,0,0,0,.08-1.07,1.25,1.25,0,0,0-.75-.76,21.4,21.4,0,0,0-4.8-1c-3.38-.49-5.63-.93-6.13-2.67-1.5-5.35,1.54-10.49,5.05-16.45,2.83-4.8,6-10.23,7-16.45a1.38,1.38,0,0,0-.06-.64c-.42-1.15-1-2.54-1.6-4-1.18-2.84-3.6-8.67-3.16-10.06a2.19,2.19,0,0,1,.6.13c4.93,1.64,9.18,3,12.93,4.19,10.86,3.45,17.41,5.54,24.16,9.5,24.94,14.65,40.71,49.3,37.4,63.31a17.34,17.34,0,0,1-1.7,4c-1.34,2.53-2.86,5.41-.63,8.57,1.57,2.24,5,4.93,8.36,7.53a52.75,52.75,0,0,1,6.65,5.72c3.3,4,3.31,7.49,3.31,11.58,0,3.73,0,8,2.89,12.59a100.52,100.52,0,0,0,10.59,14.6c3.3,3.58,9.49,15.89,8.52,20.36a1.39,1.39,0,0,1-.52.94c-2-3.46-5.07-7.22-8.78-8.26a7.66,7.66,0,0,0-7.21,1.85,2.62,2.62,0,0,0-.57,3.54c1.82,3,10.34,6,15.2,5.77a26.37,26.37,0,0,1,1.5,3.45c2.61,7.81,5,27.09-.95,29.59-1.19.51-4.13-2-6.28-3.78-3.4-2.87-6.62-5.59-9.23-3.77-2.95,2.05-1.89,6.18-.66,11,1.86,7.27,4.19,16.32-3.76,24.27-2.07,2.07-7.22,3.68-11.36,5l-.8.25c-5.42,1.69-10.29,6.11-9.13,11.29.59,2.64,2.5,4.39,4.35,6.08a14.12,14.12,0,0,1,3.29,3.75c2.46,4.88-2.46,10.71-8.06,14.06-.68.41-1.4.82-2.14,1.24-5.75,3.3-12.91,7.4-11.4,14a14.52,14.52,0,0,0,2.24,4.89c1.54,2.36,2.46,3.79-1.19,9.88-.89,1.48-1.39,3.93-2,6.77-.87,4.2-1.94,9.44-4.42,10.7a3.88,3.88,0,0,1-3.44-.25,7.13,7.13,0,0,0-5.58-.41c-3.31,1.27-5.08,5.28-6.63,8.81-1.11,2.51-2.36,5.36-3.62,5.49-1.54.15-2.92-.53-4.24-2.08-5.53-6.51-7-25.06-4.28-35.12.63-2.35,1.5-4.71,2.35-7,1.67-4.51,3.39-9.17,3.51-14.16a17.69,17.69,0,0,0-6.83-13.92c-3.62-3-5.44-5.45-5.55-7.59-.13-2.41,1.95-4.52,4.36-6.95,3.77-3.83,8.47-8.59,5.79-16.66-.4-1.2-1.58-2.58-3.2-4.49-3.15-3.68-7.9-9.25-9.47-16.87-2.77-13.41.55-21.61,3.76-29.55,2.25-5.55,4.37-10.8,4.37-17.46,0-13.72-5.2-19.89-14.66-31.11-2-2.39-4.21-5-6.6-8C281.89,299.42,283.72,295.41,285.49,291.5Zm104.56,57.81a27.17,27.17,0,0,1-9.33-2.86,5.68,5.68,0,0,1-2.22-1.72.82.82,0,0,1,.13-.12,5.47,5.47,0,0,1,3.56-1.51,4.57,4.57,0,0,1,1.26.18C386,344,388.29,346.57,390.05,349.31ZM277.76,155.44c-.16,6.84-1.48,14-2.76,21s-2.48,13.49-2.48,19.31a2.2,2.2,0,0,1-2,2.47c-8.09,1.61-31.67-12.71-37.57-27.06-11.49-27.94-13.25-46.6-14.42-58.95-.4-4.25-.75-7.92-1.39-11.11-.46-2.32-1.17-5.67-2.12-9.44a41.36,41.36,0,0,0-.91-14.2c0-.2-.13-.46-.22-.79-.54-1.87-2-6.85-.32-8.71.66-.73,1.89-1,3.67-.66,1.44.29,7.93,5.31,15.33,11.69,2.77,3,5.4,6.16,8.14,9.4,6.5,7.71,13.14,15.59,22.31,22.84C273.35,126.13,278.1,140.45,277.76,155.44ZM211.35,77.37c.08.29.15.53.19.7a35.37,35.37,0,0,1,.79,4.25c-1.94-6-4.38-12-7.26-15.84-1.23-1.64-1.64-3.24-1.15-4.4s1.7-1.77,3.51-2a8.11,8.11,0,0,1,.86-.05c3.31,0,7,2.24,10.37,5.05a4,4,0,0,0-1-.37c-2.71-.45-4.75,0-6,1.49C209,69.14,210.58,74.7,211.35,77.37Zm37-27.55c1.86,1.18,3.69,2.38,5.5,3.56,13.48,8.78,27.41,17.87,44,17.87,10.59,0,20.43-2.55,27-7l.23-.15c-1.23,3.06-7.57,11.39-19.08,14-7.34,1.67-25.75-.87-33-3.29a39.36,39.36,0,0,1-14.61-8.72c-2.23-3.51-4.29-6.89-6.14-9.91C250.85,53.8,249.54,51.66,248.37,49.82ZM171.29,32.9c2.13,1.1,4.07,2.32,4.3,4.23.27,2.18-3.4,4.1-5.93,4.86-.5.15-1,.33-1.59.52-1.39.47-4,1.33-4.58.92a.73.73,0,0,1-.11-.41,8.5,8.5,0,0,1,2.3-6.72A14.57,14.57,0,0,1,171.29,32.9ZM97.52,110.37c1.21,5.95,2.1,11.69-.33,16.39-1.25,2.42-21.1,21.55-31.76,31.82l-2.19,2.12c-17,16.42-30.13,15.63-35,14.52-4.45-1-7.13-3.31-7.8-5.14-2.49-6.72,7.07-13.43,17.19-20.53,5.16-3.62,10.49-7.36,14.55-11.34,6.12-6,10.3-13.7,14.33-21.13,4.8-8.85,9.34-17.2,16.87-23a13.8,13.8,0,0,1,7.66-3,5.56,5.56,0,0,1,2.37.49,66.09,66.09,0,0,0,2.49,12.41C96.52,106.15,97.09,108.28,97.52,110.37ZM162.4,298.54c11.9-10.63,14.74-22.48,8.22-34.29-10.49-19-1.06-29.91,5.82-37.87,3.23-3.74,5.79-6.7,5.48-9.72a5.72,5.72,0,0,0-2.49-3.95c-8.2-6.31-22.7.71-30.38,7.7-2.7,2.46-5.62,5.87-4.18,8.16,4.91,7.79,1.76,14.14-.56,17.23-3.21,4.27-7.67,6.3-9.34,5.82-.26-.07-.5-.19-.55-.79-1.25-14.46-13.42-15.84-20-16.59a15.32,15.32,0,0,1-3.79-.68C101.85,228.66,98.94,222,99,220.23a3.52,3.52,0,0,1,.63.36c5.4,3.71,15.8,5.55,28.78-.4,5.38-2.46,8.85-5.32,12.82-10.53,1.68-2.21,7.61-11.62,5.79-13.9a1.65,1.65,0,0,0-2.08-.39c-1.8.83-2.62,3.14-3.58,5.82-1.09,3-2.33,6.49-5.06,8.42-10.86,7.65-20.21,9.76-30.31,6.85-8.21-2.37-11-7.66-11.44-8.69-1.18-2.62-1.54-6.33,1-8.91,1.64-.29,8.76,5.72,11.15,11.42a1.88,1.88,0,0,0,1.8,1.39c1.59,0,2.34-2.09,3.57-5.47a20.71,20.71,0,0,1,1.66-3.88,11.68,11.68,0,0,1,7.7-4.51,8.45,8.45,0,0,0,4.11-1.66c2-1.76,4.64-5.7,4.16-8.52a3.23,3.23,0,0,0-2.09-2.53c-2.45-.95-4.21,1.51-5.76,3.67a15.42,15.42,0,0,1-2.85,3.34,16.7,16.7,0,0,1-2.33,1.32c-2.91,1.5-7.36,3.78-9,8.33a28,28,0,0,0-3.44-3.37l-.39-.34c-4.92-4.29-8.53-8.6-9.42-11.25-2.94-8.81,2.07-18.58,6.91-28,3.55-6.92,7.22-14.07,7.76-20.89,1.21-15.28-4.79-30.07-10.09-43.13a12.65,12.65,0,0,0-2.26-4A6.24,6.24,0,0,0,96,90c0-.63,0-1.25.05-1.87.45-6.68,1.77-11.38,7.15-15.67a51.63,51.63,0,0,1,6.14-3.86c3.63-2.06,7.38-4.19,9.53-6.69a73.16,73.16,0,0,0,4.68-6.45c2.71-4,5.52-8.21,8.29-9.55,2.35-1.13,6.13-1.39,9.17-1.6,4.16-.29,7.18-.49,7.24-2.84.12-5.43,5.69-10,12.94-10.72a16.88,16.88,0,0,1,7,.64,15.11,15.11,0,0,0-4.33,3.08,11.09,11.09,0,0,0-3,8.67,2.92,2.92,0,0,0,1.25,2.4c1.68,1.14,4.31.25,6.86-.61l1.51-.49c3.87-1.16,8.22-3.87,7.76-7.66a7,7,0,0,0-3.46-4.94c6.78-1.6,15-1.53,19.86-1.49,5.3,0,29.47,4.34,42.79,16.76a131.11,131.11,0,0,1,10.37,11.19,112.23,112.23,0,0,0,8.67,9.39c4.85,7.63,10.45,15.84,16.27,22.39,7.06,7.95,18.1,19,32.47,23.37,7.09,2.15,14.17-.4,18.86-2.09a28.54,28.54,0,0,1,3.5-1.11c0,.15-.09.34-.17.58-.75,2.17-5.91,6.83-13.65,9.93a39.5,39.5,0,0,1-33.19-1.39,98.13,98.13,0,0,1-15.61-10,145.24,145.24,0,0,0-10.1-12.71A249.12,249.12,0,0,0,234.28,77q-1.92-2.1-3.94-4.13c-.59-.59-1.28-1.31-2-2.11-5.06-5.32-13.54-14.24-21.18-13.29-2.77.34-4.76,1.6-5.59,3.55s-.34,4.57,1.45,7c3.26,4.37,6.6,13,9.37,23.8a41.67,41.67,0,0,1-2.16,9.32,26,26,0,0,0-2.91-5.32A22.8,22.8,0,0,0,209.13,86c-.21-4.7-2.18-11.37-10.33-16.48-9.46-5.94-23.3-4-31.52,4.4-9.63,9.87-12.28,22.53-7.08,33.88,4.8,10.46,15.2,17.32,25.32,16.7,8.77-.54,16.31-4.79,21.79-12.27.71-1,1.37-2,2-3a70.31,70.31,0,0,1,.08,7.81c-1.22,37.87,17.1,69.33,33.27,97.09,12.34,21.18,23,39.48,21.93,55.81-.27,4.09,3.13,16.42,4.55,20a37.19,37.19,0,0,0,5.6,8.82l.92,1.18c1.16,1.51,2.27,2.93,3.35,4.28a14.32,14.32,0,0,0,.57,4,23.2,23.2,0,0,0,2.31,4.93,24.52,24.52,0,0,1,1.91,3.89c2.21,6.28-1.12,12.45-4.64,19-3,5.57-6.11,11.34-6,17.59.05,1.92.41,4.91.79,8.07a85.55,85.55,0,0,1,.88,10.22c-.28,7.48-6.51,11.64-13.11,16-7.1,4.75-14.44,9.65-13,19a26.82,26.82,0,0,0,1.39,4.82c1.43,4,2.66,7.39-1,12.24-1.56,2-4.15,4.66-7.64,5.49-4.1,1-6.39,6.83-8.6,12.48-1.88,4.78-4,10.21-6.58,10.11-10.2-.37-12.17-11.41-13.61-19.47-.87-4.87-1.44-8.09-3.61-8.85a2.69,2.69,0,0,0-.86-.15,4.55,4.55,0,0,0-2.79,1.3c-4,3.53-7.8,3.59-11.47.16-6.91-6.44-11.58-24.09-12-36.72,4.57-1.4,8.75-6.43,9.51-10.34.4-2.06-.19-3.73-1.63-4.6-4.19-2.55-6.66-.49-7.76,1-1.74,2.3-2.6,6.57-2.69,11.76-2-.05-3.7-1.31-5.08-3.76-5.22-9.23-2.29-18.88-1-23l.21-.67a31.7,31.7,0,0,1,2.76-5.48c3.2-5.57,7.17-12.49,2.58-16.33a25.2,25.2,0,0,0-6.19-3.23c-5.87-2.46-12.52-5.24-13.66-14.29a68.26,68.26,0,0,1,.53-18.32C160.56,300.14,161.5,299.35,162.4,298.54ZM103,200.76a13.47,13.47,0,0,1,3.73,4.37A33.88,33.88,0,0,0,103,200.76Zm5.09,6.48a1.29,1.29,0,0,0,.88-.13c-.14.35-.28.69-.41,1C108.38,207.82,108.23,207.53,108.06,207.24Zm1.55-1.93c.14-5.41,4.8-7.8,8.23-9.56a19.77,19.77,0,0,0,2.72-1.57,18,18,0,0,0,3.39-3.89c.85-1.19,2-2.78,2.6-2.78a.22.22,0,0,1,.11,0,.62.62,0,0,1,.45.55c.25,1.42-1.41,4.49-3.28,6.1a6.28,6.28,0,0,1-2.94,1.08,14.24,14.24,0,0,0-9.16,5.38A17.14,17.14,0,0,0,109.61,205.31Zm79.9-115.13c-9.75,3.09-15,19.75-14.93,22a1.43,1.43,0,0,0,1.1,1.43c1.14.25,1.72-.88,2-1.42.62-1.19,2.95-1.42,5.89-1.72,4.64-.46,11-1.1,17.3-5.91A20.25,20.25,0,0,0,206,98.54a21,21,0,0,1,2.7,6.33,36.28,36.28,0,0,1-3.44,5.78,26.24,26.24,0,0,1-19.86,11.21c-9,.57-18.43-5.68-22.78-15.19-4.81-10.48-2.41-21.77,6.57-31a24.39,24.39,0,0,1,17.24-7,20.75,20.75,0,0,1,11,3c5.7,3.57,8.85,8.55,9.12,14.4a20.24,20.24,0,0,1-1.1,7.35C201.39,89,194.63,88.56,189.51,90.18Zm14.8,6a18.59,18.59,0,0,1-5,6.39c-5.71,4.36-11.4,4.93-16,5.39a21.82,21.82,0,0,0-5.3.92c1.76-5.11,6.21-14.27,12.29-16.19a16.2,16.2,0,0,1,4.86-.75c3.35,0,6.71,1.09,8.84,3.83C204.1,95.88,204.2,96,204.31,96.15ZM182,385.48c.1-4.33.8-7.81,2.2-9.66a2.45,2.45,0,0,1,2-1.13,4.73,4.73,0,0,1,2.36.82c.46.28.6.92.42,1.89C188.42,380.27,185.31,384.09,182,385.48Zm-30.3-132.9c-1.41,4.23-2.83,11.09,3.69,14.87.5.29,1,.56,1.54.83a10.21,10.21,0,0,1,3.83,2.78c1.32,1.93.94,4.73.48,7.2-.5,2.75-1.09,5.55-1.65,8.27-.89,4.27-1.78,8.61-2.46,13-8.41,6.4-20.12,12-34.34,16.53C120.14,290.55,127.61,274.83,151.71,252.58ZM140.84,514.17c.19-4.59,1.24-6.67,1.69-7l.24.22a5.59,5.59,0,0,1,1.33,6.13,6.79,6.79,0,0,1-3.27,3.4C140.8,516,140.8,515.05,140.84,514.17ZM216.14,780c-1.54-2.57-2.46-4.85-2.41-6.45a1.37,1.37,0,0,1,1.29-1.52,9.16,9.16,0,0,1,1.64-.19c.75,0,1.39.17,1.62.69C218.89,773.91,218,776.69,216.14,780Zm7.77-229.2a28.9,28.9,0,0,1-5.53-8c-2-4.33-1.24-9.09-.45-14.13a47.13,47.13,0,0,0,.83-9.8c-.35-6.29-4.41-11.23-8.34-16s-7.44-9-7.75-14.47c-.22-3.93,3.29-13.38,7.19-17.66,1.17-1.3,2.27-2,3.16-2h.34c9.86,0,10.67,16.46,11.32,29.71.13,2.69.26,5.23.45,7.48C226,515.26,225,535.46,223.91,550.82Zm75.43,220.47a8.51,8.51,0,0,1-.58-2c-.14-1.07.2-1.19.39-1.25a2.38,2.38,0,0,1,.72-.14h.05C300.16,768.39,299.92,769.64,299.34,771.29ZM403.86,430.8c-2.39,6.19-4.27,11.08-3.44,19.2a15.23,15.23,0,0,0,1.81,4.8c1.48,3,3.14,6.31,2.2,9.85-.57,2.18-2.7,4.29-4.76,6.33s-3.9,3.88-4.9,6.13A46,46,0,0,0,391,492.48c-.52,5.15-.87,8.55-5.8,12.47-12.06,9.61-16.11,25.58-20,41-3.15,12.4-6.4,25.22-13.78,34.41-1.05,1.3-2.31,2.81-3.69,4.46-8.2,9.8-20.58,24.6-20.58,35.18,0,66.16,17.61,100.81,28.13,121.51,4.93,9.71,8.19,16.12,6.74,20.55-.53,1.61-1.23,2.53-2.08,2.73-2.74.64-8-4.71-11.79-8.61-4.73-4.82-8.15-8.31-10.74-6.75-4.05,2.41-5.43,9.54-7,17.8l-.09.44c-1.49-2.54-3.13-5.1-4.77-7.63-3.42-5.31-6.65-10.32-8.37-15-10.82-29.32-12.34-63-4.52-100.15,2-9.29.91-17,.06-23.2-.6-4.36-1.11-8.11-.52-11.44,7.76-43.6,39.58-85,52.91-97.13,2.38-2.18.85-6.78-.78-11.66-1-2.89-2-6.17-1.68-7.58,1-3.8,4.46-5.06,8.11-6.39,4.11-1.5,8.77-3.2,8.38-9.15a17,17,0,0,0-1.12-4.06c-.92-2.63-2.08-5.91-1.3-7.87a9.85,9.85,0,0,1,2.7-2.58c2.7-2.11,6.38-5,7.8-10.16a6.56,6.56,0,0,0-1.08-5.93c.57-.25,1.1-.51,1.59-.77,3.71-2,5.76-4.32,5.78-6.63a52.27,52.27,0,0,0-1.25-10.73c-.32-1.69-.65-3.45-.91-5.34-1.16-8.33,2-17.17,5.62-20.57a3.73,3.73,0,0,1,2.95-1.29c1.25.25,3.27,1.77,4.93,4.63a20.94,20.94,0,0,1,1.43,17.26C405.43,426.73,404.63,428.8,403.86,430.8Z"/></svg>