<?xml version="1.0" encoding="utf-8"?>
<!-- Generator: Adobe Illustrator 25.4.1, SVG Export Plug-In . SVG Version: 6.00 Build 0)  -->
<svg version="1.1" id="_ÎÓÈ_1" xmlns="http://www.w3.org/2000/svg" xmlns:xlink="http://www.w3.org/1999/xlink" x="0px" y="0px"
	 viewBox="0 0 407.8 462" style="enable-background:new 0 0 407.8 462;" xml:space="preserve">
<style type="text/css">
	.st0{fill:#231F20;}
</style>
<g>
	<path class="st0" d="M132.4,444.2c0.7-1.3,0.6-2.8-0.2-4.4c-0.3-0.5-0.8-0.8-1.4-0.8l-8.9-0.2c-4.4,1.5-8.7,2.5-13,3l20.2,0.4
		c0-0.2,0-0.4-0.1-0.5l-0.3-0.7l3.1,1.8l-2.3,0c0,0.1-0.1,0.1-0.1,0.2c-1.5,2.7-11.5,4.1-15.3,4.7c-0.5,0.1-1,0.1-1.2,0.2l-19.1,3.5
		l15.8,0.4l10.3-1.9C123.4,449.1,130.6,447.8,132.4,444.2z"/>
	<path class="st0" d="M318.9,274.4c-3,0.1-6,0.1-9.1-0.1c-0.9,0.9-1.8,1.9-2.8,2.7l-0.3,0.2c6.5,0.7,13.6,0.6,21.9-0.4
		c1.2-1.2,2.5-2.4,3.8-3.6C328.1,273.8,323.6,274.2,318.9,274.4z"/>
	<path class="st0" d="M209.7,400.3c0.3,1,0.7,2,1,3c1.1-0.1,2.2-0.2,3.2-0.4c-0.4-1-0.7-2-1-3C211.9,400.2,210.8,400.3,209.7,400.3z
		"/>
	<path class="st0" d="M100.8,441.7v-3.2c-0.9,0.1-1.3,0.8-1.3,1.5C99.4,440.7,99.8,441.5,100.8,441.7z"/>
	<path class="st0" d="M222.2,239.4c-2.1-0.6-4.2-1.3-6.4-1.9c5.6,4,10.9,8.1,15.9,12.3c13,10.9,24.2,22.7,33.3,35
		c0.3,0.4,0.7,0.9,1,1.4c2.1,2.7,5,6.4,4.3,9.8c-0.8,3.7-6.1,3.9-9.7,4c-0.6,0-1.2,0-1.6,0.1c-9.7,0.7-19.5,1.2-29.2,1.2
		c-10,0.1-20.1-0.2-30.1-0.8c-8.5-0.5-17.6-1.2-26.3-2.9c-13.6-2.7-31.3-9.6-38.3-26.9c-3.1-7.7-3.1-15.6,0.1-22.2
		c3-6.2,8.5-11.5,15.6-15c15.9-7.9,35.3-4.4,53.8,0.5c2.8,0.7,5.5,1.5,8.3,2.3c-2.8-2-5.7-3.9-8.7-5.8c-10.5-2.8-20.8-4.9-30.9-4.9
		c-5,0-9.9,0.5-14.8,1.7c-13.4,3.2-27.6,13.7-28.9,29.8c-1.4,16.2,10.5,30.2,22.9,36.8c15.8,8.4,34.3,9.3,52.2,10.2l0.2,0
		c10.1,0.5,20.4,0.6,30.5,0.4l1.4,0c9.4-0.2,19-0.4,28.3-1.7c4.1-0.6,6.7-2.2,7.8-4.8c1.2-2.8,0.5-6.1-2.2-10.2
		c-4.8-7.3-10.7-14.1-15.2-19.2c-9-9.9-19.2-19.3-30.8-28.1C224.1,240,223.2,239.7,222.2,239.4z"/>
	<path class="st0" d="M120.5,438.8l-16-0.3c-1.1,0-2.1,0-3.2,0v3.2C107.4,441.9,113.9,441,120.5,438.8z"/>
	<path class="st0" d="M304.4,274.4c-0.4,0.4-0.6,0.9-0.4,1.4c0.2,0.7,0.9,1.2,1.6,1.3c0.4,0,0.8,0.1,1.2,0.1l-1.5-3.7
		C305,273.8,304.7,274.1,304.4,274.4z"/>
	<path class="st0" d="M129.7,442.1c0,0,0,0.1,0,0.1l0.3,0L129.7,442.1z"/>
	<path class="st0" d="M208,369.9c-0.9-14.8-1.8-30.1-12.9-40.4c-5.7-5.3-12.6-8.3-19-8.3c-0.7,0-1.4,0-2.1,0.1
		c-7.6,0.8-13.8,6.2-16.5,14.5c-2.8,8.6-2,18.3-0.8,27.5c1.6,11.5,5.2,20.2,11.2,26.5c9.5,10.1,25,15.1,42.2,13.7c-0.3-1-0.7-2-1-3
		c-7.5,0.5-15-0.3-22-2.5c-6-1.9-14.2-5.8-19.8-13.8c-6.2-8.8-7.7-19.9-8.2-29.5c-0.5-8.6-0.4-18.2,5.1-24.7c5-5.9,13.4-7.1,21.5-3
		c16.6,8.3,17.9,27,18.9,43.6c0.2,2.7,0.3,5.2,0.6,7.6c0.7,7.5,2.1,14.8,4.3,21.8c1.1-0.1,2.2-0.2,3.2-0.3c-1.3-4.2-2.4-8.5-3.2-13
		C208.7,381.3,208.4,375.8,208,369.9z"/>
	<path class="st0" d="M235,442.3l1-2.5l-0.6,0c-1,0-2,0-2.9-0.1C233.4,440.6,234.2,441.4,235,442.3z"/>
	<path class="st0" d="M307,276.4c0.7-0.7,1.5-1.4,2.2-2.2c-1.1-0.1-2.1-0.2-3.2-0.3L307,276.4z"/>
	<path class="st0" d="M394.6,222.7c0.7,0.2,1.4,0.5,2,0.7l-0.6-2.2C395.5,221.8,395,222.2,394.6,222.7z"/>
	<path class="st0" d="M237.6,440.3c-0.3-0.3-0.6-0.6-0.8-0.8l-1.5,3.6c0.1,0,0.1,0,0.2,0l1,0c0.7,0,1.2-0.5,1.4-1
		C238.1,441.4,238,440.7,237.6,440.3z"/>
	<path class="st0" d="M99.2,18.6c-1.4-3.4-3.1-6.8-6.3-9.1C89.7,7,85.5,6.4,81.8,5.9c-15.3-1.8-31.5,2-51.2,12
		c-7.8,3.9-15.4,8.5-22.5,12.9l4.9,0.8c12.7-7.7,27.8-16.4,43.9-20.5c9.5-2.4,18.5-3,26.7-1.7c5.1,0.8,8.3,2.7,10.4,6
		c2.2,3.5,3.5,7.4,4.7,11.5c7.3,23.6,4.4,48.5,1.6,72.5c-1.2,10.4-2.5,21.2-2.8,31.7c-0.4,10.1,0,18.4,1.1,26.2
		c1.3,9,4.3,16,9.1,21.3c5.5,6,12.9,9.9,18.7,12.5c4.1,1.9,8.3,3.6,12.4,5.2c3,1.2,6.1,2.5,9.2,3.8c21.8,9.5,40.4,19.1,56.6,29.5
		c3.3,0.9,6.6,1.8,9.9,2.8c0,0,0.1,0,0.1,0c-11.8-8.1-24.8-15.8-39.2-23.1c-10.8-5.5-22.1-10.3-33-15c-4.1-1.7-8.2-3.5-12.4-5.3
		c-7.1-3.1-14.3-6.7-19.8-12.6c-6.6-7.1-8.2-16.7-9-24.3c-1.7-17.7,0.3-35.6,2.3-53c2.1-18.2,4.2-37.1,2-55.7
		C104.4,34.5,102.3,26.1,99.2,18.6z"/>
	<path class="st0" d="M314.7,262.8c-2.9,3.6-5.9,7.3-9.3,10.6l0.2,0c1.3,0.1,2.7,0.3,4,0.4c2.2-2.4,4.3-4.9,6.3-7.4
		c0.5-0.6,0.9-1.2,1.4-1.7l0.1-0.1c3.4-4.2,7-8.5,10.6-12.7c-1.5,0.1-3,0.2-4.5,0.3c-2.1,2.5-4.2,5-6.3,7.5
		C316.4,260.7,315.6,261.7,314.7,262.8z"/>
	<path class="st0" d="M107.2,452l-15.6-0.4c0.1,1,0.3,2.1,0.4,3.1L107.2,452z"/>
	<path class="st0" d="M162.1,453.3l-1.4,0c0.1,0.5,0.2,1,0.2,1.5L162.1,453.3z"/>
	<path class="st0" d="M214.2,403.5c-1.1,0.1-2.2,0.3-3.2,0.4c3.5,10,8.6,19.4,14.9,27.8c1.9,2.6,4,5.1,6.2,7.5
		c1.1,0,2.3,0.1,3.4,0.1l1.1,0C226.6,429,219,416.8,214.2,403.5z"/>
	<path class="st0" d="M328.5,251.3c1-1.1,2-2.2,3-3.3c0.1-0.1,0.1-0.1,0.2-0.2c-1.5,0.1-3.1,0.3-4.7,0.4c-1,1.1-2,2.3-3,3.4
		C325.5,251.5,327,251.4,328.5,251.3z"/>
	<path class="st0" d="M333.4,273.1c-1.3,1.2-2.6,2.4-3.8,3.7c1.1-0.1,2.3-0.3,3.5-0.4c0.7-0.1,1.4-0.2,2-0.3
		c1.4-1.3,2.9-2.6,4.4-3.9C337.5,272.5,335.4,272.9,333.4,273.1z"/>
	<path class="st0" d="M174.4,437.2c-2.5-0.2-4.9-0.4-7.4-0.6l0.4,3.1C169.7,438.9,172.1,438.1,174.4,437.2z"/>
	<path class="st0" d="M166.7,439.8c0.1,0,0.1,0,0.2,0l-0.4-3.3c-0.1,0-0.1,0-0.2,0.1c-0.9,0.3-1.2,1-1.1,1.6
		C165.2,439,165.7,439.7,166.7,439.8z"/>
	<path class="st0" d="M234.9,442.9c-1-1-2.1-2.1-3.1-3.2c-18.5-0.4-37.6-1-56.3-2.4c-2.4,1-4.9,1.9-7.4,2.7c22.2,2,45,2.5,67,3
		L234.9,442.9z"/>
	<path class="st0" d="M398.6,223.2c0.4-0.4,0.5-0.9,0.4-1.4c-0.1-0.6-0.6-1.1-1.2-1.3c-8.2-3.3-16.8-4.3-25.1-2.9
		c-7.1,1.2-14.4,4.1-21.6,8.9c-8.9,5.8-16.5,13.2-23.7,21.2c1.6-0.1,3.2-0.2,4.8-0.4c9.3-10,21.9-21.7,37.6-25.7
		c7.8-2,16.1-1.6,24.2,1c0.6-0.6,1.3-1.3,1.9-2l0.3-0.3l1.1,4l-0.5-0.2c-0.9-0.4-1.8-0.7-2.7-1c-6,5.8-11.7,10-18.3,13.3
		c-11.9,6-25.9,9.7-43.4,11.3c-0.2,0.2-0.4,0.4-0.6,0.6c-0.9,1-1.8,1.9-2.6,2.9c15.8-1.2,29.1-4.1,40.8-8.8
		c10.3-4.1,19-9.7,25.9-16.5c0.6-0.6,1.2-1.2,1.7-1.8C398,223.8,398.3,223.5,398.6,223.2z"/>
	<path class="st0" d="M374.8,257.6c0.2-0.3,0.3-0.8,0.1-1.3c-0.1-0.4-0.4-0.8-0.7-0.9c-6.4-3-14.3-1.5-24,4.5
		c-5.8,3.6-11.2,8-16.2,12.6c2.1-0.3,4.2-0.7,6.2-1.1c0.3-0.2,0.6-0.5,0.8-0.7c5.2-4.4,9.7-7.5,14.2-9.9c3.1-1.6,7.7-3.8,12.6-3.7
		c0.9,0,1.7,0.1,2.6,0.3c0.4-0.5,0.9-1.1,1.3-1.7l0.3-0.5l0.1,0.5c0.2,0.9,0.4,1.7,0.7,2.6l0.1,0.5l-0.5-0.2
		c-0.6-0.3-1.2-0.5-1.8-0.7c-5.4,6.5-14.3,9.7-21.5,11.8c-2.8,0.8-5.6,1.5-8.6,2.1c-1.5,1.3-3,2.6-4.5,4c11.5-1.8,20.3-4.5,27.7-8.5
		C368.6,264.7,372.3,261.4,374.8,257.6z"/>
	<path class="st0" d="M370.9,257.6c0.4,0.1,0.8,0.3,1.2,0.4c-0.1-0.5-0.3-1-0.4-1.5C371.5,256.9,371.2,257.3,370.9,257.6z"/>
	<path class="st0" d="M262.5,372.3c4.6-6.4,8.7-13.2,12.8-19.8c3.4-5.7,7-11.5,10.8-17.1c8.1-11.8,16.5-23,25.1-33.4
		c6.2-7.5,14.1-16.7,23.3-25.3c-0.4,0.1-0.9,0.1-1.3,0.2c-1.4,0.2-2.8,0.4-4.1,0.5c-2.6,2.6-5.1,5.2-7.5,7.8
		c-17.6,19-33.4,39.8-47,61.8c-1.4,2.3-2.8,4.6-4.2,6.9c-8.2,13.6-16.6,27.7-30.2,36.4c-8,5.2-17.3,8.4-26.7,9.7c0.3,1,0.7,2,1,3
		c10.4-1.5,20-5,27.9-10.2C249.6,388,255.9,381.5,262.5,372.3z"/>
	<path class="st0" d="M8.9,34.1c1.1-0.7,2.3-1.4,3.4-2.1l-3.8-0.6c0.1,0.5,0.1,1.1,0.2,1.6L8.9,34.1z"/>
	<path class="st0" d="M214.3,233.1c-2.8-0.8-5.6-1.6-8.4-2.4c2.9,1.9,5.8,3.9,8.6,5.8c2.6,0.8,5.2,1.6,7.8,2.4
		c0.5,0.2,1,0.3,1.5,0.5c-2.6-2-5.3-3.9-8-5.8C215.4,233.4,214.9,233.3,214.3,233.1z"/>
	<path class="st0" d="M270.5,246.3c-11.2-1.3-20.2-2.9-28.5-5.1c-6.3-1.6-12.6-3.6-18.7-5.4c-1.9-0.6-3.9-1.2-5.9-1.8
		c2.7,1.9,5.3,3.8,7.9,5.8c10.6,3.2,21.6,6.4,32.7,8.1c16.5,2.5,33.3,3.9,50,4c5.3,0,10.4-0.1,15.3-0.3c1-1.2,2-2.3,3-3.4
		c-2.3,0.2-4.7,0.3-7.1,0.4C304.4,249.1,288.5,248.4,270.5,246.3z"/>
	<path class="st0" d="M8,30.9c-0.3,0.2-0.7,0.4-1,0.6c-0.6,0.3-0.9,1.1-0.7,1.9c0.1,0.3,0.3,1,1.1,1.1l1.2,0.2l-0.2-1.5
		c-0.1-0.7-0.2-1.3-0.3-2L8,30.9z"/>
	<path class="st0" d="M163.7,456.1c0.3-0.4,0.5-1,0.4-1.6c-1.5-9.6-3.1-19.6,0.2-29c2.2-6.3,7.9-13.9,16.3-14.2
		c3.3-0.2,6.7,0.7,9.4,2.6c0.7,0.5,4.4,3.3,4,6.2c-0.3,2-2.3,3.7-3.7,4.8c-2.2,1.9-4.9,3.4-7.1,4.6c-4.9,2.6-10.1,4.9-15.4,6.6
		c2.5,0.2,5.1,0.4,7.6,0.6c3.3-1.3,6.5-2.9,9.6-4.6c4.3-2.3,11.5-6.3,12.1-12c0.3-2.4-1.1-5.3-3.7-7.7c-2.6-2.4-6.1-3.9-10-4.4
		c-7.9-0.9-15.6,3.6-20,11.6c-5.8,10.4-4.4,22.7-2.8,33l2.5,0.1l-2.4,3.2l-0.1-0.6c-0.1-0.7-0.2-1.5-0.4-2.2l-50.5-1.2L93.6,455
		l69,1.6C163,456.6,163.4,456.4,163.7,456.1z"/>
	<path class="st0" d="M91.3,455l0.2,0c-0.1-1.1-0.3-2.1-0.4-3.2l-0.2,0c-0.9,0.2-1.2,0.9-1.1,1.5C89.8,454.1,90.3,454.9,91.3,455z"
		/>
	<path class="st0" d="M46,39.8c3.7-0.4,7.9-2.4,7.7-7c-0.3-4.8-5.7-7.1-9.5-7.3c-1,0-1.5,0.7-1.5,1.5c0,0.8,0.5,1.7,1.6,1.7
		c1.7,0.1,5.4,1.5,6.2,3.6c0.3,0.7,0.3,1.7-0.9,2.9c-2.3,2.2-6.5,1.5-9.6,1c-0.3,0-0.6-0.1-0.8-0.1l-25.9-4
		c-1.4,0.9-2.8,1.7-4.2,2.6l29.9,4.6C41.3,39.7,43.6,40,46,39.8z"/>
	<path class="st0" d="M65.2,331.4c5.5,4.9,11.6,9,18.2,12.1c4.4,2.1,9.1,3.5,13.6,5c3.6,1.1,7.3,2.3,10.8,3.7
		c16.9,7,37,21.9,42.4,42.8c2.5,9.6,0.5,19-5.4,25.7c-3.7,4.2-8.6,7.2-12.5,9.4c-4.9,2.7-10.1,4.9-15.4,6.4
		c-2.5,0.7-4.9,1.2-7.5,1.6l12.4,0.2c3.6-1.3,7.2-2.9,10.8-4.8c10.9-5.8,17.3-12.2,20.2-20.2c6.9-19-7.4-39.4-21.7-51
		c-8.1-6.6-17.3-11.6-27.1-15c-2-0.7-4-1.3-6-1.9c-2.4-0.7-4.8-1.4-7.2-2.3c-3.5-1.3-7-2.9-10.3-4.7c-12-6.7-22.5-17.3-30.2-30.5
		c-11.9-20.5-18-46.1-18.2-76.3c-0.1-10.3,0.3-21.2,3.9-31.7c4.8-14.1,13.9-26,22.8-37.5c2.3-3,4.7-6.1,7-9.2
		c12-16.2,18.3-37.7,17-57.4C81.4,74.6,69.3,55.8,52.1,48c-4.1-1.9-8.5-3.1-13-3.6c-1-0.1-1.4,0.5-1.5,1.2c-0.1,0.9,0.4,1.9,1.5,2
		c9.4,1.1,18.2,5.6,25.4,13.1c6.7,6.9,11.5,16,13.7,25.4c2.4,10.7,2.1,22.4-1.1,34.9c-2.7,10.6-6.3,19.2-11,26.2
		c-3.5,5.2-7.3,10.2-11.1,15c-6.7,8.7-13.7,17.7-18.5,28c-4.7,9.9-7.1,20.9-7.5,34.7c-0.8,26.6,3.6,51.8,12.7,72.9
		C47.7,311.6,55.6,322.9,65.2,331.4z"/>
</g>
</svg>
