<svg id="_ÎÓÈ_1" data-name="—ÎÓÈ_1" xmlns="http://www.w3.org/2000/svg" viewBox="0 0 1129.91 1279.93"><defs><style>.cls-1{fill:#231f20;}</style></defs><path class="cls-1" d="M156.13,95.55c6.77.24,22.73,8,13.78,16.3-6.61,6.18-19.49,3.36-27.34,2.15L59.91,101.24c.4,3,.79,6.09,1.19,9.14,40.67-25,82.71-50.3,129.41-62.16,23.18-5.89,47.67-8.23,71.41-4.42,11.4,1.82,21.23,5.77,27.53,15.92,5.8,9.35,9.37,20.31,12.58,30.77,27.92,90.86-.08,187.2-3.42,279.45-.85,23.43-.38,47.06,3,70.29,3.09,21.17,10.06,41.48,24.62,57.55,13.73,15.13,32,25.35,50.39,33.71,19,8.65,38.59,16,57.75,24.31,79.84,34.6,157.73,76.49,224.69,132.56,33.13,27.74,63.58,58.91,89.29,93.68,5.56,7.51,16.42,19.07,14.26,29.3-2.35,11.1-21.46,9.76-29.78,10.39q-39.11,3-78.36,3.29-40.41.35-80.78-2.12c-23.56-1.44-47.27-3.18-70.44-7.86-42.41-8.57-85-29.45-102.28-71.73-7.74-19-8.64-40.41.36-59.11,8.56-17.79,24.08-31.32,41.58-40,44.26-22,98.45-10.71,143.89,1.38,47.6,12.67,94,30.65,142.87,38a943.26,943.26,0,0,0,134.26,10.81c56,.36,114.33-4.61,166.82-25.51,25.9-10.32,49.85-24.73,69.64-44.48,2.4-2.39,4.72-4.85,7.08-7.27,2.84-2.92,1.21-7-2.2-8.36-21.6-8.64-44.72-11.64-67.72-7.88-20.88,3.42-40.62,12.4-58.26,23.91-35.83,23.37-64.1,56.32-91,89.13-11,13.42-21.58,27.66-34.34,39.47-3.52,3.26-.42,8,3.53,8.54,24.35,3,49.5,1.3,73.72-2,28.22-3.79,57.2-10.28,82.34-24.13,11.87-6.53,22.72-15.06,30.29-26.41,1.4-2.09.56-5.75-1.79-6.84-21.84-10.11-46.2.49-65.13,12.2-29.05,18-54,42.69-77.11,67.6a1086,1086,0,0,0-126.07,166c-25.86,41.77-49.54,88.65-92.17,116-40.47,26-95.19,34.84-141.31,20.17-20.73-6.59-40.17-18.73-52.82-36.73-16.09-22.9-20.32-51.49-22-78.79-1.38-21.82-1.31-48.13,13.62-65.8,14.52-17.17,37.82-17.49,56.82-8,51.27,25.63,47.53,88,51.92,136.84,4.69,52.19,23.56,102.52,55.26,144.37a283.93,283.93,0,0,0,25.34,29.11q1.77-4.28,3.53-8.54c-62.33-1.48-125-2.91-187.13-8.6.44,3.28.89,6.55,1.33,9.82a255.94,255.94,0,0,0,48.36-20.19c12.08-6.59,31.2-17.11,32.83-32.64.84-8.08-4.54-16-10.2-21.22-7.47-6.93-17.23-10.83-27.28-12-23.23-2.57-43.41,11.71-54.42,31.38-16.56,29.57-11.6,64.16-6.49,96.09l4.82-6.33-191.23-4.39c.44,3.27.88,6.55,1.33,9.82l75.73-13.69c12.66-2.29,42.9-7.76,33.52-27.67a4.94,4.94,0,0,0-4.32-2.48l-80.16-1.43c-6.46-.12-6.41,9.7,0,10,29.71,1.36,59.44-8,85.42-21.91,23.24-12.45,45.15-29,54.48-54.54,18.91-51.76-20.13-106.51-58.44-137.62a241.29,241.29,0,0,0-73-40.41c-11.7-4.06-23.78-6.82-35.4-11.13a197.91,197.91,0,0,1-27.46-12.69c-34.12-19-61.17-48-80.67-81.66-35.39-61.06-48.24-134.51-48.75-204.38-.21-28.88,1.17-57.49,10.41-84.8,16.12-47.7,50.44-85.11,79.75-124.92C247,386.13,264.37,329,260.63,275c-3.69-53.26-32.87-106.33-82.95-129a117.25,117.25,0,0,0-35.12-9.65c-6.38-.74-6.32,9.26,0,10,52.95,6.13,92.92,53.06,104.29,103,7,30.75,4.8,62.93-2.85,93.33-6.2,24.59-15.16,49-29.35,70.11-26.11,38.9-59.12,72.6-79.41,115.36C121.1,557.91,116,588.93,115,621.5c-1.93,66.18,7.85,134.79,34.18,195.81,14.62,33.86,35.3,65.58,63,90.22a207.16,207.16,0,0,0,49.06,32.62c21.15,10,44,14.46,65.58,23.31,49.14,20.17,99.55,60.92,113.44,114.38,6.22,24,2.33,49.43-14.43,68.31-9.27,10.44-21.25,18.25-33.34,25a188.63,188.63,0,0,1-41.25,17.19,134.83,134.83,0,0,1-42.59,5.26v10l80.16,1.43-4.32-2.48c4.89,10.39-39,15.06-43.85,15.93l-59.42,10.75c-5.7,1-4.13,9.69,1.33,9.82l191.23,4.39c3.54.08,5.31-3.24,4.82-6.33-4.06-25.4-8.37-52.44.47-77.34,6.63-18.68,22-36.8,43.11-37.75a40.14,40.14,0,0,1,24.88,6.84c4.6,3.26,11.29,9.81,10.32,16.07-.79,5.11-5.88,9.48-9.58,12.6-5.74,4.85-12.36,8.72-19,12.28a243.2,243.2,0,0,1-45.34,18.85c-5.63,1.69-4.16,9.32,1.33,9.82,62.12,5.69,124.8,7.12,187.13,8.6,4.37.11,6.55-5.52,3.54-8.53a270.25,270.25,0,0,1-74.73-143.68c-8.88-50.62,2.46-114.79-39-153.59-15.05-14.07-36.05-24.43-57.1-22.15-22.1,2.4-38,18.73-44.75,39.25-7.67,23.41-5.42,50-2.17,74,3.53,26.13,11.74,52,30.11,71.59,31.2,33.27,81.14,41.67,124.58,35.66,26.68-3.69,53.48-12.79,76-27.71,21.65-14.34,39-33.83,54-54.85,22.76-31.88,41.11-66.73,63.25-99.07,21.11-30.84,43.52-60.83,67.33-89.64,24.55-29.7,50.59-58.7,80.09-83.59,11.77-9.93,24.25-19.24,37.88-26.48,10.19-5.42,21.65-10.05,33.39-9.82A31.71,31.71,0,0,1,1037,711.3q-.88-3.42-1.79-6.84c-13.47,20.18-39,30.18-61.38,36.67-26.13,7.59-53.48,11.25-80.65,12.09A232.47,232.47,0,0,1,857.52,752l3.54,8.53c10.54-9.76,19.47-21.28,28.54-32.37,12.34-15.09,24.68-30.19,37.88-44.54,28-30.44,61.35-60.47,102.45-70.88,24.45-6.19,49.39-3.59,72.69,5.73-.74-2.78-1.47-5.57-2.21-8.35-16.51,17-33.41,30.57-54.76,41.29C999.08,674.77,945.29,682.13,893.8,684c-43.53,1.58-87.17-1.09-130.42-6-25.79-3-51.15-7-76.29-13.55-25-6.53-49.49-14.56-74.22-21.86-47.4-14-100.33-28.12-149.67-16.21-38.49,9.3-74.62,39.06-78.15,80.54-3.58,42,26.36,80.46,61.85,99.35,42.72,22.74,93.7,25.13,141,27.44q40.95,2,82,1.11c26.45-.57,53.53-1,79.78-4.58,8.86-1.2,17.89-4.53,21.57-13.38,4-9.52-.68-20-5.91-28.09-11.9-18.29-26.33-35.38-40.94-51.55-60.22-66.65-136.21-117.25-215.9-157.68-39.78-20.18-81-36.56-121.78-54.39-19.15-8.37-38.47-18.21-52.83-33.76C317.55,473.63,312.24,450,310,426.65c-9.43-97.51,23.19-194.14,11.45-291.54-2.8-23.19-8.13-46.06-17.1-67.66-3.88-9.36-8.65-18.66-17-24.8-8.73-6.43-19.69-8.28-30.21-9.52-48.08-5.65-95.31,10.75-137.61,32.21-21.76,11-42.69,23.63-63.47,36.4-3.31,2-3.29,8.45,1.2,9.14l55.89,8.63,27.94,4.31c6.65,1,13.22,2.05,20,1.36,10.69-1.08,21.8-7.2,21.17-19.44C181.56,93,167.42,86,156.13,85.55c-6.44-.22-6.43,9.78,0,10Z"/></svg>