<svg id="Layer_2" data-name="Layer 2" xmlns="http://www.w3.org/2000/svg" viewBox="0 0 1345.05 831.6"><path d="M1144.79,806.15c-14.85,0-33.33,0-44.19-13.57l-.15-.24c-1.6-3.2-.06-6.29,1.3-9l.1-.19.15-.16c5.09-5.09,10.35-10.35,14.2-16.75a97.29,97.29,0,0,0,6.45-13.93c3.57-8.95,7.27-18.2,16.16-24.42q4.32-3.09,8.48-6c0-.33.09-.66.14-1l.91-5.44c3.61-21.61,7-42,8.23-62.47,0-25.31-5.11-53-15.63-84.56a216.2,216.2,0,0,1-9.65-38.87c-8.82-8-16-20.28-21.44-36.55-8.62-33.51-19.91-67.74-42.57-96.54-16.71,24.36-30.07,45.82-20.28,69.43,14.54,35.07,19.63,50.83,11.27,65.69a26,26,0,0,1-4.7,5.77c-.13,11.28-1.69,24.75-4.66,40.5-1.83,9.73-3.67,20.24-5.45,30.4-6.8,38.83-13.83,79-23.61,94.36-7.51,11.8-16.91,18.62-25.13,18.17a11.92,11.92,0,0,1-1.58-.17c-4.56,8.13-11.48,15.3-21.1,18.31-23.59,7.37-74.35,7.65-81.06-1.63a4.54,4.54,0,0,1,.23-5.62c7.47-10.45,36.47-32.09,53.85-40.2a39.94,39.94,0,0,1,11.76-17.58c8-7.24,21.85-34.48,33.58-66.24,8-21.69,13.34-40.8,15.4-54.56a12.62,12.62,0,0,1-6.52-5.84c-4.74-9-4.09-23.9,1.16-36.09-6.75-30.84-17.19-76.11-36.34-102.37a268.2,268.2,0,0,1-42.58,20.45c-43.95,16.42-113.73,24.5-186.65,21.61-15.24-.6-30.21-1.66-44.83-3.15C681,491.08,677.12,552.78,682.34,571c.28,1,27.51,96.94,15.44,110a45.52,45.52,0,0,1,.07,14.32c-2.45,15.31-29.06,20.91-40.38,22.6-4,.6-8.06,1-12.15,1.31.27,5.48-.18,10.2-1.74,14.1a27.3,27.3,0,0,1-5.82,9.22,20,20,0,0,1-4.35,15.17,42.57,42.57,0,0,1-15.83,13.13c-3.2,1.64-4.5,2.39-4.85,4.65-1.16,7.53-9.82,23.44-25.45,27.87-13.15,3.72-46.7,3.84-53-4.81-1.14-1.55-2-4.13.28-7.64,10.72-16.38,25.9-37.59,37.32-45.63a18.88,18.88,0,0,1,5.51-2.61c-.41-6.14.47-14,3.59-24.18,9.25-30.06,11.3-58.26,10.14-78.91a16.77,16.77,0,0,1-8.27-2.46c-9.91-6.1-15.87-24-13.56-40.73,1-7.35,3.53-13.56,7.29-18.26-.22-.77-.45-1.54-.68-2.33C564,535.08,547,476.79,537.76,449.55c-24.62-2.38-47.76-8.64-64.75-16.86-22.46-10.87-39.43-33.77-49.72-51.06q-1.85-3.13-3.62-6.36C371,386,328.77,400.59,311.84,407.64c-23,9.59-37.29,20.89-48.76,30-8,6.37-14.4,11.4-21.3,13.89-4.84,1.74-16.06.59-31-1.7,18.52,17.07,32.95,36.48,37.15,56.38,3.7,17.56-.75,34.1-13.22,49.15-10.38,12.54-22.68,21.86-35.91,27.25-6.47,8.78-12.72,16.64-17.44,22.58-4.14,5.2-7.4,9.31-8.46,11.07-2.14,3.56.81,8.6,3.94,13.93,3.67,6.27,7.47,12.75,3.89,18.38-4.77,7.49-29.95,31.61-39.16,29.62a4.27,4.27,0,0,1-3.36-4c-.05-.33-.1-.67-.14-1a16.37,16.37,0,0,1-7.93,1.91c-8.08,0-14.22-5.56-17.22-9.83a11.47,11.47,0,0,1-5.14-1.2c-13.87-6.32-22.27-27.27-21.16-38.31.32-3.29-.73-8-2-13.44-2.36-10.52-5.6-24.92-1.45-40.88,3.24-12.48.41-26.17-1.46-35.23-.54-2.61-1-4.87-1.2-6.52a36.17,36.17,0,0,1,.92-10.78c-9.34-4.33-16.9-17.67-20.53-26.9-4.69-11.94,2.19-36.84,31.85-52.34,17.74-9.28,62.47-1.76,98.41,4.28,3.82.64,7.56,1.27,11.17,1.86A294.49,294.49,0,0,0,145,408.26a174.76,174.76,0,0,1-22.34-13.41,65.16,65.16,0,0,1-17.49,13.66,20.24,20.24,0,0,1,2.41,8.2c.36,7.76-5.2,13.74-16.51,17.78-25.06,8.95-36.26,32.77-42.95,47-2.1,4.48-3.77,8-5.34,9.94-.57.71-1.92,1.77-4.49,1-4.66-1.39-11.69-8.65-12.76-18.67C24,458.89,37.12,433.5,54.12,407.66a70.06,70.06,0,0,1-6.47-3.84c-17.21-11.55-26.2-29.18-20-39.28,1.48-2.44,5.41-2.81,12-1.12,9.13,2.33,22.13,8.31,34.33,16,3.12-4.21,6.23-8.33,9.29-12.31q1.91-2.49,3.83-5C73,345.27,65.51,329.57,66.61,322c.42-2.87,2.06-4.7,4.63-5.15,6.84-1.22,24.18,5.42,39.09,16.48,22.3-26.65,42.43-48.16,50.45-54.92,6.84-5.77,13.78-11.75,20.49-17.53,33.58-28.92,67.9-58.49,107.09-77.48a68.38,68.38,0,0,1,12.82-23.11c15.55-18.39,35.38-30.32,52.72-39.57C402.67,95,448.49,77.05,498.12,64.32c49.57-12.39,94.46-22.12,141.8-15.73C657,50.73,675.28,56.32,693,64.48a68.79,68.79,0,0,1,34-3.22c123.07,18.38,216.84,4.36,242.58-2.6,20.59-5.56,55.44-2.87,88.72,8.09a154.5,154.5,0,0,1,56.08,12c22.27,9.5,41.8,24.62,58.06,44.94,1.43,1.79,6.17,4.33,12.18,7.55,36.15,19.37,132.18,70.82,118.07,259.41-6.86,91.67-24.41,147-36,183.58-8.67,27.33-13.76,43.37-7.88,55.07,12.17-4.26,27.53-13,39.16-22.56,1.22-1,2.79-2.05,4.12-1.3.86.48,1.2,1.45,1,2.89-.82,6.17-14.09,29-28.34,32.51-6.25,1.56-11.88-.88-16.28-7-.32-.46-.63-.93-.92-1.39-8.34,2.62-15.36,3.06-19-.14-6-5.4-11.81-17.15-17.13-34.91-4.86-16.21-9-36.56-12.08-58.83-6.48-47.39-6.64-93.84-.41-121.24,4-17.72,9.4-35.59,14.59-52.87,14.26-47.47,27.73-92.3,7.88-118.76-4.79-6.39-10.15-13.33-15.84-20.65a300.24,300.24,0,0,1,1.24,46.25c-2.17,51.18-14,103.57-18,117.89-9.68,30-15.84,55.06-16.33,81.63A76.38,76.38,0,0,1,1197,492c4,8.49,11,40.21-3,48.47-.58.35-1.18.67-1.8,1,2.24,9.93,4.59,19.72,6.91,29.35,7.15,29.71,14.54,60.44,17.6,92.61v.12c0,10.39,0,21.12-2.67,30.46a42.45,42.45,0,0,1-6.88,12.19c2.17,6.92.79,16.07-1,23.09l-.1.27c-.63,1.26-1.28,2.89-1.91,4.47s-1.33,3.33-2,4.69c-6.76,13.5-15.51,20.35-26,20.35a22.76,22.76,0,0,1-5.84-.33c0,1.42,0,2.84,0,4.24-.08,14-.16,28.4-11.55,38.92l-.17.13A26.66,26.66,0,0,1,1144.79,806.15Zm-42.06-15.1c10.09,12.48,27.81,12.48,42.06,12.48a23.89,23.89,0,0,0,12.28-3.65c10.48-9.73,10.55-23,10.64-36.93,0-1.62,0-3.25,0-4.88a26,26,0,0,1-11.28-7.32,37.47,37.47,0,0,1-9.42-25.5q-3.32,2.32-6.73,4.77c-8.26,5.78-11.65,14.27-15.24,23.25a99,99,0,0,1-6.64,14.3c-4,6.62-9.28,12-14.44,17.11C1102.82,787.05,1101.84,789.11,1102.73,791.05ZM577.61,745.38a15.85,15.85,0,0,0-4.27,2.09c-11.68,8.21-28,31.67-36.64,44.93-1.6,2.43-1,3.82-.36,4.65,5.16,7,36.59,7.7,50.23,3.84,14.31-4.06,22.54-19,23.57-25.75.57-3.67,3.07-4.95,6.24-6.58,3.74-1.91,8.85-4.54,15-12.41a17.56,17.56,0,0,0,3.94-11.46,15.46,15.46,0,0,1-4.15,2.06A13.28,13.28,0,0,1,619.65,745c-4.62-3.08-5.15-8.82-4.19-12.81,1-4.29,3.79-7.31,7-7.71,3.75-.44,9,3.61,12.34,9.43a25,25,0,0,1,2.27,5.48,26.19,26.19,0,0,0,4-7c1.41-3.51,1.82-7.87,1.57-13-20.38,1-40.13-2-43.83-9.52-6.59-13.42,7.17-25.78,20.48-37.72,4.44-4,8.93-8,12.76-12.12-1.89-10.87-4.54-25.5-8.19-39.74-6.49,7.73-14.3,14-22.08,17.17a27.89,27.89,0,0,1-8.19,2.08c1.16,21-.92,49.44-10.24,79.74-2.84,9.23-3.82,16.78-3.5,22.81,7.71-1.36,16.57.81,21.7,5,3.93,3.17,5.23,7.24,3.56,11.18-2.19,5.17-8.87,7.4-15.22,5.09C587.67,762.5,579.45,758.61,577.61,745.38Zm2.55-.64c1.14,9.13,5.54,14.26,10.71,16.14,5,1.81,10.3.17,11.91-3.65,1.53-3.62-.67-6.41-2.79-8.12C595.4,745.4,587.15,743.45,580.16,744.74Zm590.26,11.34a20.9,20.9,0,0,0,5.68.35c9.54,0,17.51-6.36,23.79-18.9.63-1.26,1.28-2.9,1.92-4.49s1.28-3.21,1.94-4.54c2-8.18,2.49-14.93,1.41-19.9-4.69,5.22-10.29,9.55-15.79,13.79A142.54,142.54,0,0,0,1176,733.66l-3.77,7.54A66,66,0,0,0,1170.42,756.08Zm-20.65-32.73A34.65,34.65,0,0,0,1158.4,749a23.6,23.6,0,0,0,9.42,6.39,67.06,67.06,0,0,1,1.88-15l.09-.24,4-8,.15-.14a141.78,141.78,0,0,1,13.81-11.64c6-4.66,11.86-9.16,16.49-14.62a12.25,12.25,0,0,0-1.06-2,10.72,10.72,0,0,0-7.3-4.76C1179.3,704.14,1165.17,712.68,1149.77,723.35Zm-526.65,3.74h-.29c-2.17.26-4.06,2.51-4.83,5.72-.82,3.42-.17,7.84,3.1,10a10.7,10.7,0,0,0,9.26,1.41,13.1,13.1,0,0,0,4.59-2.61,21.76,21.76,0,0,0-2.38-6.42C629.74,730.23,625.51,727.09,623.12,727.09Zm321.13-32.34c-16.94,8.47-44,28.81-50.91,38.45-.92,1.29-.64,2-.24,2.57,5.53,7.64,54.47,8.06,78.16.66,9-2.81,15.25-9.24,19.41-16.52a13.92,13.92,0,0,1-7.11-6.94,19.15,19.15,0,0,1-.33-17.09c2.42-5.08,7-9,11.69-10.07,1-.22,3.48-.28,4.64,4.06,1.59,6,.14,17.65-5.12,28.28l.42,0c7.17.37,15.89-6.13,22.79-17,9.5-14.93,16.48-54.82,23.23-93.4,1.78-10.17,3.62-20.69,5.46-30.44a246.89,246.89,0,0,0,4.6-37.69c-9.5,7.79-25,14.85-37,14.86h-.42a23.45,23.45,0,0,1-5.14-.6c-3.05,19.76-12,45.18-15.5,54.63-10,27.16-24.52,58.5-34.28,67.29A38.83,38.83,0,0,0,948.37,690a25,25,0,0,1,5.66-1.63c8.16-1.09,15.4,5.26,16.43,11.67.36,2.23.65,9.67-10.78,11.84-6.67,1.27-11.9-.84-14.36-5.79C943.86,703.18,943.43,699.19,944.25,694.75Zm190.1-162.62a210.84,210.84,0,0,0,9.06,35.44c10.62,31.87,15.78,59.82,15.78,85.5-1.22,20.67-4.64,41.14-8.27,62.82l-.66,4c14.92-10.23,28.82-18.43,45.17-23.54l.31-.09.32.06a13.48,13.48,0,0,1,9.34,6c.24.38.47.77.68,1.17a39,39,0,0,0,5.52-10.22c2.53-8.89,2.54-19.41,2.54-29.59-3.05-32-10.09-61.22-17.54-92.19-2.28-9.48-4.59-19.11-6.8-28.89-14.35,5.56-36.39,2.25-52.71-8.45C1136.16,533.47,1135.25,532.82,1134.35,532.13ZM995.6,688.35h-.12c-3.92.87-7.8,4.27-9.88,8.65a16.57,16.57,0,0,0,.3,14.79,11.13,11.13,0,0,0,6,5.79c5.26-10.52,6.41-22.17,5.11-27.05C996.89,690,996.38,688.35,995.6,688.35ZM632.69,663.27c-3.58,3.69-7.6,7.29-11.57,10.86-13.16,11.81-25.6,23-19.88,34.62,2.9,5.92,20.92,9.11,41.3,8.08-.67-7.79-2.62-17.13-4.84-27.7-1.51-7.21-3.07-14.67-4.47-22.75l-.5-2.85C632.72,663.44,632.7,663.36,632.69,663.27Zm2.24-2.39c.13.75.26,1.49.38,2.21l.49,2.84c1.4,8,3,15.47,4.46,22.66,2.24,10.66,4.21,20.09,4.89,28.08,3.94-.27,7.94-.7,11.93-1.29,22.4-3.36,36.67-11,38.18-20.44a42.13,42.13,0,0,0,.08-12.38,5.75,5.75,0,0,1-2.77,0c-10.53-2.34-19.3-9.07-22.35-17.14-1.81-4.81-1.34-9.46,1.31-13.09,1.78-2.44,4.65-3.07,7.88-1.72,6.71,2.8,14.55,13.58,17.63,26.65,5.46-13.72-7.27-70.69-17.22-105.52-3.8-13.31-3.18-49,1.5-86.8,1.73-13.89,3.8-26.52,6.12-37.52-15.47-1.64-30.53-3.76-45.07-6.35,2,32.35,1.79,114.87-2.72,145.48,3.73,23.42,5.9,43.94,5.33,54.79C644.62,648.24,640.53,654.69,634.93,660.88Zm312.34,32.44c-1.23,4.57-1.06,8.72.39,11.65,1.93,3.87,6,5.43,11.53,4.38,6.24-1.19,9.41-4.41,8.69-8.85-.84-5.22-6.8-10.39-13.5-9.5A28,28,0,0,0,947.27,693.32ZM676.2,652.54a3,3,0,0,0-2.56,1.35c-2.11,2.9-2.46,6.67-1,10.63,2.74,7.26,10.77,13.35,20.47,15.5a2.83,2.83,0,0,0,1.77-.07c-2.51-13.09-10.17-24.26-16.51-26.9A5.7,5.7,0,0,0,676.2,652.54Zm-535.68,19c.08.8.17,1.57.28,2.3.19,1.36.78,1.66,1.32,1.78,6.79,1.43,31.1-20.14,36.4-28.47,2.72-4.27-.66-10-3.94-15.64-3.37-5.76-6.86-11.71-3.93-16.6,1.15-1.92,4.3-5.88,8.66-11.36,4.12-5.18,9.41-11.84,15-19.28-.71.24-1.43.47-2.15.68-14.15,4.27-29,4-41.69-.88-21.23-8-33.95-27.08-33.2-49.66,1.83-54.77,27.7-80.65,51-81.51,12.71-.47,30.38,8.46,43.9,22.22,13.27,13.49,20.15,28.7,19.38,42.83-.91,16.89-15.23,40.37-29.47,60.19a95.54,95.54,0,0,0,30.65-24.46c11.93-14.41,16.2-30.2,12.67-46.95-4.3-20.37-19.72-40.3-39.25-57.64-4.82-.78-10-1.64-15.35-2.55-35.56-6-79.8-13.41-96.77-4.54C67,456.1,58.86,479.54,63.38,491c3.4,8.66,10.38,21.24,18.71,25.32,1.69-6.17,4.63-12.18,8.66-14.26,5.67-2.93,8.75-2.18,10.33-1s2.43,3.46,2,6.14c-.7,4.43-4.61,10.21-11.54,12.45a13,13,0,0,1-7.59.16,32.09,32.09,0,0,0-.81,9.56c.18,1.54.63,3.74,1.16,6.29,1.92,9.3,4.83,23.35,1.44,36.41-4,15.36-1,28.83,1.47,39.66,1.27,5.66,2.37,10.55,2,14.27-1,10,7,29.9,19.64,35.67a12.11,12.11,0,0,0,2.47.85c-3.33-7.51-1.5-17,1.33-19.57a2.52,2.52,0,0,1,3.07-.43c4.13,2.45,5.87,13.42,3,18.93a7.22,7.22,0,0,1-3.07,3.12c2.77,3.62,7.89,7.89,14.49,7.89a13.67,13.67,0,0,0,7.65-2.15,98.46,98.46,0,0,1,.52-19.06c1.25-9.58,3.65-14.69,7.11-15.19a3.36,3.36,0,0,1,3.11,1c2.47,2.67,1.17,9.7-.8,18.63-.37,1.71-.73,3.33-.95,4.56A19,19,0,0,1,140.52,671.52Zm5.53-32.88-.26,0c-1.5.22-3.68,3.73-4.88,12.94a97.47,97.47,0,0,0-.63,16.58,16.91,16.91,0,0,0,3.92-8.36c.23-1.29.59-2.94,1-4.67,1.11-5,3.17-14.42,1.43-16.3A.7.7,0,0,0,146.05,638.64Zm-31.56,6.2a4.16,4.16,0,0,0-1.11,1.72,20.46,20.46,0,0,0,.37,15c.13.27.27.55.44.86a4.28,4.28,0,0,0,2.21-2.14C118.87,655.51,116.93,646.49,114.49,644.84ZM626,617.74c3.64,13.83,6.31,28.26,8.33,39.83,4.54-5.31,7.72-10.75,8-16.35.47-9.06-1.17-26.43-4.22-47.06A69.74,69.74,0,0,1,626,617.74Zm634.05,13.78.49.72c4.6,6.44,10.08,8,16.75,4.84,11.75-5.6,22.61-24.41,23.18-29a10.45,10.45,0,0,0-.91.67C1288.79,617.55,1273.14,626.89,1260.07,631.52ZM577.43,581.27a36.6,36.6,0,0,0-5.6,15.52c-2.14,15.54,3.4,32.65,12.34,38.15A14.21,14.21,0,0,0,590.9,637c-.7-9.86-2.15-17.83-3.86-23.23C585.6,609.24,582,597,577.43,581.27Zm2-2.54c4.85,16.63,8.63,29.57,10.11,34.25,1.76,5.56,3.26,13.79,4,24a26.08,26.08,0,0,0,7.38-1.88c7.77-3.17,15.74-9.84,22.22-18-5.22-19.42-12.37-37.53-22.08-43.62a12.55,12.55,0,0,0-10.63-1.6A22.84,22.84,0,0,0,579.42,578.73Zm635.51-358.84c6.7,8.61,13,16.75,18.57,24.17,20.64,27.52,7,73-7.47,121.08-5.18,17.24-10.53,35.07-14.54,52.7-13.19,58,4.86,191.05,28.82,212.44,2.73,2.45,8.61,2.07,15.93-.18-6.1-12.55-.89-29,7.91-56.7,11.58-36.49,29.08-91.62,35.91-183,14-186.89-81-237.75-116.7-256.9-6.75-3.62-11.22-6-13-8.22-16-20-35.18-34.84-57.05-44.17a148.92,148.92,0,0,0-46.19-11.24A180.94,180.94,0,0,1,1101,86.66c23.16,14.9,37.14,33.31,40.42,53.23a153.41,153.41,0,0,1,1.85,24.56c15.48,8.21,26.54,17.36,29.82,27.62,2.46,7.71.33,15.62-6.32,23.52-9.31,11-20.12,17.12-32,18.12-1.85,8.52-3.85,16.65-5.82,24.09-10,37.88-24.73,77.55-37.47,101.06-6.46,11.93-14,22.82-21.22,33.35l-1.38,2c23.28,29.28,34.79,64.08,43.53,98.06,4.76,14.28,10.91,25.37,18.33,33.06-.72-5.39-1.22-10.87-1.43-16.3-1-25.7,5.12-41.92,17.67-46.9,11.75-4.66,22.84-2.56,33,6.24.79-26,6.91-50.66,16.38-80,3.94-14.19,15.72-66.31,17.88-117.25.79-18.86.2-35.64-1.76-50.18l-1.41-1.82c-31.56-40.59-46.07-60.23-42.82-65q1.21-1.76,4.43-.81c17.67,5.24,30.25,19.89,37.4,43.54A151.84,151.84,0,0,1,1214.93,219.89ZM594.06,568.74a15.51,15.51,0,0,1,8.35,2.53c10.12,6.35,17.4,23.92,22.72,43.18a65.12,65.12,0,0,0,10.73-21.89c.41-1.62.79-3.61,1.14-5.92-5.06-32.08-13.09-70.18-21.61-97.17-3.95-12.5-10.28-26.92-18.09-42.63-18.27,3.85-37.86,4.56-56.69,3,9.33,27.83,26,85.08,37.76,125.31.07.26.14.51.22.77a25.46,25.46,0,0,1,11.08-6.51A16,16,0,0,1,594.06,568.74ZM169.24,455.48l-.91,0c-22.09.82-46.69,25.88-48.46,79-.71,21.43,11.36,39.48,31.51,47.12,16.1,6.11,31.91,4.43,45.86-1.31,14.88-20.25,30.74-45.17,31.67-62.5.71-13.19-6.08-28.09-18.63-40.86C197.56,464,181.21,455.48,169.24,455.48Zm430.69-9.22c7.73,15.6,14,29.94,18,42.43,7.35,23.28,15,57.66,20.25,88.68,3.5-35.43,3.49-107.79,1.59-136.75q-7.31-1.33-14.44-2.83-3.07,1.41-6.32,2.67A135,135,0,0,1,599.93,446.26Zm408.79,105.07a20.6,20.6,0,0,0,4.8.59c12.18.12,28.65-7.74,37.48-15.73.06-15.68-2.76-26.78-8.49-33.58-4.58-5.43-10.93-8-19.38-7.86-6.76.11-13.07,4.53-17.74,12.42a45.18,45.18,0,0,0-2.22,4.26c.23,1.05.45,2.07.68,3.09,1.79,8.23,3.35,15.35,4.65,19.92C1009.7,538.63,1009.61,544.57,1008.72,551.33Zm-7.27-35.54c-3.67,10.7-3.81,22.74.14,30.25a9.91,9.91,0,0,0,4.58,4.37c.82-6.64.79-11.84-.18-15.25C1004.69,530.63,1003.25,524.07,1001.45,515.79Zm132.29,12.45a41.73,41.73,0,0,0,4.79,3.64c15.54,10.19,37.24,13.44,50.69,8-2.55-11.43-4.92-23.08-6.9-34.93a198.18,198.18,0,0,1-2.46-33.19c-8-7.58-18.68-12.52-32-7.25-14.43,5.73-16.68,27.29-16,44.37A177.74,177.74,0,0,0,1133.74,528.24Zm48.73-53.76a197.42,197.42,0,0,0,2.43,30.1c1.94,11.6,4.26,23,6.75,34.24.36-.19.72-.39,1.06-.59,12.6-7.44,5.28-38.06,1.93-45.1A78.84,78.84,0,0,0,1182.47,474.48Zm-158.7,17.65c8.84,0,15.81,2.95,20.74,8.79,5.78,6.86,8.79,17.68,9,32.7a19.05,19.05,0,0,0,2.43-3.31c7.39-13.13,3.82-26.67-11.41-63.41-10.4-25.1,3.64-47.31,21-72.56a158.43,158.43,0,0,0-19.76-20.28l-.21-.23c-5-7-10.08-14.12-15-21.5A156.27,156.27,0,0,1,1007,378a314.16,314.16,0,0,1-40.61,29.47c18.75,25.88,29.14,69.08,35.94,99.89.27-.51.56-1,.85-1.51,5.16-8.71,12.25-13.58,20-13.71ZM84.57,517.31a10.74,10.74,0,0,0,6.17-.14c5.63-1.81,9.17-6.59,9.77-10.37.26-1.67-.09-3-1-3.61-1.38-1-4.15-.54-7.6,1.24C88.8,506.05,86.15,511.55,84.57,517.31ZM56.46,408.81c-17.63,26.75-29.78,50.92-28.31,64.69.9,8.44,7,15.26,10.9,16.44.48.14,1.35.31,1.73-.15,1.36-1.68,3-5.09,5-9.41,6.86-14.6,18.34-39,44.43-48.36,10.1-3.61,15.07-8.72,14.77-15.19a17.66,17.66,0,0,0-2.1-7.18,52.12,52.12,0,0,1-16.17,4.52A56.82,56.82,0,0,1,56.46,408.81Zm150.77,37.78c16.15,2.57,29,4.14,33.67,2.44,6.49-2.33,12.7-7.25,20.56-13.47,11.59-9.18,26-20.6,49.38-30.34,12.28-5.12,55.49-20.7,107.53-32.34a228.91,228.91,0,0,1-15.55-36.58c-8.77,4.69-17.49,9.15-26.06,13.3-38,18.43-88.95,38.7-128.72,38.7a93.87,93.87,0,0,1-17.43-1.51c-16.43-3.09-28.39-11-35.55-23.54-9.79-17.14-10-33.51-.49-48.67,12.58-20.15,42.65-37.7,84.68-49.42,37.41-10.43,81.39-15.25,117.66-12.9,26.79,1.74,51.14,15.55,72.65,41.16,11.7-7.74,22.93-15.6,33.38-23.39-20.3-44.76-32.44-86.31-23.46-116.19C484,138.67,494,127.07,509,119.38c13.35-6.84,33.62-16.23,55.48-18.75,24.22-2.79,45.22,3.58,62.43,18.94.68.6,1.35,1.21,2,1.82C648,95.85,667.14,75.14,689.58,65.8c-16.72-7.48-33.87-12.6-50-14.61-46.91-6.34-91.53,3.35-140.83,15.67C449.34,79.53,403.7,97.37,355.13,123c-17.12,9.13-36.69,20.9-51.95,38.94a66.77,66.77,0,0,0-11.64,19.91c19.94-9.3,41.15-15.83,64.15-18.13,18.21-2.28,48.74-6.09,62.74,16.31l.06.11C425.42,194,413,205.9,409,209.21c-18.19,13.1-38.14,21.78-56.25,24.5-22.23,3.33-41.3-1.83-56.67-15.36-8-7.43-11.18-17.57-9.09-29.34.13-.75.29-1.5.46-2.26-38.07,18.9-71.63,47.81-104.47,76.1-6.72,5.78-13.66,11.76-20.51,17.54-7.89,6.65-27.85,28-50.06,54.5,6.76,5.29,12.86,11.48,17.06,18.24,7.37,11.88,7.28,23.57-.25,33.8-1.57,2.13-3.18,4.13-4.83,6a176.63,176.63,0,0,0,21.8,13C166.18,415.91,188.5,430.06,207.23,446.59Zm483.36-1.45c14.48,1.47,29.3,2.51,44.38,3.11,72.6,2.86,142-5.15,185.63-21.46a264,264,0,0,0,41.92-20.1,59.83,59.83,0,0,0-11.7-11.63c-24.29-17.7-72-27.76-124.6-26.23-54.57,1.58-99.67,15.29-120.66,36.67C699.79,411.39,694.69,426.36,690.59,445.14Zm-150.89,2c18.7,1.67,38.2,1.06,56.39-2.71q-3.9-7.76-8.22-15.9a367.12,367.12,0,0,1-60.31-22.92l-2.31-1.15c1.91,5.82,3.61,11.18,5.1,15.9,2.34,7.38,4.18,13.21,5.5,16.32C536.85,439,538.16,442.61,539.7,447.13ZM422.33,374.69c13.63,24.46,31.89,46,51.82,55.64,16.49,8,38.85,14.09,62.69,16.53-1.35-3.92-2.5-7-3.4-9.17-1.37-3.22-3.13-8.81-5.58-16.55-1.71-5.39-3.67-11.6-5.94-18.4q-31.06-16.22-51-36.71C454.48,368.25,438.09,371.26,422.33,374.69ZM642.19,438.4c14.77,2.65,30.07,4.81,45.8,6.47,4.57-20.82,10-35.43,15.71-41.2,21.44-21.86,67.22-35.86,122.45-37.46,53.1-1.54,101.47,8.71,126.21,26.73a62.58,62.58,0,0,1,12.41,12.41A310,310,0,0,0,1005.25,376a154.3,154.3,0,0,0,23.86-26,215,215,0,0,1-19-35.31c-.75-2.22-1.48-4.35-2.22-6.49-4.67-13.55-9.5-27.56-8.35-42.52.81-10.43,6.43-20.39,14.33-25.38a21.79,21.79,0,0,1,20.11-1.93c12.22,3.64,21,11.67,25.42,23.23,6.57,17.23,2.94,41.8-9,61.13-6.31,10.1-12.07,19.12-18.09,27.36,5,7.59,10.19,14.89,15.34,22.09a160.72,160.72,0,0,1,19.47,19.91c.32-.45.63-.91.94-1.36,7.22-10.48,14.69-21.31,21.08-33.11,13.55-25,32.13-74.47,42.86-123.77-8.1.15-16.69-2-25.63-6.46-21.79-10.89-45.61-35.61-65.33-67.82A244.72,244.72,0,0,1,1024.59,128l-1.76-.46c-12.23-3.16-22.79-5.89-31.48-8.4-30.55-8.55-94.14-26.35-142.7,1.73-16.73,9.66-31.24,23.56-43.06,37.72,49.06,50.86,104.11,114,98.32,154.2-1.68,11.69-8.47,20.9-20.16,27.36-29.36,16.23-62.11,12.39-87.62-10.28-15-13.35-26.17-32.08-31.37-52.75a105.52,105.52,0,0,1,4.48-66c3.18-7.8,14.74-30.17,32.86-52.33-8.94-9.25-17.67-18.08-25.75-26.25-8.29-8.4-16.13-16.33-22.66-23.16-17-17-38.4-31.59-60.75-42C669.94,76,650.38,97,630.82,123.2c34.47,32.89,47.55,74.55,55.47,99.81,1.16,3.69,2.17,6.89,3.11,9.63h0C696,251.88,701,318,672.8,389.25a85.17,85.17,0,0,1-31.7,39.65c.14.8.26,1.61.38,2.42C641.74,433.09,642,435.49,642.19,438.4Zm-50.84-8.88q3.85,7.31,7.38,14.34A134.11,134.11,0,0,0,618,438c1-.38,1.94-.77,2.89-1.17Q605.65,433.54,591.35,429.52Zm37.83,6.4q5.13,1.05,10.35,2c-.19-2.53-.41-4.63-.64-6.22l-.18-1.21A105.77,105.77,0,0,1,629.18,435.92Zm-39.52-9.6q17,4.86,35.31,8.73a102.69,102.69,0,0,0,13.25-7.37c-4.19-21.91-16.07-38.55-35.34-49.49C589.5,370.6,573.1,366.05,555,363.81q3.09,5.47,6.14,10.9C571.13,392.52,580.94,409.91,589.66,426.32ZM553.39,361c18.93,2.16,36.46,6.78,50.78,14.91,19.65,11.15,31.88,28,36.4,50.16a82.7,82.7,0,0,0,29.8-37.79C701,310.76,691,245.49,686.92,233.49h0c-.95-2.78-2-6-3.12-9.7-7.83-24.95-20.74-66.08-54.56-98.47-7.72,10.44-15.46,21.65-23.43,33.2-24.77,35.89-50.38,73-84.3,100.43-4.87,3.93-10,7.92-15.33,11.92C519.68,300.34,536.66,331.21,553.39,361Zm-29.32,39.9q2.29,1.18,4.65,2.35a361.53,361.53,0,0,0,57.43,22c-8.4-15.72-17.76-32.33-27.33-49.31l-7.07-12.55a278.66,278.66,0,0,0-42.07-1C515.46,376.12,520.19,389.33,524.07,400.91ZM57.92,406.62c13,6,28.55,7.73,43.66.74-5.15-8.28-15.55-17.05-27-24.47C68.73,390.87,63.1,398.84,57.92,406.62Zm18.23-25.83c11.68,7.59,22.35,16.66,27.75,25.43a63.19,63.19,0,0,0,16.63-12.91,188.64,188.64,0,0,1-31.74-29.18C84.51,369.64,80.27,375.21,76.15,380.79ZM32.82,365c-1.72,0-2.66.38-3,.9-5.44,8.93,3.2,25,19.26,35.75a68.26,68.26,0,0,0,6.47,3.82c5.38-8.08,11.09-16.17,16.83-24C60.58,374.09,47.94,368.25,39,366A25.54,25.54,0,0,0,32.82,365Zm441.32.6q18.54,18.52,46.57,33.54c-3.77-11.14-8.33-23.66-13.82-36.57C496.12,363.14,485.14,364.19,474.14,365.6Zm-383.8-3.45a180.34,180.34,0,0,0,31.9,29.28q2.48-2.81,4.87-6.06c6.94-9.42,7-19.81.13-30.86-4-6.47-9.95-12.46-16.52-17.59C104,345,97.13,353.47,90.34,362.15ZM377.6,254.27c-70.81,0-156.83,23.29-180.81,61.7-8.92,14.27-8.73,29.74.55,46,6.76,11.84,18.12,19.33,33.76,22.27,22.4,4.22,65.66,1.23,144.52-37,8.68-4.2,17.52-8.72,26.4-13.48a165.24,165.24,0,0,1-4.73-19.12c-3.2-17.73-1.84-30.76,3.82-36.68,4.48-4.69,9.2-6.48,14-5.33,13,3.1,22.72,26.93,26.68,38.39,8.67-5.27,17.23-10.68,25.55-16.15-21-24.89-44.66-38.31-70.62-40C390.53,254.47,384.13,254.27,377.6,254.27Zm27.53,80.79A218.44,218.44,0,0,0,421,372.29q8.91-1.95,18.1-3.73c9.32-1.79,19.24-3.47,29.51-4.9q-19.89-21.33-27.7-46.91c-.11-.36-.3-1-.57-1.8C428.72,322,416.89,328.72,405.13,335.06Zm37.53-21.5c.33,1,.59,1.83.77,2.43q7.85,25.75,28.39,47.24c11.08-1.47,22.52-2.62,34-3.24a327,327,0,0,0-19.07-37.64A210.12,210.12,0,0,0,469,296.9C460.45,302.55,451.62,308.12,442.66,313.56Zm81.77,45.9c8.74,0,17.38.37,25.77,1.21-16.36-29.16-32.9-59.32-46.15-88.2-10.29,7.65-21.32,15.37-32.81,23A214.27,214.27,0,0,1,489,321a332,332,0,0,1,19.61,38.84C513.87,359.6,519.17,359.46,524.43,359.46ZM73.24,319.28a9.12,9.12,0,0,0-1.55.12c-.91.16-2.15.64-2.49,3-.92,6.35,5.86,21.27,19.43,37.76,6.67-8.52,13.42-16.86,20-24.77C95.47,325.58,80.37,319.28,73.24,319.28ZM1025.7,239.4a19.29,19.29,0,0,0-10.41,3.11c-7.23,4.57-12.37,13.74-13.12,23.37-1.11,14.42,3.63,28.17,8.22,41.47q1.11,3.21,2.19,6.43a210.73,210.73,0,0,0,18.19,34c5.77-8,11.33-16.67,17.4-26.39,11.56-18.67,15.1-42.31,8.8-58.82-4.17-10.94-12.16-18.23-23.76-21.67l-.1,0A20.51,20.51,0,0,0,1025.7,239.4ZM803.92,160.67c-17.78,21.8-29.13,43.76-32.26,51.44a103,103,0,0,0-4.36,64.42c5.08,20.15,15.93,38.42,30.57,51.43,11.61,10.31,25.11,16.85,39.06,18.92,15.33,2.28,30.66-.74,45.55-9,10.94-6,17.28-14.61,18.84-25.44C906.94,273.47,852.55,211.08,803.92,160.67ZM412.3,274.91c-3.12,0-6.19,1.6-9.3,4.86-5,5.22-6.14,17.76-3.14,34.41a163.15,163.15,0,0,0,4.48,18.34c11.74-6.35,23.55-13.1,35.17-20.11-3.56-10.35-13-34.39-25-37.24A9.89,9.89,0,0,0,412.3,274.91Zm163-172.3a92.37,92.37,0,0,0-10.52.62c-21.43,2.47-41.42,11.73-54.59,18.48-14.35,7.35-23.83,18.42-28.18,32.88-8.73,29.06,3.15,69.8,23.09,113.84,5.14-3.87,10.09-7.72,14.79-11.52,33.63-27.18,59.14-64.14,83.8-99.88,8-11.65,15.86-23,23.66-33.52-.71-.67-1.44-1.33-2.18-2A72.73,72.73,0,0,0,575.27,102.61ZM290.46,185.28c-3.13,11.35-1.71,22.74,7.37,31.13,21,18.5,60.87,25.8,109.57-9.26,3.52-3,14.78-13.66,8.78-25.78-12.12-19.31-36.38-18-60.19-15C332.46,168.68,310.81,175.53,290.46,185.28ZM1028,128.91c15,34.3,46.45,79.59,79.57,96.14,8.83,4.41,17.19,6.49,25,6.25,4.8-22.65,7.9-45.17,8-65.19C1110.51,150.6,1064.14,138.27,1028,128.91Zm115.26,38.58c-.27,20.89-3.66,43.31-8,63.63,10.89-1.11,20.74-6.86,29.46-17.21,6.12-7.27,8-14.15,5.82-21C1167.6,183.63,1157.46,175.18,1143.22,167.49Zm27.43-11.9a.79.79,0,0,0-.31,0c-.29.54-.39,3.81,12,21.34,7.89,11.14,18.68,25.07,29.27,38.69a141.53,141.53,0,0,0-4.11-18c-6.88-22.76-18.88-36.82-35.64-41.79A4.71,4.71,0,0,0,1170.65,155.59Zm-144-29.72c37.73,9.75,83.5,21.78,113.93,37.21a147.74,147.74,0,0,0-1.8-22.77c-3.15-19.16-16.73-37-39.25-51.45a185.39,185.39,0,0,0-41.65-19.51q-7.42-.22-15.08.17c-13.93,1.39-21.46,13-23.66,22.53C1017.6,98.77,1020.52,111.15,1026.66,125.87ZM696.46,66.12C718.22,76.62,739,91,755.57,107.56c6.53,6.83,14.36,14.75,22.64,23.14,8,8.12,16.69,16.88,25.57,26.06,12-14.31,26.65-28.35,43.55-38.12,49.53-28.63,113.83-10.62,144.73-2,8.63,2.49,19.13,5.2,31.28,8.34-5.8-14.41-8.37-26.48-6.74-33.54,2.59-11.19,11.63-23.13,26-24.56,2.23-.12,4.45-.19,6.66-.23-30.17-8.67-60.49-10.5-79-5.49C932.83,71.3,837.06,80.35,726.59,63.85A66,66,0,0,0,696.46,66.12Z"/></svg>