<?xml version="1.0" encoding="utf-8"?>
<!-- Generator: Adobe Illustrator 25.4.1, SVG Export Plug-In . SVG Version: 6.00 Build 0)  -->
<svg version="1.1" id="Layer_2_00000178184579873330329170000008996989870904113308_"
	 xmlns="http://www.w3.org/2000/svg" xmlns:xlink="http://www.w3.org/1999/xlink" x="0px" y="0px" viewBox="0 0 747.3 462"
	 style="enable-background:new 0 0 747.3 462;" xml:space="preserve">
<path d="M742.6,341.4c-1.5-0.8-2.9,0.4-3.5,0.8c-6.2,5.1-14.5,10-21.4,12.5c-2.6-6.4,0.3-15.5,5-30.2c6.7-21.1,16.8-53.1,20.8-106
	c8.2-109.4-47.6-139.3-68.6-150.5c-3.1-1.7-6-3.2-6.7-4.1c-9.5-11.8-20.9-20.7-33.9-26.2c-10.4-4.4-21.3-6.7-32.6-7
	c-18.9-6.2-39.1-8-51.6-4.6c-14.8,4-68.6,12.1-139.5,1.5c-6.6-1-13.4-0.4-19.7,1.8c-10.4-4.7-20.9-7.9-30.5-9.1
	c-27.5-3.7-53.5,1.9-82.1,9.1c-28.6,7.3-55.1,17.7-83.4,32.6c-10.1,5.4-21.6,12.3-30.7,23.1c-3.3,3.9-5.8,8.4-7.4,13.3
	c-22.5,11-42.4,28.1-61.6,44.6l-0.1,0.1c-3.8,3.3-7.8,6.7-11.7,10c-4.3,3.7-15.5,15.5-28.6,31.1c-8.2-5.9-18.1-9.9-22.5-9.1
	c-1.9,0.3-3.2,1.7-3.5,3.8c-0.7,4.8,3.8,13.9,11.5,23.3l-1.7,2.2c-1.6,2.1-3.2,4.2-4.8,6.4c-6.7-4.2-14.1-7.5-19.3-8.9
	c-2.7-0.7-6.5-1.3-8,1.1c-3.9,6.3,1.5,17,11.8,24c0.9,0.6,1.9,1.2,2.9,1.7C9.6,246.1,4.2,258.8,5,266.4c0.7,6.5,5.2,10.8,8.1,11.6
	c2.1,0.6,3.3-0.4,3.7-0.9c0.9-1.2,1.8-3,3.2-5.9c3.8-8.1,10.1-21.6,24.2-26.6c7-2.5,10.4-6.3,10.2-11.3c-0.1-1.5-0.5-2.9-1.1-4.2
	c3.3-1.9,6.3-4.2,8.9-7c3.9,2.7,8,5.2,12.3,7.3c10.6,5.3,20.7,11.7,30,19.2c-0.6-0.1-1.2-0.2-1.7-0.3l-1-0.2
	c-20.9-3.5-46.8-7.9-57.4-2.4C26.7,255,22.6,270,25.5,277.2c2.3,5.8,6.5,12.9,11.6,15.7c-0.4,1.9-0.5,3.8-0.4,5.8
	c0.1,1,0.4,2.3,0.7,3.9c1.1,5.1,2.7,12.9,0.9,19.8c-2.5,9.4-0.6,17.9,0.8,24.1c0.6,2.6,1.3,5.6,1.1,7.4c-0.7,6.7,4.4,19.3,12.8,23.1
	c0.9,0.4,1.9,0.7,2.9,0.8c1.3,1.7,4.9,5.7,10.4,5.7c1.3,0,2.6-0.2,3.8-0.7c0.3,1.2,1.3,2.1,2.6,2.4c0.3,0.1,0.5,0.1,0.8,0.1
	c6.6,0,20.3-13.8,22.8-17.6c2.4-3.8-0.1-7.9-2.2-11.6c-1.6-2.7-3.2-5.5-2.3-7c0.6-1,2.7-3.7,4.8-6.3l0.1-0.1
	c2.6-3.3,6.2-7.8,9.8-12.7c7.7-3.2,14.9-8.7,20.8-15.9c7.4-8.9,10-18.7,7.8-29.2c-2.1-10-8.6-20.4-19.4-30.9
	c7.2,1,12.5,1.4,15.2,0.5c4.2-1.5,8.1-4.6,12.6-8.2c6.5-5.2,14.7-11.7,27.9-17.2c8.6-3.6,32.5-12.1,61.3-18.5c0.6,1,1.2,2,1.7,3
	c6,10.1,15.9,23.5,29.1,29.8c10,4.8,23.4,8.4,37,9.8c5.2,15.6,14.5,47.3,21.3,70.6l0.7,2.4c-2.1,2.8-3.5,6.5-4.1,10.6
	c-1.4,10,2.3,20.8,8.3,24.5c1.3,0.8,2.8,1.3,4.3,1.5c0.4,8.6,0.1,25-5.9,44.3c-1.6,5.1-2.3,9.6-2.2,13.5c-1,0.3-1.9,0.8-2.7,1.4
	c-6.7,4.7-15.6,17.1-21.8,26.6c-1.7,2.6-0.8,4.6-0.1,5.5c4.1,5.7,24.6,5.1,31.6,3.1c9.5-2.7,14.7-12.3,15.4-16.9
	c0.1-0.7,0.4-1,2.2-1.9c3.7-1.8,7-4.5,9.5-7.8c2.1-2.5,3.1-5.8,2.8-9c1.4-1.6,2.5-3.3,3.2-5.3c0.8-2,1.2-4.5,1.1-7.6
	c2.3-0.2,4.3-0.4,6.1-0.7c6.7-1,22.6-4.4,24.1-13.9c0.4-2.7,0.4-5.4,0-8.1c6.2-8.6-6.4-54.7-9-64c-2.9-10.1-0.7-45.1,4.3-69.7
	c8.2,0.8,16.6,1.4,25,1.7c42.2,1.7,82.6-3,108-12.5c8.3-3.1,16.3-6.9,23.9-11.4c10.9,15.6,16.9,42.7,20.2,57.6
	c-3.1,7.3-3.3,16.1-0.5,21.4c0.8,1.5,2,2.7,3.5,3.5c-1.3,7.9-4.3,18.7-8.7,30.5c-6.6,17.9-14.6,33.8-19.1,37.8
	c-3.2,2.7-5.5,6.2-6.9,10.2c-10.3,4.9-26.7,17.2-31,23.3c-1.1,1.3-1.2,3.1-0.2,4.5c4.4,6.1,34.9,5.4,47.9,1.3
	c6.2-2,10.2-6.6,12.4-10.4c0.1,0,0.2,0,0.3,0c5.1,0.3,10.9-3.8,15.4-10.9c5.7-9,9.8-32.3,13.8-54.8l0-0.2c1-5.8,2.1-11.8,3.1-17.4
	c1.7-8.9,2.6-16.7,2.7-23.1c1-1,1.9-2.1,2.6-3.3c5-9,2.1-18.2-6.4-38.8c-5.2-12.5,1.1-23.7,10.8-38c12.7,16.7,19,36.7,23.5,54.3
	c3.1,9.4,7.3,16.5,12.4,21.3c1.2,7.6,3,15,5.6,22.2c6,18.1,9,33.9,9,48.4c-0.7,11.8-2.7,23.5-4.7,35.9l-0.6,3.3c0,0,0,0,0,0
	c-1.5,1-3,2.1-4.5,3.2c-5.4,3.8-7.6,9.2-9.7,14.6c-1,2.7-2.2,5.4-3.6,7.9c-2.2,3.6-5.1,6.6-8.1,9.5l-0.3,0.4
	c-0.8,1.6-1.9,3.8-0.7,6.2l0.2,0.2c6.6,8.2,17.5,8.2,26.3,8.2h0h0c3,0,5.9-0.9,8.6-2.6l0.2-0.1c6.9-6.4,6.9-14.9,7-23.2v-1.3
	c0.8,0.1,1.6,0.1,2.4,0c6.5,0,11.8-4.1,15.9-12.3c0.4-0.8,0.8-1.9,1.2-2.8c0.4-0.9,0.7-1.8,1.1-2.5l0.1-0.4c1-3.8,1.8-9.1,0.7-13.3
	c1.6-2.1,2.9-4.4,3.8-7c1.6-5.5,1.6-11.8,1.6-17.8l0-0.2c-1.8-18.6-6-36.4-10.2-53.5c-1.4-5.7-2.6-10.9-3.8-16.2
	c0.1-0.1,0.3-0.2,0.4-0.2c8.7-5.1,4.6-24,2.1-29.2c-2.1-4.5-4.9-8.6-8.3-12.2c0.4-16.4,4.7-32,9.4-46.4c2.3-8.2,9.2-38.4,10.4-68.2
	c0.4-7.8,0.3-15.6-0.4-23.4c2.3,3,4.8,6.2,7,9.2c11.1,14.9,3.4,40.5-4.7,67.6l-0.2,0.7c-2.9,9.7-6,19.8-8.2,29.8
	c-3.6,15.9-3.5,42.8,0.2,70.3c1.8,13,4.2,24.8,7,34.1c3.1,10.4,6.5,17.3,10.2,20.6c2.1,1.9,5.9,2.1,11.2,0.5c0,0.1,0.1,0.1,0.1,0.2
	c2.8,3.8,6.5,5.4,10.4,4.4c8.8-2.2,16.6-15.7,17.1-19.6C743.9,342.4,743.1,341.7,742.6,341.4z M738.9,346.8
	c-2.1,4.1-6.6,10.5-11.5,12.8c-3.2,1.5-5.7,0.9-7.9-1.8C725.7,355.4,732.9,351.3,738.9,346.8z M703.4,133.3
	c-3.2-4.3-7-9.2-10.6-13.7c-0.6-4.4-1.5-8.9-2.8-13.2c-4.2-14-11.7-22.7-22.2-25.8c-2.1-0.6-3.2,0.1-3.7,0.9
	c-2.2,3.2,3.6,11.5,24.7,38.7l0.6,0.8c1.1,8.2,1.4,17.8,1,28.5c-1.2,29.3-8,59.2-10.3,67.3c-4.4,13.8-8.6,28.7-9.4,44.4
	c-5.7-4.3-11.9-5.1-18.5-2.5c-7.7,3-11.4,12.7-10.8,28c0.1,2,0.2,4.1,0.4,6.3c-3.2-4.1-6-9.6-8.2-16.2c-4.7-18.2-11.3-39-24.8-56.3
	l0.9-1.3c4-5.9,8.2-11.9,11.8-18.6c7.4-13.7,15.9-36.6,21.7-58.5c1.2-4.5,2.3-8.9,3.2-13.2c6.8-0.8,13-4.4,18.4-10.7
	c4.1-4.8,5.4-9.7,3.8-14.5c-1.8-5.7-7.4-11-17.1-16.2c0-4.6-0.4-9.2-1.1-13.7c-1.9-11.8-10.2-22.6-23.8-31.4
	c-4.1-2.6-8.4-4.9-12.9-7c6.5,1.1,12.9,2.9,19,5.5c12.5,5.3,23.4,13.8,32.5,25.2c1.1,1.4,3.6,2.7,7.7,4.9l0.2,0.1
	c20.4,11,74.8,40.1,66.7,147.2c-3.9,52.6-14,84.3-20.7,105.3c-4.9,15.4-7.9,24.9-5,32.4c-3.5,0.9-6.1,1-7.1,0
	c-13.7-12.2-23.9-88.3-16.3-121.5c2.3-10.2,5.4-20.4,8.4-30.3C707.6,176,715.6,149.6,703.4,133.3z M686.6,107.4
	c0.6,2,1.1,4.1,1.6,6.2c-5.6-7.2-10.5-13.6-14.3-19c-4.3-6.1-5.9-9-6.5-10.4C676.4,87.1,682.9,94.9,686.6,107.4z M666.2,83.6
	l0.1-0.3l0,0.1l0,0.4C666.2,83.8,666.2,83.7,666.2,83.6z M683.3,415.7c-0.3,0.8-0.7,1.7-1,2.3c-3.4,6.9-7.8,10.3-12.9,10.3
	c-0.7,0.1-1.5,0-2.2-0.1c0.1-2.5,0.4-5,1-7.4l2-4.1c2.4-2.2,4.9-4.4,7.5-6.3c2.6-2,5.3-4.1,7.8-6.5c0.2,2.4-0.2,5.4-1,8.9
	c-0.4,0.7-0.7,1.6-1,2.4L683.3,415.7z M651.4,455.5c-8,0-17.8,0-23.4-6.7c-0.2-0.6,0.1-1.4,0.7-2.6c3.1-3.1,6.1-6.2,8.4-10
	c1.5-2.7,2.8-5.5,3.9-8.4c2-5,3.9-9.8,8.4-13c0.8-0.6,1.6-1.1,2.3-1.7c0.3,5,2.3,9.7,5.6,13.5c1.7,1.9,3.9,3.4,6.2,4.3v2.1
	c-0.1,7.8-0.1,15.2-5.7,20.5C655.9,454.8,653.7,455.4,651.4,455.5z M664.9,419.5l-0.1,0.3c-0.6,2.4-0.9,4.9-1.1,7.4
	c-1.4-0.7-2.7-1.7-3.7-2.8c-3.3-3.7-5-8.6-4.8-13.6c8.8-6.1,16.5-10.7,25.7-13.6c1.4,0.3,2.6,1.1,3.3,2.3c0.1,0.1,0.2,0.3,0.3,0.4
	c-2.5,2.8-5.5,5.1-8.7,7.6l-0.2,0.2c-2.8,2.1-5.5,4.4-8.1,6.8l-0.2,0.2L664.9,419.5z M681.2,393.7l-0.4-0.1l-0.4,0.1
	c-9.4,2.9-17.3,7.6-24.4,12.4l0,0c2.1-12.5,4.1-24.3,4.8-36.4c0-14.9-3-31.1-9.2-49.6c-2-5.8-3.6-11.8-4.8-17.9
	c9.1,5.8,21.3,7.9,29.8,5.1c1.2,5.2,2.4,10.3,3.7,15.6l0,0.1c4.3,17.8,8.3,34.6,10.1,52.8c0,5.8,0,11.8-1.4,16.7
	c-0.6,1.6-1.3,3-2.2,4.4C685.4,395.2,683.4,394,681.2,393.7z M653.5,261.9c6.1-2.4,11.8-1.2,17.1,3.7c0,6.3,0.4,12.6,1.4,18.9
	c1,6,2.2,12.3,3.8,19.3c-7.6,2.6-19.2,0.6-27.5-4.8c-0.8-0.5-1.6-1.1-2.4-1.8c-0.5-3.5-0.9-7.1-1-10.7
	C644.6,277,645.8,265,653.5,261.9z M679.1,302.3c-1.5-6.7-2.6-12.7-3.6-18.3c-0.8-4.7-1.2-9.6-1.3-14.4c2,2.6,3.7,5.4,5.1,8.3
	C681,281.6,684.9,297.7,679.1,302.3z M566.3,406.2c2.6-6,3.2-12.2,2.3-15.5c-0.7-2.7-2.5-3.4-3.9-3.1c-3,0.7-5.9,3.2-7.4,6.4
	c-1.6,3.4-1.5,7.4,0.2,10.7c0.8,1.7,2,3.1,3.6,4c-2.6,4.1-6,6.9-10.1,8.2c-15,4.7-41.5,3.4-44,0c0,0,0-0.1,0.2-0.3
	c3.6-5.1,17.6-15.7,27.3-21c-0.1,2,0.2,3.8,0.9,5.2c1.6,3.3,5,4.7,9.4,3.9c7.7-1.5,7.2-6.9,7-8c-0.7-4.1-5.3-8.3-10.6-7.6
	c-0.4,0.1-0.8,0.1-1.2,0.2c1.2-2.2,2.8-4.1,4.6-5.8c5.8-5.2,14.2-23.4,20-39.2c2-5.5,6.9-19.4,8.8-30.7c0.7,0.1,1.4,0.2,2.1,0.2h0.2
	c6.6,0,14.8-3.6,20.2-7.5c-0.4,6.5-1.2,13-2.5,19.4c-1.1,5.6-2.1,11.6-3.1,17.4l0,0.2c-3.9,22.1-7.9,45.1-13.3,53.5
	C573.9,402.2,569.8,405.6,566.3,406.2z M560.7,403.1c-1.2-2.4-1.3-5.2-0.2-7.6c1-2.1,2.8-3.7,4.6-4.3c0.1,0.1,0.1,0.3,0.1,0.4
	c0.6,2.3,0.2,8.2-2.4,14C561.9,405,561.1,404.2,560.7,403.1z M548.4,397.2c0.4,2.7-2.5,3.6-4.2,4c-1.9,0.4-4.4,0.3-5.6-2
	c-0.7-1.4-0.8-3.4-0.3-5.6c1.1-0.5,2.2-0.8,3.4-1.1C545,392.2,548,394.7,548.4,397.2z M585.7,191.9c-3.7-5.8-6.9-11.9-9.6-18.1
	c-0.4-1.2-0.8-2.5-1.3-3.7c-2.6-7.6-5.3-15.4-4.7-23.5c0.4-5.3,3.2-10.2,7.1-12.7c1.6-1.1,3.5-1.6,5.5-1.6c1.3,0,2.7,0.3,3.9,0.8
	l0.2,0.1h0c6.3,1.9,10.6,5.9,12.9,11.9c3.5,9.2,1.5,22.5-5,33C592,182.6,588.9,187.4,585.7,191.9z M573.8,301
	c-0.8-2.7-1.7-7.1-2.7-11.4l-0.3-1.4c0.3-0.7,0.7-1.4,1.1-2.1c2.5-4.2,5.8-6.6,9.4-6.7c4.6-0.1,8,1.3,10.4,4.2
	c3.1,3.6,4.6,9.8,4.7,18.3c-4.8,4.2-13.8,8.5-20.5,8.5c0,0-0.1,0-0.1,0c-0.6,0-1.1,0-1.7-0.1C574.5,306.3,574.4,303.2,573.8,301z
	 M568.7,294.8c0.7,3,1.2,5.4,1.7,7.2c0.4,1.5,0.5,3.8,0.2,6.8c-0.4-0.4-0.7-0.8-0.9-1.2C568.1,304.4,567.7,299.6,568.7,294.8z
	 M581.6,275.9L581.6,275.9l-0.4,0c-4.4,0.1-8.5,2.6-11.6,7.1c-3.1-14-9.1-39.4-19.7-54.7c7.9-4.9,15.5-10.5,22.6-16.5
	c4.8-4.1,9.1-8.8,12.9-13.8c2.6,3.9,5.3,7.6,7.9,11.2l0.3,0.3c3.9,3.3,7.5,7,10.8,11c-10.7,15.6-17.7,27.9-11.8,42.2
	c8.4,20.2,10.6,28,7,35c-0.5-7.3-2.2-12.7-5.3-16.4C591.3,277.8,587,275.9,581.6,275.9z M596.1,207.1c-2.9-4-5.7-7.9-8.4-12
	c3.2-4.4,6.2-9.1,10.1-15.3c7-11.4,9.2-25.9,5.3-36.1c-2.7-7-8-11.8-15.2-14c-4.1-1.7-8.8-1.2-12.5,1.2c-4.8,3-8.2,9.1-8.7,15.4
	c-0.7,8.8,2.1,17,4.9,24.9c0.4,1.2,0.8,2.5,1.3,3.8c2.9,6.9,6.5,13.6,10.7,19.9c-3.9,5.2-8.3,10-13.2,14.3c-7,6-14.6,11.5-22.4,16.4
	c-2-2.5-4.3-4.7-6.8-6.6c-14.4-10.5-42.6-16.5-73.4-15.6c-32.1,0.9-58.8,9.1-71.3,21.9c-4.1,4.2-7.2,14.8-9.1,23.4
	c-8.4-0.9-16.7-2.1-24.7-3.5c-0.1-1.6-0.3-2.7-0.4-3.4c0-0.3-0.1-0.5-0.1-0.8c8.2-5.7,14.5-13.6,18.1-23c16.4-41.3,13.4-79.8,9.6-91
	c-0.5-1.5-1.1-3.3-1.8-5.5c-4.5-14.4-12-38.3-31.6-57.4c9.3-12.4,20.7-25.7,34.5-31c13,6.1,24.9,14.3,34.3,23.8
	c3.5,3.7,7.8,8,12.2,12.5l0.9,0.9c4.3,4.4,9.2,9.3,14.2,14.5c-10.6,13.2-17,25.9-18.5,29.7c-5,12.2-5.9,25.9-2.6,38.7
	c3,12.1,9.6,23.1,18.4,30.9c15,13.4,34.4,15.6,51.7,6.1c7-3.9,11.1-9.4,12.1-16.5c3.4-23.5-28.2-59.9-56.3-89.1
	c7.7-9.1,15.7-16.1,24-20.8c27.6-16,64-5.8,81.5-0.9c5.1,1.5,11.1,3,18.2,4.9l0.5,0.1c2.7,6.2,5.8,12.2,9.4,17.9
	c11.5,18.7,25.3,33.1,38.1,39.5c4.8,2.4,9.5,3.7,14,3.8c-6.4,29-17.1,56.5-24.4,69.9c-3.6,6.6-7.8,12.8-11.9,18.7
	C603.4,213.8,599.9,210.3,596.1,207.1z M415.1,250.6c-8.2-0.3-16.4-0.9-24.4-1.7c2.5-11,5.3-18.4,8.1-21.3
	c11.9-12.1,37.7-19.9,68.9-20.8c30.1-0.9,57.4,4.8,71.2,14.9c2.2,1.6,4.1,3.5,5.9,5.6c-7.3,4.3-15.1,8-23,10.9
	C496.8,247.7,456.9,252.3,415.1,250.6z M390.7,384.2c-5.1-1.2-9.2-4.4-10.6-8.2c-0.7-2-0.6-3.8,0.5-5.2c0.1-0.2,0.4-0.3,0.6-0.3
	c0,0,0,0,0,0c0.3,0,0.6,0.1,0.9,0.2C385.1,371.9,389.1,377.3,390.7,384.2z M392.9,379.4c-2.2-5.7-5.9-10.5-9.5-12
	c-2.3-1-4.4-0.5-5.7,1.3c-1.7,2.4-2,5.4-0.9,8.5c1.9,5,7.2,9.1,13.6,10.5c0.3,0.1,0.6,0.1,1,0.1c0.2,2,0.1,3.9-0.2,5.9
	c-0.8,4.9-8.9,9.1-21.2,11c-1.9,0.3-3.9,0.5-5.8,0.7c-0.5-4.5-1.6-9.8-2.7-15.3l-0.5-2.6c-0.7-3.3-1.4-6.8-2-10.4l-0.4-2.4
	c3.7-4.2,5.5-7.9,5.7-11.5c0.3-6-0.8-17.2-3.1-31.7c2.5-17,2.7-62.5,1.6-82.7c7.6,1.3,15.6,2.5,23.7,3.3c-1.3,6.2-2.4,13.1-3.3,20.6
	c-2.7,21.9-3.1,42.7-0.8,50.4C388.3,343.9,393.4,368.7,392.9,379.4z M301.3,452.1c-0.1-0.2-0.4-0.5,0.3-1.5
	c4-6.1,13.9-20.8,20.9-25.6c0.4-0.2,0.7-0.5,1.1-0.6c1.4,7,6.1,9.4,7.5,9.9c4.2,1.5,8.6,0,10-3.5c1.1-2.7,0.3-5.5-2.3-7.6
	c-3-2.4-7.8-3.7-12.2-3.3c0-3.4,0.7-7.3,2-11.7c6.1-19.7,6.4-36.6,6-45.4c1.4-0.2,2.8-0.6,4.1-1.1c4-1.6,8.2-4.7,11.8-8.7
	c1.7,7.1,3.1,14.3,4.2,20.5c-2,2.1-4.3,4.2-6.5,6.2l-0.4,0.4c-8,7.1-16.2,14.5-12,22.9c2.5,5.1,14.9,6.5,25.2,6.1
	c0,2.5-0.2,4.5-0.9,6.1c-0.3,0.8-0.7,1.5-1.1,2.2c-0.2-0.5-0.5-1-0.7-1.5c-2.2-3.8-5.5-6.2-8.1-5.9c-2.3,0.3-4.2,2.3-4.9,5.2
	c-0.6,2.6-0.3,6.4,2.8,8.4c2.2,1.5,4.9,1.9,7.5,1.1c0.3-0.1,0.6-0.2,1-0.4c-0.3,1.5-0.9,3-1.9,4.2c-3.4,4.4-6.3,5.8-8.3,6.9
	c-1.9,1-3.7,1.9-4.1,4.5c-0.6,3.7-5,11.8-12.9,14C321.3,456.3,303.9,455.6,301.3,452.1z M327,423.4c3.5-0.4,7.4,0.6,9.7,2.5
	c2.1,1.7,1.5,3.1,1.3,3.5c-0.7,1.7-3.2,2.4-5.6,1.6C329.5,429.9,327.7,427.3,327,423.4z M265.1,240.4c-10.1-4.9-20.3-15.7-28.8-30.5
	c9-1.9,17.8-3.5,26.1-4.6c7.6,7.7,17.3,14.7,29,20.8c1.2,3.5,2.2,6.7,3.1,9.6l0.3,1c1.4,4.3,2.4,7.5,3.1,9.3c0.4,1,0.9,2.2,1.4,3.7
	C286.6,248.2,274.5,244.9,265.1,240.4z M78.9,327.6c-11.2-4.2-17.9-14.3-17.5-26.2c1-30,14.7-44.1,26.9-44.6h0.5
	c6.6,0,15.8,4.9,23,12.1c7,7.2,10.9,15.5,10.5,22.8c-0.4,7.8-6.4,19.6-17.9,35.3C95.7,330.5,87.1,330.7,78.9,327.6z M125.8,291.9
	c0.5-8.4-3.6-17.5-11.5-25.5c-8-8.1-18.5-13.4-26.1-13.1c-13.9,0.5-29.3,15.7-30.4,48c-0.4,13.5,7.1,24.8,19.8,29.6
	c7,2.7,15.1,3,23,1c-2.6,3.4-5,6.4-6.8,8.7c-2.5,3.2-4.4,5.5-5.1,6.7c-2,3.3,0.3,7.2,2.3,10.6l0.9-0.5h0l-0.8,0.6
	c1.7,2.9,3.5,6,2.2,7.9c-3.4,5.3-16.7,16.4-19.9,16c0,0,0-0.1,0-0.2c0-0.3-0.1-0.5-0.1-0.8c1.9-1.8,3.1-4.2,3.5-6.7
	c0.1-0.6,0.3-1.4,0.4-2.2l0.1-0.4c1.2-5.6,2-9.7,0.2-11.6c-0.7-0.7-1.7-1.1-2.7-0.9c-2.5,0.4-4.2,3.5-4.9,9.6
	c-0.4,3.5-0.6,7-0.3,10.6c-1,0.5-2.2,0.8-3.4,0.8c-3.3,0-5.7-2-6.9-3.4c0.5-0.4,0.9-0.9,1.2-1.5c1.9-3.7,0.7-10.5-2.1-12.2
	c-1-0.6-2.2-0.4-2.9,0.4c-1.8,1.6-2.7,6.2-1.7,10.3c-6.4-3.4-10.7-13.9-10.1-19.3c0.2-2.3-0.4-5.2-1.2-8.5
	c-1.4-6.1-3.1-13.7-0.9-22.4c2-7.7,0.3-16-0.8-21.4c-0.3-1.5-0.6-2.7-0.6-3.5c-0.1-1.4,0-2.9,0.2-4.3c1.3,0.2,2.6,0.1,3.9-0.3
	c4.4-1.4,6.9-5.1,7.3-8c0.3-1.8-0.3-3.6-1.5-4.5c-1.1-0.8-3.3-1.4-7,0.5c-2.7,1.4-4.3,5-5.1,7.6c-3.9-2.6-7.4-8.7-9.3-13.5
	c-2.5-6.3,2.1-19.1,17.2-27c9.5-5,35.9-0.5,55.2,2.7c3,0.5,5.9,1,8.6,1.4c12.3,11,19.9,22.2,22.1,32.5c2,9.3-0.4,18.2-7.1,26.2
	c-3.9,4.7-8.4,8.6-13.6,11.8C120.6,309.8,125.4,299.5,125.8,291.9z M74,370.7c-0.3,1.1-0.5,2-0.6,2.8c-0.1,0.5-0.2,0.9-0.3,1.3
	c0-1.9,0.2-3.9,0.4-5.8c0.5-3.8,1.3-5.6,1.7-6.3C75.3,363.7,75.1,365.9,74,370.7z M57.4,366.9c0.6,1.7,1.1,4.7,0.1,6.6
	C56.8,371.4,56.8,369.1,57.4,366.9z M41.3,290.7c0.9-2.9,2.2-5.1,3.4-5.7c1.9-1,3-1,3.4-0.8c0.1,0.1,0.2,0.4,0.1,1.1
	c-0.3,1.8-2.1,4.3-5,5.2C42.7,290.6,42,290.7,41.3,290.7z M76,226.3c-4-2-7.9-4.3-11.5-6.8c0.7-0.8,1.4-1.7,2.1-2.7
	c4.6-6.3,4.7-13.4,0.2-20.6c-2.2-3.5-5.3-6.9-9.3-10.1c13-15.4,23.9-27,28.1-30.5c3.6-3.1,7.3-6.2,10.8-9.3l1-0.9
	c18.3-15.7,37.1-32,58.2-42.8c-1,6.8,0.9,12.7,5.7,17.2c9.1,8,20.4,11.1,33.5,9.1c10.6-1.6,22.3-6.7,32.9-14.3
	c2.4-2,10.1-9.3,5.7-18l-0.1-0.1C225,83,207,85.2,196.3,86.6c-11.8,1.2-23.3,4.3-35,9.5c1.4-3.2,3.3-6.2,5.6-8.9
	c8.7-10.3,19.9-17,29.7-22.2c27.9-14.7,54.2-25,82.6-32.3c28.3-7.1,54-12.6,80.8-9c8.3,1,17.4,3.6,26.5,7.4
	c-13,6.2-23.8,18.8-32.6,30.6c-0.1-0.1-0.2-0.2-0.4-0.3c-10.1-9.1-22.5-12.8-36.8-11.2c-12.8,1.5-24.6,6.9-32.3,10.9
	c-8.9,4.6-14.8,11.5-17.5,20.5c-4.6,15.4-0.4,36.7,13.2,67c-5.6,4.1-11.5,8.3-17.8,12.5c-12.4-14.5-26.6-22.4-42-23.4
	c-21-1.4-46.5,1.4-68.2,7.5c-24.5,6.8-42,17.1-49.4,28.9c-5.7,9.1-5.6,18.8,0.3,29.1c4.3,7.5,11.4,12.2,21.2,14.1
	c3.4,0.6,6.8,0.9,10.2,0.9c23.5,0,53.6-12.2,74.7-22.4c4.5-2.2,9.2-4.6,14-7.1c2.2,6.5,4.9,12.9,8.1,19
	c-29.9,6.8-54.6,15.8-60.9,18.4c-13.6,5.7-22,12.3-28.7,17.7c-4.4,3.5-8,6.3-11.5,7.6c-2.6,0.9-10.8-0.2-18.6-1.4
	C101.3,241,88.8,232.7,76,226.3z M14.1,274.7c-1.7-0.5-5.1-3.9-5.6-8.6c-0.7-6.7,4.7-19.1,15.7-35.9c5.4,2.4,11.3,3.4,17.2,2.8
	c3-0.3,5.9-1.1,8.7-2.3c0.4,0.9,0.6,1.9,0.7,2.9c0.2,3.2-2.5,5.9-7.9,7.8c-15.4,5.5-22.2,19.9-26.2,28.4
	C15.8,271.8,14.9,273.7,14.1,274.7C14.2,274.7,14.1,274.7,14.1,274.7z M9.3,204.7c0.1,0,0.3-0.1,0.9-0.1c1.1,0,2.2,0.2,3.3,0.5
	c4.8,1.2,11.7,4.3,18,8.2c-3.1,4.3-6,8.4-8.6,12.2c-1-0.5-1.9-1.1-2.8-1.7C11.5,218.1,6.6,209.4,9.3,204.7z M48.4,227.6
	c-6.9,2.9-14.7,2.7-22.2-0.4c2.5-3.7,5.2-7.6,8.4-11.9C40.8,219.5,45.7,223.8,48.4,227.6z M51.5,226.1c-2.9-4.3-8.1-9.1-14.9-13.6
	c1.8-2.5,3.8-5,5.9-7.8c5,5.7,10.7,10.9,16.8,15.4C57,222.4,54.4,224.4,51.5,226.1z M44.7,201.9c3.3-4.2,6.9-8.6,10.6-13.1
	c3.7,3,6.6,6.2,8.5,9.3c3.7,6,3.7,11.6,0,16.7c-0.7,1-1.4,1.9-2.2,2.7C55.4,213,49.7,207.7,44.7,201.9z M230.4,98.2
	c3,6-2.4,11.5-4.8,13.6c-27.6,19.9-50.1,15.8-61.9,5.4c-5.5-5.1-5.3-11.7-4.1-16.5c12.5-5.9,24.6-9.4,37.1-10.6
	C210.1,88.4,223.7,87.6,230.4,98.2z M221.9,152.7c-3.5,3.7-4.4,11.5-2.5,22c0.6,3.5,1.5,7,2.5,10.3c-4.9,2.6-9.8,5.1-14.5,7.4
	c-45.2,21.9-69.9,23.7-82.7,21.3c-8.7-1.6-15-5.8-18.8-12.4c-5.2-9-5.3-17.6-0.3-25.5c13.7-22,63.4-35.1,103.4-35.1
	c3.7,0,7.4,0.1,11,0.3c14.3,0.9,27.6,8.3,39.3,21.9c-4.1,2.7-8.4,5.4-12.7,8c-2.8-7.8-8.3-19.8-15.7-21.6
	C227.7,148.6,224.7,149.8,221.9,152.7z M345.9,245.3c-2.9,1.1-5.8,1.9-8.8,2.6c-0.9-1.8-1.9-3.7-2.8-5.5
	C338,243.4,341.9,244.4,345.9,245.3z M348.6,274.6c-2.1-6.5-5.3-14.2-9.9-23.5c3.4-0.8,6.7-1.9,9.9-3.1c1.2-0.4,2.3-0.9,3.4-1.4
	c2.4,0.5,4.8,1,7.3,1.4c0.9,15,1,48.6-0.4,70.1C355.9,301.8,352,285.7,348.6,274.6z M282.9,203.3c2.3,5.6,4.6,11.5,6.8,17.9
	c-8.9-5-16.6-10.5-22.9-16.5C272.4,204,277.8,203.5,282.9,203.3z M338.6,83.1c-14.2,20.5-28.8,41.8-48.1,57.4
	c-2.4,1.9-4.9,3.9-7.5,5.9c-12.9-28.7-17-49.6-12.8-63.8c2.4-8.1,7.7-14.2,15.7-18.4c7.5-3.9,18.9-9.1,31.1-10.6c2-0.2,4-0.3,6-0.4
	c10.4-0.1,20.4,3.6,28.1,10.6l0.1,0.1c0.2,0.2,0.3,0.3,0.5,0.5C347.2,70.5,342.8,77,338.6,83.1z M264.5,163.8c6-4,11.7-8,17.1-12
	c7.6,16.4,16.9,33.3,25.2,48.2c-4.1-0.3-8.5-0.5-13.1-0.5c-2.7,0-5.5,0.1-8.5,0.2c-3.2-7.5-7-14.9-11.1-21.9
	C271.2,172.9,268,168.2,264.5,163.8z M308.8,203.6l3.8,6.8c4.9,8.8,10,17.8,14.6,26.3c-10.5-3.2-20.8-7.2-30.7-11.9
	c-0.8-0.4-1.5-0.8-2.3-1.2c-2.5-7.6-5.1-14.3-7.6-20.6C294,202.7,301.5,202.9,308.8,203.6z M338.4,212.1c10.6,6,17.3,15.2,19.8,27.2
	c-2.1,1.4-4.4,2.6-6.6,3.7c-6.7-1.4-13.3-3.1-19.6-4.8c-4.5-8.5-9.4-17.3-14.7-26.5l-1.6-2.9c-0.8-1.5-1.7-3-2.6-4.5
	C323.2,205.6,331.7,208.3,338.4,212.1z M357,244.1c0.6-0.3,1.2-0.7,1.8-1c0.1,0.4,0.1,0.9,0.1,1.4
	C358.3,244.3,357.7,244.2,357,244.1z M340.2,209c-7.7-4.4-17.5-7.3-29.2-8.7c-8.8-15.6-18.7-33.6-26.6-50.7c2.8-2.1,5.6-4.3,8.2-6.4
	c19.7-15.9,34.5-37.4,48.8-58.1c4.2-6.1,8.5-12.4,12.8-18.2c18.7,18.4,26,41.6,30.4,55.6c0.6,1.9,1.2,3.8,1.8,5.6
	c2.3,6.9,8,44.2-9.5,88.6c-3.2,8.2-8.6,15.2-15.6,20.5C358.4,224.8,351.3,215.4,340.2,209z M261.5,165.7c3.5,4.4,6.7,9,9.6,13.8
	c3.9,6.5,7.3,13.3,10.4,20.3c-5.6,0.3-11.6,0.9-17.7,1.7c-7.6-8-12.9-16.9-15.8-26.5c-0.1-0.2-0.1-0.4-0.2-0.7
	C252.5,171.5,257.2,168.5,261.5,165.7z M358.8,340c1.4,10.3,2.1,18.5,1.8,22.9c-0.1,2.2-1.1,4.5-3,7.1c-1.1-6.3-2.5-13.4-4.3-20.4
	C355.6,346.6,357.4,343.4,358.8,340z M224.4,155.2c1.6-1.7,3.1-2.5,4.6-2.5c0.4,0,0.7,0,1,0.1c4.4,1,9.4,8.5,13.4,20.1
	c-6.1,3.7-12.3,7.2-18.5,10.6c-0.9-3-1.6-6.2-2.2-9.3C221.2,165,221.8,157.9,224.4,155.2z M335.2,251.9c4.7,9.5,8,17.3,10,23.7
	c4.4,14.1,9.2,35.4,12.4,55.7c-0.2,1.3-0.4,2.3-0.6,3.1c-1,3.8-2.7,7.4-4.8,10.6c-3.7-12.6-7.9-20.3-12.9-23.5
	c-1.6-1-3.4-1.6-5.4-1.6h0h0c-1,0-1.9,0.2-2.8,0.4c-2,0.6-4,1.6-5.6,2.9l-0.7-2.3c-6.4-21.9-15.1-51.7-20.3-67.4
	C315.2,254.4,325.8,253.8,335.2,251.9z M332,323.9c1.8-0.5,3.7-0.3,5.3,0.8c4.5,2.8,8.6,10.9,12.2,24.1c-3.7,4.5-8.1,8-12.1,9.7
	c-1,0.4-1.9,0.7-3,0.9c-0.4-5.1-1.2-9.7-2.3-13c-0.8-2.6-2.9-9.6-5.7-19.2C328,325.6,329.9,324.5,332,323.9z M338.9,401.4
	c-3-6,3.9-12.2,11.2-18.8l0.2-0.2c1.7-1.5,3.5-3.1,5.1-4.8c0.8,4.7,1.7,8.9,2.6,13c1.1,5.4,2.2,10.5,2.7,14.8
	C348.5,406,340.1,403.8,338.9,401.4z M244.6,176.3c2.9,9.3,7.9,18,14.9,25.9c-5,0.7-10.1,1.6-15.2,2.6c-3.3,0.6-6.5,1.3-9.7,2
	c-3.4-6.3-6.2-13-8.5-19.8C232.5,183.3,238.8,179.8,244.6,176.3z M298.1,235.2c-0.7-2.1-1.4-4.4-2.2-6.9
	c10.8,5.2,22.2,9.5,33.7,12.8c1.4,2.6,2.7,5.1,3.9,7.6c-9.3,1.8-19.7,2.2-30.3,1.3c-0.9-2.5-1.5-4.3-2-5.5c-0.7-1.7-1.7-4.9-3-9
	L298.1,235.2z M322,337.4c0.3-2.3,0.9-4.5,1.9-6.5c2.6,8.9,4.2,14.3,4.9,16.5c1,3,1.7,7.2,2.1,11.9c-0.8-0.2-1.6-0.5-2.3-0.9
	C323.8,355.4,320.8,346,322,337.4z M354.5,421.3c-1.5,0.5-3.2,0.2-4.5-0.7c-1.5-1-1.7-3.1-1.4-4.7c0.3-1.4,1.1-2.4,1.9-2.5h0.1
	c0.9,0,3.1,1.5,4.6,4.2c0.5,0.9,0.9,1.8,1.1,2.8C355.7,420.8,355.1,421.1,354.5,421.3z M647.2,125.2c2.6-12.5,4-23.9,4.3-33.8
	c7.8,4.4,12.4,8.9,13.8,13.3c1.1,3.6,0.1,7.3-3.2,11.2C657.7,121.1,652.6,124.3,647.2,125.2z M648,89.5c-0.1,10.4-1.6,22.5-4.4,36
	c-4.1,0-8.5-1.2-13.2-3.5c-18.2-9.1-35.6-33.5-44.6-53.1C608.6,74.9,631.9,81.4,648,89.5z M437.2,115.8c1.5-3.7,7.6-15.8,17.7-28.5
	c27.5,28.6,58.3,63.9,55.1,85.9c-0.9,5.9-4.3,10.6-10.4,13.9c-8.4,4.7-17,6.4-25.6,5.1c-7.8-1.2-15.5-4.9-22-10.7
	c-8.3-7.4-14.4-17.7-17.3-29.2C431.6,140.3,432.5,127.3,437.2,115.8z M647,74.2c0.6,3.7,0.9,7.6,1,11.4c-18-8.8-44.4-15.6-64-20.7
	c-3.4-8.3-4.9-15-4.1-18.4c1.2-5.2,5.3-11.5,12.7-12.2c2.9-0.1,5.7-0.2,8.5-0.1c8.3,2.7,16.3,6.4,23.6,11.1
	C637.5,53.4,645.2,63.4,647,74.2z M590.3,31c-7.6,1.7-12.4,8.3-13.8,14.6c-1.1,4.8,1,12.2,3.2,18.1c-6.2-1.6-11.6-3-16.1-4.3l-0.1,0
	c-17.9-5-55.3-15.4-84.1,1.3c-8.4,4.9-16.7,12.1-24.7,21.4c-3.8-3.9-7.5-7.7-11.1-11.3l-3.8-3.8c-4.5-4.5-8.7-8.8-12.2-12.5
	c-8.9-8.9-20-16.8-32-22.9c4.7-1.1,9.7-1.3,14.4-0.6c63.9,9.5,119.3,4.3,140.9-1.6C560.6,26.8,575.3,27.4,590.3,31z M32.2,179.2
	c0.1-0.8,0.4-0.8,0.6-0.9c0.2,0,0.5-0.1,0.7-0.1c0,0,0,0,0,0h0c3.6,0,11.6,3.2,19,8.5c-3.4,4.2-6.8,8.4-10.1,12.5
	C35.1,190.1,31.7,182.3,32.2,179.2z"/>
</svg>
