<?xml version="1.0" encoding="utf-8"?>
<!-- Generator: Adobe Illustrator 25.4.1, SVG Export Plug-In . SVG Version: 6.00 Build 0)  -->
<svg version="1.1" id="Layer_1" xmlns="http://www.w3.org/2000/svg" xmlns:xlink="http://www.w3.org/1999/xlink" x="0px" y="0px"
	 viewBox="0 0 764.4 462" style="enable-background:new 0 0 764.4 462;" xml:space="preserve">
<path d="M576.6,242.4c0.2-0.1,0.4-0.3,0.5-0.5c0.6-0.9,2.4-3.6,4.7-7.7l0.2-0.3l0.3-0.1c15.6-7.6,23.9-11.5,25.4-12
	c28.7-9.3,56.9-20.8,84-34.1c20.9-10.3,34.7-21,43.6-33.8c2.9-4.2,4.5-10.2,6-16c1.1-4.2,2.1-8.1,3.6-11.1l0.4-0.8
	c0.7-1.4,1.2-2.5,1.5-2.9l0.2-0.3l0.4-0.2c0.8-0.4,2.1-1,4.7-3.2c3.1-2.6,4.4-6.4,3.4-10.7c-1.8-8.6-14.1-21.8-26.6-25.3
	c-0.3-0.1-0.6-0.1-0.9-0.1c-6.8,1.1-7.2,6.2-7.3,9.2c-0.2,3.3-0.4,4.7-3.8,5.2c-8.1,1.3-19.4-0.7-31.7-5.5
	c-11.3-4.5-21.9-10.9-28.5-17.1c-6.3-6-10.1-15.5-11.1-28.1c-1.1-12.5,0.7-25.1,2.4-33.4c0.2-0.7-0.1-1.5-0.7-2
	c-1-0.9-2.8-1.9-5.8-1.5c-9.3,1.2-22.9,15-26.7,20.6c-2.7,4.1-4.3,9-5,15.6l-0.2,2.4l-1.5-1.9c-3.2-4-8.2-8.8-13.7-8.7
	c-4.1,0.1-7.6,2.9-10.3,8.3l-0.2,0.5l-0.5,0.1c-16.9,2.1-33.6,3.8-51.2,5.4l-0.1,0l-0.1,0c-20.3-3.5-48-3.9-82.3-1
	c-34.2,2.8-66,8-81.9,10.9c-2.7,0.3-5.3,0.8-7.8,1.5c-0.5,0.2-1,0.5-1.3,1c-0.3,0.5-0.3,1.1-0.2,1.6c0.3,1.1,1.4,1.7,2.5,1.5l0.1,0
	c0.1,0,0.4-0.1,0.9-0.2c1.2-0.2,3.3-0.6,6.3-1.2c2.5-0.3,5.1-0.4,7.3-0.5c49.6-2,102.9-4.5,156.3-9.3l0.1,0l0.1,0
	c15.3,2.7,26.1,7.3,32.2,13.6c30.5,31.7,41.4,69.6,32.4,112.9c-4.1,20-11.8,36.6-17.5,47.1l-0.2,0.3l-0.3,0.1
	c-36.3,17.7-97.6,48.2-130.9,64.8l-0.9,0.5c-0.5,0.3-0.9,0.7-1.1,1.2c-0.2,0.5-0.1,1.1,0.1,1.6c0.3,0.7,1,1.1,1.7,1.2
	c1.9,0.1,3.8,0.7,5.4,1.8c3.9,2.7,5.1,8.3,6,13.7c2.5,15.6,5,31.7,4.2,47.6c-0.4,8.2,0.1,16.4,0.6,24.4l0,0.2
	c0.4,6.6,0.8,13.3,0.7,20.1c0,1.8,0,3.7,0.1,5.5l0,0.2l-4.2,12.4l-0.6,0.1c-2.7,0.3-4.9,0.3-6.5,0c-1.3-0.3-4.9-1.7-8.3-3.7
	c-3.9-2.4-5.5-4.3-5.7-5.4l0-0.3l0.1-0.2c9.4-26.5,4.2-68.6,1.1-93.7c-0.8-6.5-1.5-12.1-1.8-16c0-0.6-0.3-1.2-0.8-1.5l-8.2-6.6
	c-0.5-0.4-1.1-0.6-1.8-0.4c-10.6,2.1-21.2,5.2-31.5,8.1l-0.1,0c-15.5,4.5-31.6,9.1-48,10.6c-21,1.8-128.5,9.4-186.7-22.8
	c-0.6-0.4-1.4-0.4-2.1,0c-2.8,1.6-5.4,3.5-7.8,5.5l-5.8,4.9l4.3-6.2c10.4-15.2,82.1-78.9,102.7-95.8c6-4.9,12.3-9.7,18-13.9l0.1-0.1
	c17.2-13,35-26.4,46.8-44.8c10-15.5,13.7-35.7,9.7-52.7c-2.9-12.4-9.6-22.2-19.5-28.1c-8.8-5.3-19.2-7-28.4-8.6
	c-36.3-6.1-71.7-11.7-106.2-12.7c-40.1-1.1-74,4.1-103.7,15.9c-13.1,5.3-25.8,12-38.1,18.6l-1.2,0.6c-7.3,3.9-14.9,8-22.5,11.7
	c-0.5,0.2-0.9,0.7-1.1,1.2C4,96.3,6,105.8,10.9,110.2c1.4,1.3,3,2,4.8,2.3l1.1,0.1l-0.2,1.1c-3.4,15.4-4.4,34.8-2.8,54.5
	c1.8,22.4,6.8,42.8,13.9,57.5c5.5,11.4,12.4,19,19,26.4c9.1,10.2,17,19.1,19.6,35.7c1.3,8.1,1.1,16.5,1,24.7
	c-0.2,10.6-0.3,21.6,2.5,32.1c1.9,7,5.1,13.7,8.1,20.2L78,365c4.8,10.1,9.3,19.6,9.3,30.1c-0.1,3.2-0.4,6.5-0.9,9.7
	c-0.8,5.9-1.6,12,0.1,18c0.1,0.3,0.2,0.6,0.3,0.9L90,430c3.7,5.2,9.6,8.9,17.7,11.1c10.5,2.8,22.5,2.4,30.7,1.5
	c1.1-0.1,1.9-1,1.9-2.1l0.4-15.1c0-0.7-0.3-1.4-0.9-1.8c-7.8-5.7-14.2-13.2-18.6-21.8l-0.1-0.2v-0.2c0-0.5,0-0.9,0-1.4l0-0.7
	c-0.6-18-1.3-42.6,15.2-76.9l0.1-0.2c8.1-10.6,16.6-19.1,23.4-23.5l0.5-0.3l0.5,0.3c59.7,31.8,166.7,24.3,187.6,22.5
	c16.8-1.5,33.1-6.2,48.8-10.7l0.1,0c9.7-2.8,19.7-5.7,29.7-7.8l0.5-0.1l6.7,5.4l0,0.4c0.3,4,1,9.5,1.7,14.8
	c3.1,24.8,8.2,66.3-0.9,91.8c-0.4,1-0.6,2.7,0.6,4.7c3,5.2,13.6,9.9,16.7,10.5c2.5,0.5,5.7,0.4,9.9-0.2c0.7-0.1,1.3-0.5,1.6-1.2
	l0.9-1.9l0.9,1.9c2.4,5.2,10.8,22.5,17.8,25.2c0.7,0.2,1.5,0.4,2.2,0.3c4.7,0,11.8-3,14.6-4.3c0.3-0.1,0.5-0.3,0.8-0.6l8.4-10.1
	c0.4-0.5,0.6-1.1,0.5-1.7l-1.3-8.9h0.1l-0.8-5.1l-1.4-9.5c-0.7-3.3-5.7-33.9-5.8-37.2c-0.4-11.3,4.8-22.3,9.4-32l28-59.1l0.1-0.1
	l28.1-35.4C569.2,247.8,572.8,245.1,576.6,242.4z M432.5,59.3l-0.2-2c6-0.6,11.9-1.2,17.5-1.7c14.9-1.2,28.6-1.8,40.9-1.9l0.1,2
	C472.6,57.1,453.5,58.3,432.5,59.3z M586.7,224.9c6.3-12.9,10.9-26.5,13.9-40.4c4.1-19.6,4.1-38.5,0.1-56.3
	c-5-22.2-16.3-42.6-33.6-60.7c-4.1-4.2-10-7.8-17.6-10.5l-4.1-1.5l4.4-0.4c12-1.2,24-2.6,35.7-4c0.8-0.1,1.4-0.6,1.7-1.3
	c2.1-4.8,4.5-7.2,7.2-7.3c5.8-0.2,12.7,9.7,15.1,14.5c0.5,1.1,1.8,1.5,2.9,0.9c0.7-0.4,1.2-1.1,1.2-1.9c0.1-7.3,0.3-16.3,4.7-22.9
	c3.8-5.7,16.7-17.9,23.6-18.8l0.1,0h1.2l-0.1,1.2c-7.2,39.1,3.5,56.1,10.4,62.7c6.9,6.6,18.1,13.3,29.9,18c13,5.2,25.1,7.2,34,5.8
	c6.8-1.1,7.2-6.2,7.3-9.2c0.2-2.9,0.3-4.5,3-5.1l0.3-0.1l0.3,0.1c8.8,2.8,21.1,13.5,22.9,21.9c0.6,2.8-0.1,4.9-2,6.5
	c-2.1,1.7-3.1,2.3-3.9,2.7c-1.8,0.9-2,1.3-4.3,6.1c-1.6,3.4-2.7,7.5-3.8,11.8l0,0.1c-1.4,5.5-2.9,11.1-5.4,14.7
	c-8.4,12.1-21.7,22.4-41.9,32.3c-26.9,13.2-54.9,24.6-83.4,33.9c-1.6,0.5-11.2,5.1-18.3,8.5l-2.6,1.3L586.7,224.9z M121,412.9
	l1.1,0.1l0.7-0.5c3.7,5.2,8.2,9.8,13.3,13.7l0.4,0.3l-0.3,12.1l-0.9,0.1c-2.6,0.2-5.6,0.4-8.9,0.4c-5.6,0-11.9-0.5-17.6-2
	c-4.7-1.3-8.6-3.1-11.6-5.5l-2.1-1.7l2.7-0.1c9.3-0.3,15-1.9,18.6-5.5C119.1,421.5,120.5,418,121,412.9z M119.6,357.9
	c-1.6,8-2.6,16.2-2.9,24.4l1,5.7l-3-5.4l0-0.2c-0.8-4.5-1-9-0.8-13.5c0.3-5.2,2.1-11.5,5.5-18.8l1.9,0.7
	C120.6,353.1,120.1,355.5,119.6,357.9z M132.8,319.7l-0.1,0.2c-1.7,2.3-3.5,4.7-5.1,7.1c-10.8,16-17.4,31.2-18,41.7
	c-0.6,11.4,1.8,23.1,7.2,33.8l0.1,0.2l0,0.2c0.2,8.5,0.1,14.7-3.4,18.2c-2.9,2.9-8.7,4.3-18.1,4.3c-0.8,0-1.7,0-2.6,0l-0.6,0
	l-0.3-0.5c-0.5-1-0.9-2.1-1.2-3.2c-1.5-5.1-0.8-10.5,0-16.2c0.5-3.4,0.8-6.8,0.9-10.2c0-11.5-4.9-21.9-9.7-32
	c-2.9-6-6.1-12.8-7.9-19.6c-2.7-10-2.5-20.2-2.3-31c0.1-8.4,0.3-17-1.1-25.5c-2.8-17.8-11.5-27.5-20.6-37.8
	c-6.4-7.2-13.1-14.6-18.3-25.5c-14.1-29.1-18.6-81.2-9.7-113.8c0.3-1.1-0.4-2.3-1.5-2.6c-0.5-0.1-1.1-0.1-1.5,0.2
	c-1.8,1-3.4,0.8-5-0.7c-2.9-2.6-5.1-9.1-3.6-14.7l0.1-0.4l0.4-0.2c7.1-3.5,14.1-7.2,20.9-10.9l0.7-0.4C44.7,73.8,57.6,66.8,71,61.5
	c66.9-26.7,144.9-13.6,207.6-3.1c9.3,1.6,18.9,3.2,27,8c8.8,5.3,14.9,14.1,17.5,25.4c3.7,15.9,0.2,34.9-9.2,49.4
	c-11.5,17.8-29,31-45.9,43.8c-5.7,4.3-12.2,9.2-18.1,14.1c-17.9,14.7-92.3,80.2-103.6,96.8l-0.3,0.5
	C141.2,303.9,136.7,311.7,132.8,319.7z M505.4,437.4l-7.5,9l-0.2,0.1c-3.7,1.6-9.4,3.7-12,3.7c-0.3,0-0.5,0-0.8-0.1
	c-5-1.9-12.7-17.2-14.2-20.3l-0.7-1.5l34.2,0.4L505.4,437.4z M562.7,247.7l-28.4,35.7c-0.1,0.1-0.2,0.3-0.3,0.4l-28,59.2
	c-4.8,10.2-10.3,21.7-9.8,34.1c0.1,3.6,5.1,33.8,5.9,37.8l1.4,9.4l-38.2-0.4l3.2-9.5c0.1-0.3,0.1-0.5,0.1-0.8l-0.2-4.2l0.1,0.2
	c0-0.6,0-1.2,0-1.8c0.1-6.8-0.3-13.7-0.7-20.3l0-0.1c-0.5-7.8-1-16-0.6-24.1c0.9-16.3-1.7-32.6-4.2-48.4c-1-6.1-2.4-12.9-7.7-16.6
	l-1.6-1.1l1.5-0.8c43.8-21.8,86.2-42.8,113.3-56.1l1,1.7c-2.3,1.7-4.5,3.5-6.6,5.2C562.9,247.5,562.8,247.6,562.7,247.7z"/>
</svg>
