<svg id="Layer_1" data-name="Layer 1" xmlns="http://www.w3.org/2000/svg" viewBox="0 0 1774.33 1072.34"><path d="M1176.78,984.21h.25l-2.3-14-3-20.71c0-.18-.06-.35-.1-.51-1.64-7.35-12.67-75.22-12.94-82.46-.92-24.71,10.58-49,20.73-70.51l62.11-131.34,62.38-78.6c7.13-5.94,15-11.91,23.36-17.76a7.41,7.41,0,0,0,1.74-1.75c.49-.72,4.67-6.82,10.62-17.31,31.7-15.44,52.9-25.54,56.26-26.63a1400.72,1400.72,0,0,0,187.49-76.11c46.92-23.14,78.06-47.28,98-76,6.71-9.66,10.3-23.29,13.77-36.46,2.42-9.21,4.71-17.91,7.81-24.36,1.84-3.83,3.33-7,4-8.08l.22-.1c1.87-.9,5-2.42,11.07-7.47,7.65-6.37,10.64-15.6,8.42-26-5.18-24.21-37.57-51.59-60.93-58.12a7.07,7.07,0,0,0-3-.17c-17,2.74-17.81,15.6-18.23,22.51-.45,7.24-.72,8.64-6.49,9.57-17.76,2.86-42.45-1.49-69.54-12.24-24.88-9.87-48.36-23.95-62.8-37.67-13.67-13-21.77-33.57-24.09-61.21S1483.23,75.45,1487,57a7,7,0,0,0-2.22-6.63c-2.62-2.33-7.29-4.9-14.63-3.94-21.43,2.78-52.45,34.19-61,47-7.27,10.91-10.21,23.51-11.46,35.74-8.11-10.14-19.63-20.54-32.33-20.16-10,.31-18.37,6.93-24.78,19.71-38.21,4.66-76.08,8.66-114.14,12.14-45.54-7.88-107-8.69-184.07-2.36-77.75,6.38-150.75,18.59-182.8,24.38a96.67,96.67,0,0,0-17.69,3.35,7,7,0,0,0,3.37,13.57c.23,0,6.06-1.2,16.23-3,5-.51,10.36-.77,16-1,126.18-5,238.1-10.73,348.46-20.8,33.47,6,57.24,15.91,70.54,29.74,67.37,70,91.5,154,71.72,249.65-9.39,45.36-27,82.74-38.76,104.27-95.34,46.43-268.31,132.65-294,145.45a7,7,0,0,0,2.45,13.23A22.92,22.92,0,0,1,1049,701c8,5.58,10.48,17.45,12.33,29.13,5.45,34.57,11.09,70.31,9.23,105.55-1,18.66.17,37.17,1.28,55.06.91,14.58,1.85,29.66,1.6,44.56-.07,4.29,0,8.48.17,12.47l-8.81,25.87c-7.2.79-11.47.46-13.88,0-2.73-.54-10.64-3.71-17.82-8-9.11-5.5-11.54-9.41-11.73-10.48,21.2-59.59,9.54-153.72,2.58-210-1.79-14.44-3.33-26.9-3.9-35.39a7,7,0,0,0-2.58-5L999.18,690a7,7,0,0,0-5.78-1.41c-23.9,4.8-47.68,11.66-70.69,18.29-34.62,10-70.43,20.3-106.5,23.46-46.62,4.08-285.72,20.8-414.92-50.66a7,7,0,0,0-6.83,0,120.56,120.56,0,0,0-17.8,12.62c23.1-33.71,182-174.92,228.41-213.12,12.91-10.63,26.66-21,39.95-31C683.63,419,723.55,388.89,750.29,347.4c22.53-35,31-80.64,22-119.17-6.6-28.35-22-50.49-44.49-64-19.94-12-43.48-15.94-64.25-19.43-80.88-13.61-159.86-26-237-28.23C336.87,114,261,125.66,194.42,152.27,164.17,164.37,135.13,180,107.05,195c-16.42,8.81-33.39,17.92-50.35,26.18A7,7,0,0,0,53.23,225c-6.07,15.83-1.33,38,10.35,48.39A21.75,21.75,0,0,0,75.5,279c-7.72,34.52-10,77.39-6.26,122.15,4.13,50.19,15.24,96,31.28,129.07,12.47,25.69,27.81,42.87,42.64,59.49,20.11,22.52,37.48,42,43.17,78.32,2.79,17.83,2.49,36.6,2.2,54.76-.38,23.84-.77,48.48,5.61,72.27,4.27,16,11.47,31.06,18.43,45.67,10.61,22.26,20.62,43.29,20.55,66.2a163.64,163.64,0,0,1-2,21.18c-1.82,13.44-3.7,27.34.33,41.17.22.76.46,1.52.71,2.26l7.17,14.24c8.54,12.1,22.21,20.7,40.83,25.67,23.67,6.32,50.75,5.33,69.3,3.39a7,7,0,0,0,6.27-6.79l.84-33.72a7,7,0,0,0-2.89-5.84,138.29,138.29,0,0,1-40.86-47.72c0-1.53-.09-3.09-.14-4.67-1.2-39-2.91-94.36,33.75-170.49,17.18-22.54,36-41.87,51.61-51.77C531.56,765,770.52,748.35,817.43,744.25c37.42-3.28,73.89-13.79,109.16-24,21.69-6.25,44.08-12.71,66.36-17.36l13.35,10.8c.72,8.62,2.13,20.07,3.75,33.1,6.81,55.07,18.22,147.23-1.92,203.67-1,2.76-1.53,7.15,1.46,12.41,7.07,12.44,31.46,23,38.62,24.44,5.78,1.14,13.25,1,22.83-.42a7,7,0,0,0,5.27-3.88c6.53,14.25,24.8,51.23,41,57.35a16.43,16.43,0,0,0,5.84.91c10.73,0,26.33-6.6,33.41-9.87a7.21,7.21,0,0,0,2.44-1.87l18.79-22.56a7,7,0,0,0,1.55-5.49ZM1004.65,156.13c12.73-1.36,25.79-2.61,39-3.69q49.9-4.09,91-4.13C1092.28,151.33,1049.16,153.88,1004.65,156.13Zm377.12,281.55c9.15-43.94,9.26-86.46.32-126.38-11.19-49.94-36.61-95.79-75.56-136.29q-14-14.58-40-23.95c26.48-2.68,53-5.64,79.61-8.91a7,7,0,0,0,5.57-4.16c2.93-6.73,7.75-14.79,14.08-15,10.57-.36,25.13,18.41,31.62,31.17a7,7,0,0,0,13.24-3c.3-15.91.67-35.71,10.16-49.95,8.44-12.66,36.82-39,51.13-40.86l.16,0c-6.39,34.8-13.69,106.08,23.93,141.81,15.67,14.89,40.82,30,67.28,40.54,29.4,11.66,56.72,16.29,76.93,13,17-2.74,17.8-15.61,18.23-22.52.41-6.55.66-8.31,5-9.28,18.91,6.1,45.7,29.35,49.51,47.12,1.5,7-1.39,10.37-3.69,12.29-4.75,3.95-6.83,5-8.2,5.62-4.83,2.34-5.62,4-10.78,14.73-3.68,7.66-6.13,17-8.73,26.86-3.16,12-6.43,24.4-11.73,32-18.5,26.66-47.94,49.34-92.66,71.39a1386.65,1386.65,0,0,1-185.6,75.35c-3.21,1-18.46,8.2-41,19.09A393.57,393.57,0,0,0,1381.77,437.68Zm-1069.24,509a149.15,149.15,0,0,0,30,30.94l-.6,23.88c-16.87,1.37-38.93,1.56-58.11-3.56q-15.35-4.1-25-11.88c21.44-.58,34.68-4.65,43-12.92C308.62,966.36,311.48,957.57,312.53,946.65Zm-14-68a133,133,0,0,1-1.77-30.07c.66-11.7,5.09-26,12-41.13q-2.07,8-3.73,16.06A327.19,327.19,0,0,0,298.49,878.61Zm65.75-192.93a495.27,495.27,0,0,0-29.53,52.07q-5.85,7.72-11.5,16c-24.37,35.92-39.12,70.16-40.47,94-1.48,26.22,4.44,52.8,16.2,76.45.5,19.08.07,32-7,39-6.62,6.58-20.79,9.42-44.45,8.85a41.37,41.37,0,0,1-2.58-6.69c-3.2-11-1.59-22.82.11-35.37a177.25,177.25,0,0,0,2.09-23c.08-26.1-11.1-49.57-21.91-72.27-6.69-14-13.61-28.56-17.55-43.27-5.87-21.9-5.51-44.5-5.13-68.43.3-18.75.61-38.13-2.37-57.14-6.33-40.43-25.87-62.31-46.55-85.49-14.2-15.9-28.88-32.34-40.5-56.27C81.89,459.77,72,344.37,91.61,272.1a7,7,0,0,0-10-8c-3.27,1.72-5.87,1.37-8.71-1.16-6.16-5.47-10.32-19.38-7.38-30.44,16.29-8,32.48-16.71,48.16-25.12,27.74-14.89,56.42-30.28,86-42.08,148.45-59.37,322.08-30.16,461.6-6.69,20.5,3.45,41.69,7,59.36,17.63,19.18,11.53,32.34,30.62,38.06,55.2,8.14,35,.43,76.5-20.12,108.41-25.39,39.4-64.3,68.75-101.93,97.15-13.41,10.11-27.28,20.58-40.41,31.39C554.3,502.84,387.35,649.88,364.24,685.68Zm723.41,262.68c-.22-4.07-.3-8.39-.22-12.84.26-15.46-.7-30.82-1.62-45.67-1.1-17.5-2.22-35.59-1.28-53.46,1.94-36.7-3.82-73.18-9.38-108.46-2.22-14-5.63-29.71-18.16-38.44l-.44-.3c80.85-40.29,181.78-90.36,252.54-125-5.16,3.86-10.09,7.75-14.73,11.63a7.34,7.34,0,0,0-1,1L1230,656.59a7,7,0,0,0-.84,1.36L1166.75,790c-10.84,22.91-23.12,48.88-22.07,77,.33,8.61,11.41,76.2,13.21,84.7l2.67,18.3-79.48-.82,6.2-18.22A7.16,7.16,0,0,0,1087.65,948.36Zm61.59,71c-11.31,5.06-23.94,8.78-27,7.94-7.76-2.94-21.11-25.25-30.29-44l70.66.73,2.4,16.39Z"/></svg>