<?xml version="1.0" encoding="utf-8"?>
<!-- Generator: Adobe Illustrator 25.4.1, SVG Export Plug-In . SVG Version: 6.00 Build 0)  -->
<svg version="1.1" id="Layer_1" xmlns="http://www.w3.org/2000/svg" xmlns:xlink="http://www.w3.org/1999/xlink" x="0px" y="0px"
	 viewBox="0 0 339.7 462" style="enable-background:new 0 0 339.7 462;" xml:space="preserve">
<path d="M315.4,105.4L315.4,105.4c-10-5.3-17.5-2-23.5,0.8c-4.2,1.9-7.2,3.2-9.7,1.3c-2.9-2.2-4.3-4.4-4.1-6.4
	c0.3-2,2.4-3.9,5.9-5.3c9-3.5,24.1-2.5,33.8,5.3c0.7,0.7,1.8,0.8,2.6,0.2c2.5-1.8,0.4-10.5-1.6-15.5c-4.1-10.4-17.5-34.2-53.7-29.9
	c-18.9,2.3-44.5,11.7-59.6,31.4C195,101.2,191,118,193.9,137.4c0.6,3.5,1.4,7,2.4,10.4c3.9,14.4,8.8,32.3-10.3,49.5
	c-4.9,4.4-14,9.2-25.2,9.5c-14.7,0.4-29.1-6.7-42.8-21.2c-5.4-5.8-15.1-19-18.8-43.4c-0.2-1.4-0.4-3.1-0.7-5.2
	c-1.8-13.7-5-39.3-16.2-56.2l-0.6-0.9c-3-5.1-7.2-9.5-12.2-12.6c-6-3.7-17.3-9.2-26-4.6c-1.6,0.9-3.1,1.9-4.4,3
	c0.6-0.8,1.2-1.6,1.9-2.3c4.8-5.1,13.1-6.5,19.3-5.9c10.7,0.9,19.2-1.7,25.2-7.7c7.5-7.4,9.6-18.7,9-26.1c-0.5-6.8-4.8-13-12-17
	c-5.4-3.1-13.1-5.2-16.8-1c-3.5,4-0.8,11.2,1.6,17.6c1.9,5.3,4.1,11.2,2.1,13.3c-1,1-3.4,0.2-5.4-0.9c-1.7-1-2.8-5.7-2.7-11.9
	c0.1-2,0.4-4,1-6c0.7-2.5,1.4-5-1-7c-2.3-2-11.2,0.9-16.5,5.5c-6.4,5.5-7.4,12.5-2.9,19.7c0.9,1.3,1.9,2.4,3.1,3.4
	c2.5,2.3,2.9,2.9,1.5,4.5c-0.6,0.6-1.4,0.9-2.2,0.8c-1.6-0.2-3.1-1.2-3.9-2.7c-3.7-6.1-2.6-11-2-13.8l0-0.1c0.3-1.4,0.6-2.6-0.4-3.4
	c-1.8-1.4-7.1,0.4-10.7,2.9c-3.4,2.3-11.1,9-7.4,22.1c0.7,2.1,1.6,4.1,2.7,6c0.7,1.2,1.1,1.9,1.2,2.3c-0.6,0-1.7-0.3-2.8-1.1
	c-2.5-1.7-3.3-5-3.8-7c-0.3-1.5-0.7-3-2.3-2.9c-1.2,0.1-4.9,2-6.1,5.5c-1.4,4,0.7,8.5,6.1,13.4c3.1,2.8,7.4,4.9,11.1,6.1
	c-0.2,0-0.3,0.1-0.5,0.1c-1.7,0.3-3.4,1-4.9,1.9c-0.3,0.2-0.6,0.3-0.9,0.5c-3.5,1.9-6.4,5.9-6.9,7.9c-0.2,0.6-0.2,1.3,0.2,1.9
	c0.8,1.3,2.1,0.9,6-0.2c1.3-0.4,2.9-0.8,4.1-1c4.5-0.9,12,1.6,14.5,2.9c-2.1,1.7-3.6,5.1-4.1,9.5c-0.6,5.6-3.3,9.6-5.8,13.1
	c-3.6,5.3-7.1,10.3-0.6,17.6c4,4.5,10.7,5.6,16.7,2.6c2.5-1.2,4.1-2.9,5.2-4.8c-2.5,11.3-8.2,23.1-13.1,33.2
	c-3.5,7.2-6.3,13.2-7.9,18c-3.8,12-4.1,25.8-1,41.1c5.1,25.2,15.2,44.7,32.8,63.2l2.3,2.4c9,9.4,24.1,25.2,31.4,39.1
	c6.2,11.8,11,24.4,14.3,37.3c2.4,9.2,4.3,29.5,4.6,39.5c0.3,12.3,0.7,27.6-9.3,37c-4.4,4.1-9.5,5.8-14.8,7.2
	c-17.1-7.2-24.1-3-25.8-1.6c-1.3,1.1-1.8,2.4-1.4,3.5c2.1,5.9,18.5,3.6,26.2,1.6l0.9-0.2c2.4,1.1,4.8,2.2,7.2,3.5
	c4,2.2,10.4,3.7,14,2.4c4.8-1.7,8.7-7.7,9.1-14.1c0.6-8.6,1.2-12.3,4.1-15.1c1.3-1.2,2.7-1.5,4.5-1.9c2.4-0.4,4.6-1.2,6.7-2.4
	c5.9-3.7,10.1-12.5,10.4-16.7c0.2-1-0.1-2.1-0.9-2.9c-1.7-1.4-3.2,0.4-5.2,2.8c-1.4,1.7-3.5,4.2-5.9,5.8c-4.3,2.9-6.6,1.8-7.6,1.2
	c-0.4-0.7-0.6-4.7,1-11c4-15.5,8.1-31,9.1-34c1.8-6,2.6-12.2,2.4-18.4c10.9,12.8,14.2,19.4,18.6,28.3c1.6,3.3,14.9,46.5,10,64.5
	c-0.8,2.9-2.1,5.7-3.7,8.2c-1.3,2.1-2.7,4.1-4.3,6c-1.4-0.2-2.7-0.4-4-0.6l-0.2,0c-7.3-1.1-11.3-1.7-12.2,1.1c-0.2,1,0,2.1,0.6,2.8
	c1.8,2.4,4.6,3.9,7.6,4.2h0.6c2.9,0,5.8-1.5,8.7-4.3c7.9,1,17.4,1.3,21.5-4.3c4-5.4,1.8-15,0.9-18.6l-0.1-0.3c-0.7-2.8-1.7-5.5-3-8
	c-1.4-2.9-1.8-4-1.1-5.2c0.5-0.8,1.1-1,2.7-1.5c1.6-0.4,3.2-1.1,4.7-1.9c8.9-5.2,11.3-13.5,11.4-17.6c0-2.1-0.6-2.7-1.1-3.1
	c-1.6-1-2.7,0.6-3.9,2.4c-2,3-5.8,8.5-12,9.2c-1.2,0.2-1.7,0.2-3.6-0.8c-0.7-2.2,1.9-17.4,3.2-24.8l0.1-0.4
	c1.1-6.6,2.3-13.4,2.5-16.6c0.4-9.1-0.2-18.3-1.9-27.3c-1.8-10.6-2.3-13.8,7.6-17.1c22.9-7.8,41.7-25.7,52.7-50.6
	c10.2-23.1,13-50.4,7.7-74.8c-2.3-10.6-1.1-19.5,3.6-25c3.2-3.8,7.8-5.7,13.2-5.4c7.2,0.3,12.2,2.4,14.7,6.2c4.7,7,0.5,18.9-2,26.1
	c-1.6,4.6-2.2,6.5-1.5,7.8c0.3,0.5,0.8,0.9,1.3,1c7.9,1.6,17.1-1,24.7-6.9c8.3-6.5,13.3-15.9,13.7-25.8
	c0.6-13.4-10.1-18.8-18.6-23.2c-8.3-4.2-11.5-6.4-9.2-11c0.1-0.1,0.7-0.4,2.1-0.4c7.9,0,25.8,8.1,33.7,24.2c0.4,1.2,1.6,1.9,2.8,1.8
	c3.9-0.5,6.6-10,7.5-14.9C334.2,140.9,336.7,116.8,315.4,105.4z M282.9,92.9c-4.6,1.8-7.4,4.6-7.9,7.7c-0.3,2.2,0.4,5.5,5.2,9.3
	c4,3.1,8.3,1.1,12.9-0.9c5.7-2.6,12.1-5.4,20.7-0.8c19.4,10.4,17.1,32.7,15.9,39.3c-1.3,7.5-3.6,11.2-4.6,12.1
	c-4.9-10-12.7-16.2-18.4-19.6c-7.6-4.6-14.4-6.2-18.1-6.2c-3.2,0-4.4,1.2-4.9,2.2c-3.7,7.8,3.6,11.5,10.6,15.1
	c8.2,4.1,17.4,8.8,16.9,20.2c-0.5,9.3-5.1,17.9-12.5,23.5c-6.6,5.1-14.4,7.5-21.2,6.5c0.2-1.1,1-3.2,1.5-4.8l0.1-0.1
	c2.7-7.7,7.2-20.6,1.6-28.8c-3.1-4.6-8.8-7.1-17.1-7.5c-6.4-0.3-11.9,2-15.7,6.5c-5.3,6.3-6.8,16.1-4.3,27.7
	c10,45.7-9.5,105.3-58.3,121.9c-12.4,4.2-11.4,10-9.7,20.6c1.6,8.8,2.3,17.7,1.9,26.6c-0.1,3-1.3,9.7-2.4,16.2
	c-3.9,22.3-4.2,27.1-2,28.3c2.9,1.6,4.1,1.6,5.8,1.3c6.7-0.9,10.7-5.7,13.2-9.2c-0.7,3.2-2.9,8.5-9.4,12.3c-1.2,0.7-2.6,1.2-4,1.6
	c-1.8,0.5-3.4,1-4.5,2.9c-1.6,2.8-0.4,5.2,1,8.1c1.2,2.3,2.2,4.8,2.8,7.4c0.7,2.9,2.9,11.9-0.3,16.2c-2.9,4-10.5,3.9-16.5,3.3
	c1.2-1.5,2.3-3.2,3.3-4.8c1.7-2.8,3.1-5.8,4-9c5.2-18.9-8.4-63.2-10.2-66.7l0-0.1c-4.7-9.5-8.1-16.4-20.2-30.3l-1.5-1.7
	c-0.6-5.6-2.4-10.8-5.1-15.7c-7.3-12.7-23-26.2-32.4-24.5c-2.8,0.5-4.7,2.5-5.2,5.5c-0.4,2.4,2.4,5.2,13.1,13.1
	c15,10.9,18.7,13.9,26.6,22.9c0.7,7.3,0,14.5-2.1,21.5c-0.9,3-5.1,18.5-9.1,34.1c-0.5,2.1-3,12.5,0.4,14.5c1.2,0.7,4.8,2.8,10.9-1.3
	c2.7-1.8,4.9-4.4,6.6-6.4c0.1-0.1,0.2-0.2,0.3-0.3c-1,3.7-4.2,9.7-8.6,12.5c-1.7,1-3.6,1.7-5.6,2c-2,0.4-4.1,0.8-6.1,2.7
	c-3.9,3.7-4.5,8.5-5.1,17.2c-0.4,5.2-3.4,10.1-7.1,11.4c-2.4,0.8-7.8-0.2-11.5-2.2c-1.4-0.8-2.8-1.5-4.1-2.1
	c4.2-1.3,8.6-3.2,12.5-6.9c11.1-10.4,10.7-26.4,10.3-39.4c-0.3-10.3-2.2-30.5-4.7-40.2c-3.4-13.1-8.3-25.9-14.6-37.9
	c-7.6-14.4-23-30.5-32.2-40.1l-2-2.1c-17.2-18.1-27.1-37.1-32-61.7c-3-14.7-2.7-28,0.9-39.5c1.5-4.9,4.5-11.1,7.7-17.6
	c7.8-16,17.4-36,14-52.9c-2.6-13.1-6.8-20.5-11.6-20.9c-0.5-0.5-1.1-1-1.8-1.4c-2.5-1.4-11.1-4.6-16.9-3.4c-1.1,0.2-2.3,0.5-3.5,0.9
	l-1.2,0.3c-0.3,0.1-0.7,0.2-1,0.3c1.1-1.7,2.6-3.1,4.4-4.2c0.4-0.2,0.8-0.4,1-0.6c1.2-0.7,2.6-1.3,4-1.5c2-0.4,4-1.1,5.9-2.1l0.2,0
	c3.5-0.3,5.5-2,7.5-3.9c1.5-1.5,3.3-2.8,5.2-3.8c7.3-3.8,17.4,1.2,22.8,4.5c6.1,3.8,9.3,8.6,11.1,11.5l0.7,1.1
	c10.7,16.3,13.9,41.4,15.7,55c0.3,2.3,0.5,3.9,0.7,5.3c3.8,25.2,13.9,39.1,19.6,45.1c14.3,15.2,29.5,22.7,45.1,22.2
	c12-0.3,21.9-5.5,27.2-10.3c20.5-18.5,15.4-37.5,11.2-52.7c-1-3.3-1.8-6.7-2.3-10c-2.7-18.4,1.1-34.5,11.2-47.7
	c14.4-18.9,39.1-27.9,57.4-30.1c28.4-3.4,41.8,12,47.3,21.5c4.3,7.4,5.6,14.2,5.7,17.2C307.6,89.8,292.2,89.3,282.9,92.9z
	 M99.9,302.2c0.3-0.1,0.7-0.1,1-0.1c0,0,0,0,0.1,0c7,0,20.5,9.8,28.1,23c1.7,3.1,3,6.4,3.9,9.8c-6.1-6.5-10.7-10.1-23.8-19.8
	c-10.1-7.4-11.7-9.5-11.8-10C97.6,303.3,98.4,302.4,99.9,302.2z M40,88.1c4.1,5.3,8.1,17.4,8,22.4l0,0c0,0.5,0,1.1,0,1.8
	c0.2,3.8,0.5,10.8-5.4,13.6c-4.7,2.3-10,1.5-13.1-1.9c-4.8-5.4-2.8-8.4,0.9-13.8c2.6-3.9,5.6-8.2,6.3-14.5
	C37.1,91.9,38.4,88.9,40,88.1z M26.6,59.8c1.3-1.6,0.2-3.6-1.2-6c-1-1.6-1.9-3.4-2.4-5.2c-2.4-8.7,0.8-14,3.9-16.9
	c3.1-2.9,6.7-4.1,8.5-4.5c-1.5,5.5-0.6,11.4,2.4,16.2c1.3,2.3,3.6,3.9,6.2,4.2c1.8,0.2,3.6-0.4,4.9-1.7c3.6-4.1,0.5-6.9-1.7-9
	c-1-0.8-1.8-1.8-2.6-2.8c-3.5-5.5-3.1-10.3,1.2-14.7c4.8-4.8,12.4-6.7,13.6-6.4c0.7,0.7,0.6,1.4-0.1,3.7c-0.7,2.2-1.1,4.5-1.1,6.8
	c0,5.6,0.7,12.6,4.3,14.6c1.4,0.8,6.2,3.2,9.1,0.4c3.5-3.4,1.1-9.8-1.3-16.6l-0.1-0.3c-2.1-5.7-4.2-11.7-2-14.2
	c2.6-2.9,9.6-0.1,12.9,1.7c2.9,1.6,9.9,6.3,10.4,14.4c0.5,6.7-1.4,17-8.1,23.7c-5.4,5.3-13,7.6-22.8,6.8c-6.9-0.6-16.2,1-21.8,6.9
	c-1,1.2-2,2.4-2.8,3.8c-0.7,1.2-1.6,2.3-2.6,3.3l-0.2,0.2c-0.2,0.1-0.3,0.3-0.5,0.4c-0.4,0.4-0.8,0.8-1.3,1.1
	C27.6,69.7,20.9,67,17,63.5c-4.2-3.8-6-7.3-5.3-9.9c0.5-1.3,1.4-2.4,2.5-3.2l0,0c0.5,2.3,1.5,6.5,5.1,8.8
	C21.3,60.6,25,61.8,26.6,59.8z M83.3,443.2c-9.5,2-17.7,1.4-18.9-0.1c0.1-0.2,0.5-0.5,1.1-0.9c0.8-0.5,2.8-1.3,6.2-1.3
	C75.1,441,79,441.7,83.3,443.2z M145.1,453c2.6,0.1,5.3,0.4,7.9,0.9c0.6,0.1,1.2,0.2,1.8,0.3c-1.8,1.3-3.4,1.9-5,1.7
	c-2.1-0.2-4-1.3-5.2-2.9C144.7,453,144.9,453,145.1,453z"/>
</svg>
