<?xml version="1.0" encoding="utf-8"?>
<!-- Generator: Adobe Illustrator 25.4.1, SVG Export Plug-In . SVG Version: 6.00 Build 0)  -->
<svg version="1.1" id="Layer_1" xmlns="http://www.w3.org/2000/svg" xmlns:xlink="http://www.w3.org/1999/xlink" x="0px" y="0px"
	 viewBox="0 0 620.1 462" style="enable-background:new 0 0 620.1 462;" xml:space="preserve">
<path d="M616.5,414.1v-3.4c0.1-3.8-0.2-7.6-0.6-11.3c-0.4-3.6-0.9-8.5-1.4-17.8c-0.3-5.1-0.6-8.7-0.9-12c-0.8-8.4-1.4-15,0-40.8
	c0.1-1.8,0.2-3.8,0.4-5.8c0.7-11.1,1.6-23.7-2-34c-2.4-6.7-7-11.7-11.5-16.5c-3.6-3.9-7.8-8.2-10.3-13.7c-4-8.9-5.2-21.1-6.2-30.9
	l0-0.3c-0.6-6.1-1.1-10.9-2-13.8c-2-5.8-4.4-8.8-7.3-9.2c-2.1-0.3-4.2,0.9-6.3,3.5c0.2-3.4,0.5-6.8,0.8-10.2l0.1-1.1
	c1.6-21.7,3.1-42.2,1.6-60.7c-1.8-22-12.8-52.8-38.1-72.9c-35.4-28.1-81.5-26.4-122-22.7c-18.4,1.7-31.9,4.4-43.9,6.8l-0.1,0
	c-14.4,2.9-26.8,5.3-43.9,5.7c-21.6,0.4-36.6-2.1-49.8-4.2c-17.4-2.8-32.4-5.3-56.8-1.2c-16.5,2.8-33.4,5.5-42.1,4.4
	c-4.5-0.6-8.9-1.7-13.1-3.4c-3.2-1.2-5.1-1.9-6.5-0.7c-1.3,1.1-1,3.1-0.6,4.9c1.6,7.7,4.3,12.2,8.1,18.3c2.8,4.2,6.3,8,10.4,11
	c2.6,2.1,4.5,3.7,4.4,5.2c-0.1,2.2-8.8,6.4-15.4,6c-12-0.7-28.7-14.5-33.2-23.1c-2.6-4.7-4.4-9.7-5.4-14.9c0.9,0.6,1.8,1.3,2.9,2
	l2.2,1.6c1.2,0.8,2.5,1.7,3.8,2.7c8.3,5.8,12.9,10.5,19,17.7c5.5,6.5,15.1,11.7,19.3,11.7l0.1,0c0.9,0,1.8-0.3,2.4-1.1
	c1.5-2-0.6-4.2-4.1-7.9c-4.4-4.5-11.8-12.1-16.4-23.3c-1.4-3.5-2.6-7.2-3.4-10.9c-1.2-4.9-2.2-9.1-6.5-14.5c-2.1-2.7-3.6-3.8-6.4-6
	l-0.3-0.3c-1.8-1.4-4.2-3.2-7.7-6.2l-4.1-3.4c-9.8-8-9.8-8-14-10.5l-1-0.6C96.7-0.4,73-1.2,61.1,7.9c-4.9,3.7-9.3,8-13.2,12.8
	l-1.3,1.6c-1.9,2.4-4.2,4.5-6.6,6.3c-1.5,1.1-2.9,2.3-4.2,3.6c-4.5,4.3-5.8,7.7-7.3,12.1c-1.3,3.9-3,7.8-5.1,11.4
	c-2.5,4.4-5.4,8.5-8.7,12.3c-3.9,4.7-7.2,8.7-10,17l-0.1,0.4c-1.7,5.1-3.2,9.9-0.6,12.3c1.3,1.2,3.4,1.7,6.2,1.4
	c7.7-0.9,19.5-7.6,25.8-17.4c4.6-7,10-18.5,11.5-29.6c0.3,4.7,2.6,10.2,5.6,17.2l0.5,1.1c0.7,1.7,4.3,12,11.7,33.4l0,0.1
	c0.4,1,0.7,2.1,1.1,3.1l0.3,1c1.9,5.8,3.7,11.3,6.8,14.3c1.4,1.4,5.1,4.6,9.8,6c-0.1,11.5,7,20.9,22.3,41.1l3.1,4.1
	c7.6,10.2,14.6,21,20.9,32c9.5,16.3,14.8,25.3,31.5,28.7c5.2,1.1,9.5,2.1,13,2.9c9.8,2.3,13.8,3.2,15.4-0.3c0.7-1.7-0.4-3-13.7-15.6
	c-11.9-11.3-29.9-28.4-32.1-35.4c-5-16,2.2-31.7,5.6-39.2c4.6-9.9,7.7-15.8,9.3-17.5c-0.3,1.2-1,3.3-1.4,4.6
	c-2.5,7.3-7,20.9-4.1,39.7c2.1,13.3,8.6,19,16.2,25.6l0.1,0.1c7.2,6.3,15.4,13.4,22.1,29c7.3,17.1,14.9,41,9.1,74.1l-0.2,1.1
	c-0.8,3.8-2.5,12.8-0.1,21c0.9,2.8,1.9,5.6,3.1,8.2c1.6,3.5,3,6.9,3.4,10.7c4.8,49.9,3.4,67.5-6.4,81.8
	c-0.1,0.2-14.6,21.6-11.3,27.5c0.6,1.1,1.9,1.8,3.1,1.6c5.8-0.3,11.7-0.3,17.5,0.1c1.6,0.1,2.9,0.2,4,0.2c5.9,0,7.4-2,10.5-9.9
	c1.8-4.4,3.9-8.7,6.2-12.8c5.9-10.9,11-20.3,7.3-43.1c-2.4-14.6-3-73.8-2.9-93.7c0.1-21.4,7.7-52.9,12.3-71.6l0.2-0.7
	c1.3-5.3,2.3-9.5,2.7-11.7c3-16.6-12.1-42.3-20.5-53.6c-0.3-0.3-0.6-0.6-1-0.6c-0.4-0.1-0.8,0-1.2,0.3c-0.7,0.5-0.8,1.5-0.3,2.2
	c9.4,12.7,22.5,36.7,19.9,51.1c-0.4,2.3-1.5,6.9-2.8,12.2l-0.1,0.3c-4.6,18.9-12.3,50.4-12.3,72.1c0,14.8,0.3,78.2,2.9,94.2
	c3.5,21.7-1.1,30.3-6.9,41.1c-2.4,4.2-4.5,8.7-6.4,13.2c-3.2,8.2-3.2,8.2-11.4,7.7c-5.9-0.4-11.9-0.5-17.8-0.1c-0.2,0-0.3,0-0.3,0
	c-1.2-2.2,4.4-14.4,11.2-24.2c10.3-15.1,11.8-33.1,6.9-83.9c-0.4-4.3-2-7.9-3.6-11.7c-1.2-2.5-2.2-5.2-3-7.8
	c-2.1-7.4-0.5-15.6,0.2-19.6c0.1-0.5,0.2-0.8,0.2-1.2c5.9-33.9-1.8-58.3-9.3-75.9c-6.9-16.2-15.4-23.6-22.9-30.1
	c-7.5-6.5-13.3-11.6-15.2-23.8c-2.8-17.9,1.5-30.6,4-38.2c1.6-4.7,2.5-7.6,0.3-8.9c-0.6-0.4-1.4-0.5-2.1-0.2
	c-2.9,0.9-6.3,7.4-12,19.8c-3.6,7.9-11.2,24.3-5.8,41.5c2.4,7.8,20.1,24.5,33,36.8l0.2,0.2c5.3,5,10.8,10.2,12.3,12.2
	c-1.4,0.5-5.6-0.5-11.3-1.8c-3.2-0.8-7.6-1.8-13.1-2.9c-15.3-3.1-20.3-11.6-29.4-27.2c-6.3-11.2-13.4-22-21.1-32.3l-3.1-4.1
	c-15.1-20-21.5-28.4-21.6-38.6c1.7,0.2,3.4,0,5-0.5c6.9-2.1,9.5-9.1,11.4-14.2c2.4-6.4,2.2-15.6,0.5-19.4c-0.3-0.9-1-1.7-2-2.1
	c-1.9-0.7-3.2,0.6-4.4,1.8c-1.5,1.7-3.3,2.9-5.4,3.7c-4.4,1.6-8.9-0.3-12.6-1.9c-3.2-1.4-6-2.6-8-0.6c-0.8,0.9-1.2,2.2-1.1,3.4
	c0.1,3.2,2.2,7.3,5.1,9.9c3.6,3.3,8.8,4.5,13,3.2c0.3-0.1,0.7-0.2,1-0.4c-2.9,3.7-4.8,8-5.5,12.7l0,0.1c0,0.1,0,0.2,0,0.3
	c-2.9-1.1-5.6-2.8-7.8-5c-2.6-2.5-4.3-7.7-6.1-13.1l-0.3-0.9c-0.3-1-0.7-2.1-1-3.1l-0.1-0.4c-7.3-21-10.9-31.6-11.7-33.4L55.9,68
	c-3.2-7.5-5.6-13.1-5.4-17.4c1,0.5,2.4,1,3.6,0.4c0.9-0.6,1.5-1.5,1.5-2.6c0.5-4.1-1.4-9.6-3.9-11.6c-0.9-0.8-2.2-1.1-3.4-0.7
	c-2.8,1-3.6,10-3.7,11.8C44.1,59.5,38.2,72.5,33.3,80c-5.8,8.9-16.6,15.1-23.5,16c-1.8,0.2-3.1,0-3.7-0.5c-1.3-1.2,0.3-5.8,1.5-9.4
	c2.6-7.7,5.7-11.5,9.4-15.9c3.4-3.9,6.5-8.2,9-12.7c2.1-3.8,3.9-7.8,5.3-11.9c1.5-4.1,2.5-7.1,6.5-10.9c1.3-1.2,2.6-2.3,4-3.4
	c2.6-2,5-4.3,7.1-6.8l1.3-1.6c3.8-4.6,6.6-7.7,12.7-12.4C74,2,95.9,2.8,106.7,9.1l1,0.6c4,2.3,4,2.3,13.6,10.3l4.1,3.4
	c3.9,3.3,6.5,5.2,8.2,6.5c2.7,2.1,4,3,5.8,5.4c3.8,4.8,4.7,8.5,5.9,13.3c0.8,3.9,2,7.7,3.5,11.3c4.9,11.7,12.5,19.6,17.1,24.3
	c1.1,1.1,2.6,2.7,3.3,3.6c-2.8-0.4-10.9-4.2-16.3-10.6c-6.2-7.3-11-12.1-19.6-18.2c-1.3-0.9-2.5-1.7-3.6-2.5l-1.8-1.2
	c-2.3-1.6-4.3-3-6-4.2c-0.1-1-0.2-2-0.2-2.9c0-1.4,0-3,0.1-4.1c0.2-4.5,0.4-8.7-2.8-9.2c-1.2-0.1-2.4,0.3-3.1,1.1
	c-2,1.9-3.4,5.9-3.1,8.8c0.3,3,2.5,5.2,6.1,8c0.9,6.7,3,13.1,6.2,19.1c4.9,9.2,22.5,23.9,35.8,24.7c6.8,0.4,18.4-3.8,18.8-9
	c0.2-3.2-2.6-5.5-5.5-7.8l-0.3-0.3c-2.8-2.4-6.4-5.3-9.4-10c-3.7-5.9-6.1-10-7.7-17.3c-0.2-0.5-0.2-1.1-0.2-1.6
	c0.7,0.2,2.2,0.7,3.2,1.1l0.1,0c4.4,1.8,9.1,3,13.8,3.6c9.1,1.1,25.6-1.5,43-4.5c23.7-4.1,38.4-1.7,55.4,1.1l0.3,0.1
	c13.4,2.2,28.5,4.7,50.3,4.3c17.7-0.3,30.1-2.8,44.6-5.8c11.9-2.4,25.4-5.1,43.5-6.8c39.9-3.7,85.3-5.4,119.6,22
	c24.5,19.6,35.2,49.3,36.9,70.7c1.5,18.6,0,39.3-1.7,61.3l-0.2,2.1c-0.3,4.5-0.7,9.2-1,13.7c-13,22.4-8.9,44.5-5.2,64
	c2.1,11.1,4.1,21.6,2.8,31.1c-1.1,8.4-4.3,19.2-9.8,22.2c-2,1.1-4.1,1-6.6-0.1c-9-4.3-15.9-25.4-17.8-34.9
	c-7.4-36.6-14-74.5-7.6-100.5c10.1-40.9-0.7-72.6-4.3-77c-0.4-0.6-1.1-1-2-1.1c-0.5,0-1,0.3-1.3,0.7c-0.8,0.9-0.6,2.2,0.2,7.2
	c1.5,9,4.5,27.8-0.8,47.6c-4.3,16.2-17.4,29.7-28.9,41.6l-0.5,0.6c-2.5,2.6-4.9,5-7,7.4c-18.6,20.5-27.4,43.1-24,62.1
	c0.9,4.5,2.2,9,4,13.2c1.8,4.5,3.3,8.5,3.1,13.1c-0.5,9.6-4.1,16.8-11.4,31l-1.3,2.5c-1.2,2.4-2.5,4.9-3.9,7.7
	c-10.2,20.5-11.2,39.5-11.8,51l-0.1,2c-0.4,6.3-2.8,8.7-5.6,11.5c-3.7,3.6-7.8,7.7-8.7,19.9c-0.2,2.3-5.9,5.3-16.3,6.3
	c-10.6,1-18.6-0.9-19.3-3.2c-1-3.7,1.8-7.7,5.2-12.2l0.1-0.2c1.4-1.9,2.8-3.8,4.1-6c1.2-2.1,2.7-4.1,4.3-6
	c3.9-4.8,6.7-8.2,20.1-48.8c11.4-34.8,10.2-50.5,9.7-56.4c0-0.4,0-0.7-0.1-1c0-0.2,0-0.3,0-0.5c-0.5-11-6-41.6-23-78.7
	c-8.7-18.9-9.5-34.5-10.1-43.9c-0.4-7.4-0.7-11.8-4.5-12.3c-2.1-0.2-4.7,1.1-7.3,3.8c-4.8,5-9.1,14-7.8,22.8
	c1.8,12,4.6,16.1,11.5,26.2l2,3c3.2,4.6,6.8,9,10.7,13c3.1,3.3,5,5.4,4.4,6.4c-3.3,5.5-21.4,16.6-53.4,14.1
	c-40.9-3.2-73.7-8-88.4-11.4c-0.3-1.1-0.9-2.1-1.7-2.9c-1.5-1.3-3.7-1.6-6.6-0.8c-2,0.5-2.2,1.7-2.1,2.3c0.1,1.1,0.8,2.2,7.8,4
	c0.4,3.5-0.4,9.2-1.3,15.9c-0.9,6.6-2,14.9-2.4,23.9c-0.3,6.7-0.7,13-1.1,19.2l0,0.2c-1,14.9-2,29-0.9,44.2
	c0.6,8.9,1.8,17.6,2.8,25.3l0,0.2c1.6,12.2,3,22.7,1.4,26.9c-1.1,2.7-1.9,7.1-2.8,12.2l-0.1,0.3c-1.8,10-4.6,25-10.6,25
	c-0.1,0-0.1,0-0.2,0c-0.9,0-1.6,0.6-1.7,1.5c0,0.9,0.6,1.6,1.5,1.7c8.9,0.5,11.7-15,14-27.4l0-0.1c0.9-4.8,1.7-9.4,2.7-11.9
	c2-4.9,0.6-15.3-1.2-28.5l0-0.1c-1-7.7-2.2-16.5-2.8-25.3c-1.1-14.9-0.1-28.9,0.9-43.6l0.1-1.2c0.4-5.9,0.8-12.1,1.1-18.5
	c0.4-8.9,1.5-17.1,2.4-23.7l0-0.1c0.9-6.5,1.5-11.7,1.3-15.4c4.6,1,10.7,2.1,18.2,3.3c19.5,3.1,44.1,5.9,69.4,7.9
	c33.7,2.6,52.5-9.4,56.3-15.6c1.9-3.1-0.9-6.1-4.8-10.2c-3.8-3.9-7.3-8.1-10.4-12.6l-2-2.9c-6.7-10-9.3-13.7-11-24.9
	c-1.2-7.7,2.8-15.9,6.9-20.1c2.2-2.3,3.9-2.9,4.7-2.9c1.2,0.1,1.5,4.6,1.7,9.2l0,0.2c0.6,9.6,1.5,25.6,10.4,45
	c17.5,38.1,22.3,68.9,22.7,77.6c0,0.3,0,0.7,0.1,1.1l0,0.5c0.4,5.8,1.6,21.2-9.6,55.1c-13.2,40-15.8,43.3-19.5,47.8
	c-1.7,2-3.2,4.1-4.5,6.3c-1.2,2-2.5,3.9-3.9,5.7l-0.2,0.3c-3.6,5-7,9.7-5.6,14.8c2,7.3,20.5,5.7,22.6,5.5c4.4-0.4,18.6-2.4,19.1-9.2
	c0.8-11.2,4.3-14.6,7.7-17.9c3.1-3.1,6.1-6,6.5-13.5l0.1-2.1c0.6-11.2,1.5-29.8,11.5-49.7c1.9-3.8,3.6-7.1,5.1-10.1
	c7.5-14.7,11.3-22.1,11.8-32.4c0.3-5.3-1.5-9.7-3.3-14.4c-1.7-4.1-3-8.3-3.9-12.6c-3.2-18,5.3-39.7,23.2-59.5c2.1-2.3,4.5-4.8,7-7.3
	l0.5-0.6c11.2-11.5,25.1-25.9,29.7-43c5.2-19.5,2.7-37.6,1.1-47.3c3.9,11.2,8.9,36.6,1.1,68.3c-6.6,26.5,0.2,64.8,7.6,101.8
	c1.6,8,8.6,32,19.5,37.1c3.4,1.6,6.6,1.6,9.5,0c7.7-4.2,10.5-18.6,11.4-24.6c1.3-10-0.7-20.7-2.9-32.1c-3.3-17-6.9-36.1,1.5-55.5
	c-1.9,32.2-1.6,65.8,11.2,94.4c1.5,3.3,2.5,6.8,4,12l0.3,1c0.7,2.5,1.7,5.9,3,10.4l0.4,1.2c2,6.5,3.2,10.5,2.9,39.8
	c-0.2,24.5-2.3,28.1-4.3,31.7c-0.5,0.9-1,1.9-1.4,2.9c-1.8,4.6-4,9.1-6.3,13.5c-1.9,3.6-3.3,6.4-6.4,15c-0.5,1.3,0,2.8,1.2,3.5
	c2.9,2.3,11.2,3.1,17.5,3c8.7-0.1,16.1-1.5,19.9-3.8c2.8-1.7,2.7-4.8,2.6-7.7l0-0.1c-0.1-3-0.2-6.4,2-9.9l0.2-0.4
	C616.4,419.6,616.6,419.3,616.5,414.1z M608.3,438.3L608.3,438.3L608.3,438.3L608.3,438.3z M605.7,438.2l0,0.3c0.1,3.1,0,4.3-1.1,5
	c-6.9,4.2-29.8,4.3-33.8,1c-0.1-0.1-0.1-0.1-0.1-0.1c2.9-8.3,4.3-11,6.2-14.5c2.4-4.5,4.5-9.1,6.4-13.7c0.4-0.9,0.8-1.7,1.3-2.5
	c2.2-3.9,4.4-8,4.7-33.2c0.3-29.8-1-34-3.1-40.8l-0.3-1.2c-1.2-3.9-2.1-7.2-2.9-10l-0.3-0.9c-1.6-5.5-2.6-9.1-4.2-12.8
	c-13.8-30.8-12.7-67.8-10.5-100.1c0.7-1.2,1.5-2.3,2.2-3.5c1.5-2.2,3-3.4,4.1-3.2c1.2,0.2,3,2.1,4.7,7.1c0.9,2.5,1.3,7.4,1.9,13.1
	c1,10.1,2.2,22.7,6.5,32.1c2.6,5.9,6.8,10.3,10.8,14.6c4.5,4.8,8.7,9.3,10.8,15.4c3.4,9.7,2.6,21.9,1.9,32.8l-0.1,0.9
	c-0.1,1.7-0.2,3.4-0.3,5c-1.4,25.9-0.8,32.6,0,41.1l0,0.2c0.3,3.2,0.6,6.8,0.9,11.8c0.5,9.4,1,14.5,1.4,18c0.5,3.6,0.7,7.3,0.6,10.9
	v3.5c0.1,4.2,0.1,4.2-5,12.4l-0.1,0.2C605.5,431,605.6,435,605.7,438.2z M77.1,106.9c-2.5-2.2-4-5.7-4.1-7.7c-0.1-0.4,0-0.8,0.2-1.1
	c0.4-0.4,3,0.7,4.5,1.3c3.9,1.7,9.3,4,14.9,1.9c2.5-0.9,4.8-2.5,6.6-4.5c0.3-0.3,0.8-0.8,1.1-1c0.9,1.1,2.3,10-0.4,17.4
	c-1.7,4.5-3.9,10.6-9.3,12.3c-1.3,0.4-2.6,0.5-4,0.4l0.1-0.7c1.1-8.4,7.3-14.1,9.6-16.3l0.1-0.1c1-0.9,1.5-1.4,1.5-2.3
	c0-0.5-0.3-0.9-0.7-1.2c-0.9-0.6-1.6-0.2-3.3,0.8c-2.2,1.3-4.5,2.4-6.9,3.3C83.9,110.4,79.9,109.4,77.1,106.9z M118.7,48.3
	c0,0.1,0,0.1,0,0.2c-1.7-1.6-2.5-2.8-2.7-4c-0.2-1.9,0.9-5,2.1-6.2c0.1-0.1,0.3-0.2,0.4-0.3c0.3,0.5,0.4,2.9,0.2,6l0,0
	C118.7,45.4,118.7,46.9,118.7,48.3z M49.7,39.1c0.1,0,0.2,0.1,0.2,0.2c1.6,1.3,3.2,5.5,2.8,8.8c0,0,0,0,0,0
	c-0.2-0.1-0.6-0.3-1.2-0.6c-0.6-0.3-1.2-0.7-1.9-0.7c-0.2,0-0.5,0-0.7,0.1c-0.4,0.2-0.8,0.6-0.9,1C48,45.2,49,40.3,49.7,39.1z"/>
</svg>
