<svg id="Layer_1" data-name="Layer 1" xmlns="http://www.w3.org/2000/svg" viewBox="0 0 779.99 581.09"><path d="M764.17,514.85c0-1.12,0-2.46,0-4.15a96.15,96.15,0,0,0-.77-13.64c-.48-4.43-1.13-10.5-1.69-21.67-.31-6.2-.72-10.65-1.08-14.58-.94-10.22-1.68-18.3,0-49.68.12-2.25.27-4.6.43-7,.89-13.48,1.9-28.74-2.44-41.16-2.84-8.13-8.44-14.11-13.84-19.9-4.72-5-9.6-10.26-12.59-16.88-5-11-6.42-26-7.6-38.11-.72-7.35-1.29-13.16-2.46-16.6-2.33-6.81-5.06-10.34-8.36-10.79-2.66-.36-5.37,1.42-8,5.32l-.3.44c.34-4.87.71-9.74,1.08-14.59,2-26.87,3.95-52.25,2.07-75.12-2.2-26.67-15.46-63.87-46.11-88.28C619.66,54.4,563.66,56.42,514.54,61c-22.31,2.07-38.79,5.36-53.34,8.27-17.54,3.5-32.68,6.53-53.68,6.92-26.31.48-44.59-2.51-60.72-5.15-21.09-3.46-39.31-6.44-68.89-1.41-20.11,3.42-40.64,6.66-51.43,5.4a64.16,64.16,0,0,1-16-4.2c-3.7-1.38-5.93-2.22-7.39-1-1.28,1.11-1,3.23-.56,5.36,2,9.36,5.2,14.8,9.77,22a54.53,54.53,0,0,0,12.48,13.29c3.31,2.7,5.7,4.65,5.56,6.85-.21,3.27-11.47,8.36-19.41,7.89-14.73-.91-35.31-17.83-40.92-28.4a63.36,63.36,0,0,1-6.92-19.83c1.73,1.25,3.71,2.62,5.93,4.17,1.86,1.3,3.91,2.72,6.14,4.3,10.27,7.25,15.88,13,23.24,21.58,6.52,7.66,18,14,23,14h.18a2.94,2.94,0,0,0,2.43-1.07c1.53-2-.79-4.43-5-8.78-5.39-5.55-14.41-14.84-20.13-28.55a81.94,81.94,0,0,1-4.15-13.3c-1.41-5.88-2.63-10.95-7.77-17.42-2.51-3.17-4.25-4.5-7.72-7.14-2.23-1.7-5.28-4-9.84-7.83l-5-4.19C152.48,23,152.48,23,147.4,20l-1.25-.73c-14-8.14-42.37-9.15-56.75,1.79A88.81,88.81,0,0,0,73.48,36.56l-1.62,1.91a45.36,45.36,0,0,1-8.17,7.79,63,63,0,0,0-5.12,4.32c-5.43,5.13-6.9,9.26-8.77,14.5a81.37,81.37,0,0,1-6.24,14,92.48,92.48,0,0,1-10.65,15c-4.69,5.64-8.74,10.52-12,20.45-2,6.15-4,12-1,14.82,1.43,1.36,3.88,1.88,7.09,1.5,9.25-1.09,23.36-9.18,31-20.85,6.17-9.48,13.64-25.81,14.35-40.63.16-3.34,1.5-10.44,2.52-11.51a1.33,1.33,0,0,1,.93.38c2.06,1.64,4.12,7,3.59,11.28a2.38,2.38,0,0,1-.17.7c-.39.1-1.62-.58-2.15-.88-1-.57-1.86-1-2.71-.65a1.53,1.53,0,0,0-.87,1.06C71.87,76.24,75.22,84.12,79.86,95l.57,1.33c.91,2.15,5.37,15,14.25,40.61l.06.15c.56,1.64,1.1,3.29,1.64,4.92,2.3,7,4.48,13.69,8.21,17.28,1.71,1.65,6.35,5.7,12.13,7.28-.26,14,8.35,25.45,27,50.13l3.8,5a376,376,0,0,1,25.48,39c11.51,19.67,17.85,30.5,37.92,34.57,6.35,1.29,11.59,2.51,15.8,3.49,11.55,2.69,16.33,3.8,18,0,.71-1.65-1-3.54-16.54-18.32-14.55-13.83-36.54-34.73-39.25-43.39-6.17-19.76,2.66-38.94,6.9-48.16,2.72-5.92,9.87-21.47,12.56-22.33.28.85-.82,4.13-1.79,7-3,8.88-8.5,25.42-5,48,2.49,16,10.43,22.87,19.62,30.88,8.85,7.69,18.87,16.42,27,35.48,8.88,20.92,18.16,50.11,11.08,90.48-.07.38-.16.84-.26,1.36-1,5.06-3,15.59-.19,25.31a76.27,76.27,0,0,0,3.79,9.92c1.91,4.35,3.71,8.45,4.16,13.18,5.86,60.89,4.16,82.37-7.89,99.94-4.58,6.69-16.94,27.08-13.7,32.85a3.28,3.28,0,0,0,3.26,1.63,172.28,172.28,0,0,1,21.36.15c1.87.11,3.45.19,4.83.19,6.71,0,8.44-1.91,12.27-11.61a139.7,139.7,0,0,1,7.6-15.69c7.13-13.17,13.28-24.54,8.8-52-2.91-17.81-3.6-89.84-3.52-114.06.09-26.12,9.42-64.41,15-87.28,1.67-6.82,3-12.21,3.48-15.05,3.55-20-14.67-51.09-24.81-64.72a1.3,1.3,0,0,0-2.08,1.56c11.5,15.47,27.48,44.94,24.33,62.7-.49,2.77-1.79,8.12-3.44,14.89-5.6,23-15,61.47-15.07,87.9-.06,18,.39,95.12,3.55,114.48,4.34,26.62-1.33,37.11-8.51,50.38a139.89,139.89,0,0,0-7.74,16c-4.1,10.39-4.3,10.37-14.52,9.77a175.07,175.07,0,0,0-21.66-.15c-.66,0-.79-.18-.86-.3-1.79-3.19,5.84-18.8,13.59-30.11,12.47-18.18,14.26-40,8.33-101.66-.49-5.14-2.37-9.43-4.37-14a76.43,76.43,0,0,1-3.68-9.6c-2.61-9.12-.68-19.24.25-24.1.11-.54.2-1,.27-1.4,7.2-41-2.23-70.7-11.25-91.95-8.32-19.61-18.58-28.54-27.64-36.43s-16.42-14.29-18.76-29.31c-3.42-21.91,1.77-37.45,4.88-46.74,1.88-5.64,2.92-8.75.67-10.14a2.35,2.35,0,0,0-2-.23c-3.28,1-7.55,9.11-14.28,23.75-4.38,9.51-13.49,29.31-7,50,2.91,9.3,24.31,29.64,39.94,44.5,7.11,6.76,14.45,13.73,15.72,15.74-1.27,1.33-6.23.18-14.77-1.81-4.22-1-9.48-2.21-15.87-3.51-18.93-3.84-25.06-14.31-36.2-33.33a376.12,376.12,0,0,0-25.64-39.27l-3.81-5c-18.52-24.54-26.53-35.15-26.46-48a15.28,15.28,0,0,0,6.56-.54c8.07-2.51,11.17-10.81,13.43-16.86,2.84-7.59,2.66-18.67.61-23.12a4,4,0,0,0-2.06-2.24c-1.93-.71-3.25.64-4.65,2.07a17.33,17.33,0,0,1-6.84,4.7c-5.59,2.06-11.2-.34-15.72-2.27-3.78-1.61-7-3-9.09-.89a4.93,4.93,0,0,0-1.18,3.7c.12,3.7,2.65,8.59,6,11.64,4.23,3.83,10.33,5.33,15.18,3.75a33,33,0,0,0,3.6-1.45A32.46,32.46,0,0,0,117,162.75c-.05.4-.1.79-.14,1.19a28.35,28.35,0,0,1-10.47-6.5c-3.27-3.15-5.35-9.5-7.55-16.22-.54-1.64-1.08-3.31-1.66-5l0-.15c-8.9-25.66-13.37-38.55-14.32-40.78L82.25,94c-4.12-9.69-7.18-16.88-6.51-22.37h0c1.3.72,3.07,1.7,4.58.93a3.23,3.23,0,0,0,1.58-2.71c.6-4.76-1.57-11.26-4.55-13.64a3.62,3.62,0,0,0-3.52-.77c-3.23,1.18-4.14,13.69-4.15,13.82C69,83.57,61.77,99.39,55.77,108.6c-7.18,11-20.43,18.67-29.08,19.69-2.35.28-4.17,0-5-.8-1.81-1.72-.06-7,1.64-12.12,3.15-9.47,7.06-14.17,11.58-19.61A96,96,0,0,0,45.83,80.4,84.12,84.12,0,0,0,52.25,66c1.82-5.1,3.13-8.78,8.11-13.48a59.7,59.7,0,0,1,4.92-4.15,48.3,48.3,0,0,0,8.56-8.17l1.62-1.91C80,32.85,83.35,29,91,23.14c13.61-10.36,40.59-9.35,53.86-1.61l1.25.73c4.89,2.83,4.89,2.83,16.58,12.6l5,4.19c4.61,3.84,7.69,6.19,9.94,7.9,3.39,2.59,4.94,3.77,7.26,6.69,4.78,6,5.88,10.6,7.28,16.4a82.6,82.6,0,0,0,4.27,13.7c5.92,14.16,15.15,23.68,20.66,29.36,2.05,2.11,4.34,4.48,4.68,5.43-2.15.6-13.91-4.3-21.42-13.1s-13.21-14.61-23.71-22c-2.24-1.58-4.29-3-6.15-4.3-3.15-2.19-5.76-4-7.89-5.6-.13-1.4-.21-2.69-.25-3.84-.05-1.53,0-3.32.1-5,.22-5.22.44-10.15-2.86-10.67a3.86,3.86,0,0,0-3.33,1.22c-2.24,2.13-3.89,6.9-3.54,10.22s2.67,5.87,7.42,9.5a64.57,64.57,0,0,0,7.55,23.22c5.87,11,27,28.79,43.06,29.77,7.87.48,21.79-4.43,22.17-10.32.22-3.53-2.75-6-6.51-9-3.61-3-8.1-6.61-11.93-12.66-4.56-7.21-7.47-12.23-9.43-21.19a6.47,6.47,0,0,1-.26-2.83c.66-.12,2.83.7,4.76,1.42a67.79,67.79,0,0,0,16.62,4.35c11.13,1.3,31-1.83,52.17-5.42,29.15-5,47.17-2,68,1.4,16.24,2.66,34.65,5.68,61.18,5.19,21.24-.4,36.49-3.44,54.15-7,14.48-2.89,30.9-6.17,53.07-8.24,48.62-4.52,104-6.55,146,26.91,30,23.89,43,60.32,45.14,86.46,1.86,22.66-.05,47.94-2.07,74.7-.49,6.46-1,13-1.42,19.45-15.84,27.06-10.77,53.8-6.27,77.57,2.57,13.55,5,26.35,3.45,38-1.37,10.35-5.4,23.76-12.25,27.49-2.6,1.42-5.41,1.37-8.6-.14-11.17-5.29-19.65-31.18-22-42.89-9-44.61-17.09-90.82-9.27-122.49,12.22-49.51-.77-87.87-5.19-93.2a2.43,2.43,0,0,0-1.87-1.05,1.56,1.56,0,0,0-1.13.59c-.75.94-.54,2.47.39,8.2,1.78,11,5.5,33.91-1,58.15-5.33,19.91-21.28,36.35-35.34,50.85-3.29,3.4-6.4,6.6-9.21,9.69C571.6,306.7,561,334.06,565.09,357a81.37,81.37,0,0,0,4.88,16c2.18,5.59,4.07,10.43,3.77,16.15-.61,11.86-5.09,20.63-14,38.12-1.88,3.7-4,7.78-6.25,12.36-12.36,24.78-13.54,47.92-14.25,61.75l-.13,2.49c-.44,7.93-3.48,10.91-7,14.35-4.38,4.29-9.34,9.15-10.37,23.78-.26,3.62-8.83,7.07-20.37,8.2-12.3,1.21-23.11-.75-24.09-4.36-1.31-4.8,2.25-9.72,6.37-15.42,1.7-2.35,3.46-4.77,5.05-7.41a54.91,54.91,0,0,1,5.22-7.33c4.72-5.77,8.13-9.93,24.34-59.24C532.05,414.45,530.59,395.26,530,388c0-.68-.1-1.25-.12-1.73-.63-13.34-7.28-50.48-27.95-95.58-10.57-23.07-11.67-42.19-12.32-53.61-.5-8.68-.8-13.92-4.95-14.41-2.37-.27-5.37,1.3-8.4,4.43-5.76,6-10.86,16.67-9.27,27.21,2.18,14.39,5.59,19.45,13.85,31.67l2.44,3.63a116,116,0,0,0,13,15.76c4.25,4.49,6.42,6.9,5.44,8.52-4.11,6.75-26.3,20.5-65.48,17.43-51.6-4.05-90.92-10-108-14a7,7,0,0,0-2-3.6c-1.7-1.49-4.14-1.79-7.46-.9-1.88.5-2.2,1.46-2.13,2.18s.19,2.16,9.41,4.48c.56,4.34-.39,11.5-1.5,19.91-1.07,8.06-2.4,18.1-2.89,29.07-.37,8.21-.9,16.06-1.41,23.64-1.23,18.13-2.39,35.26-1.07,53.71.78,10.86,2.22,21.58,3.48,31,2,14.93,3.72,27.81,1.65,33-1.34,3.35-2.33,8.8-3.49,15.1-2.42,13.22-5.75,31.32-13.76,30.91a1.27,1.27,0,0,0-1.36,1.23,1.3,1.3,0,0,0,1.23,1.37c10.33.54,13.71-18.08,16.45-33,1.08-5.91,2.1-11.49,3.34-14.61,2.32-5.84.64-18.41-1.48-34.32-1.26-9.43-2.69-20.11-3.46-30.89-1.32-18.27-.16-35.3,1.06-53.34.51-7.6,1.05-15.47,1.41-23.7.49-10.86,1.81-20.84,2.87-28.85,1.11-8.35,2-15,1.6-19.61,5.14,1.17,12.46,2.56,22.93,4.21,23.72,3.75,53.7,7.14,84.41,9.55,40.8,3.2,63.36-11.19,67.91-18.66,2.06-3.4-1.06-6.69-5.78-11.67a114.1,114.1,0,0,1-12.71-15.42L483,284.57c-8.25-12.22-11.34-16.8-13.43-30.6-1.45-9.61,3.42-19.71,8.56-25,2.82-2.9,5-3.8,6.24-3.65,2,.23,2.26,5.15,2.65,12,.67,11.6,1.78,31,12.56,54.55,21.26,46.39,27.22,84,27.71,94.62,0,.5.07,1.09.13,1.79.53,7.09,2,25.9-11.66,67.33-16.06,48.84-19.34,52.85-23.88,58.41a57.43,57.43,0,0,0-5.44,7.63c-1.53,2.54-3.26,4.92-4.92,7.22-4.33,6-8.42,11.63-6.78,17.63,1.86,6.85,17.76,7.17,26.85,6.27,10.69-1.05,22.27-4.39,22.71-10.6,1-13.65,5.35-18,9.6-22.11,3.74-3.67,7.27-7.13,7.76-16.06l.13-2.51c.7-13.62,1.87-36.43,14-60.72,2.29-4.57,4.36-8.65,6.25-12.34,9.08-17.81,13.64-26.76,14.29-39.17.32-6.28-1.66-11.35-4-17.23a79.31,79.31,0,0,1-4.74-15.48c-3.94-22.09,6.42-48.65,28.43-72.86,2.78-3.06,5.88-6.25,9.15-9.63,13.58-14,30.48-31.42,36-52,6.63-24.78,2.86-48.05,1-59.23-.18-1.12-.36-2.26-.51-3.26C646.33,169.14,656,203.41,645,248c-8,32.19.22,78.72,9.26,123.62,1.94,9.65,10.41,38.56,23.43,44.73,3.94,1.87,7.63,1.89,11,.07,9.93-5.4,13-25.46,13.57-29.43,1.6-12.09-.86-25.09-3.47-38.85C694.6,326.35,690,302,702,277.36c-2.57,41.23-2.48,82.42,13.39,117.84,2,4.37,3.24,8.92,5.19,15.8,1,3.57,2.16,7.62,3.69,12.67l.43,1.42c2.46,8,3.94,12.89,3.61,48.66-.27,29.91-2.81,34.47-5.26,38.87a30.67,30.67,0,0,0-1.71,3.4,173.78,173.78,0,0,1-7.64,16.43c-2.27,4.34-4.07,7.76-7.74,18.21a3.11,3.11,0,0,0,1.22,3.6c5.85,4.76,35,4.92,44.78-1,3.13-1.89,3-5.31,2.88-8.92s-.29-8,2.5-12.41l.15-.25C764.15,521.16,764.28,521,764.17,514.85ZM119.59,163.07c1.32-10.54,9.11-17.61,12-20.27,1.23-1.11,1.64-1.48,1.58-2.24a1.36,1.36,0,0,0-.58-1c-.78-.52-1.28-.24-3.36,1a49.59,49.59,0,0,1-8.51,4.09c-4,1.3-9.06,0-12.63-3.21-3.12-2.83-5.08-7.2-5.16-9.79a2.53,2.53,0,0,1,.45-1.81c.8-.83,3.42.29,6.2,1.48,4.68,2,11.08,4.72,17.64,2.31a20,20,0,0,0,7.8-5.32c1.05-1.07,1.57-1.57,1.89-1.45,1.72.83,3.27,13-.09,22-2.07,5.55-4.91,13.16-11.76,15.29a13,13,0,0,1-5.67.42C119.47,164,119.52,163.56,119.59,163.07Zm40.27-98.56c-.08,1.77-.15,3.61-.1,5.24,0,.51.05,1,.08,1.59-2.88-2.39-4.32-4.24-4.53-6.22-.26-2.5,1.1-6.49,2.75-8.06a1.76,1.76,0,0,1,1-.56h.09C160.2,56.67,160,62.37,159.86,64.51ZM320.42,315.17c1.89-.37,3.24-.18,4.09.57a3.49,3.49,0,0,1,.72.91A40.59,40.59,0,0,1,320.42,315.17ZM755.33,530.28l-.15.24c-3.22,5.11-3,10-2.9,13.89.13,3.62.12,5.55-1.62,6.6-8.8,5.32-36.73,5.35-41.8,1.23-.51-.41-.44-.6-.4-.72,3.6-10.27,5.36-13.62,7.58-17.86A177.26,177.26,0,0,0,723.78,517a28.52,28.52,0,0,1,1.58-3.13c2.61-4.69,5.31-9.54,5.59-40.11.33-36.17-1.19-41.17-3.73-49.45l-.42-1.41c-1.52-5-2.67-9.07-3.68-12.63-2-7-3.29-11.61-5.32-16.15-16.35-36.48-15.68-79.47-12.8-122.25q1.32-2.2,2.83-4.43c1.41-2.07,3.52-4.47,5.54-4.2s4.35,3.5,6.25,9.05c1.08,3.16,1.66,9.11,2.33,16,1.2,12.26,2.69,27.53,7.82,38.93,3.16,7,8.19,12.39,13.06,17.59,5.46,5.84,10.62,11.36,13.28,19,4.17,11.91,3.18,26.9,2.31,40.12-.16,2.43-.32,4.79-.44,7.06-1.65,31.56-.91,39.72,0,50.05.36,3.9.77,8.32,1.07,14.47.57,11.24,1.22,17.36,1.7,21.82a92.27,92.27,0,0,1,.76,13.33c0,1.72,0,3.08,0,4.22C761.67,520.23,761.67,520.23,755.33,530.28Z"/></svg>